<?xml version="1.0" encoding="UTF-8" standalone="no"?>
<svg
   xmlns:dc="http://purl.org/dc/elements/1.1/"
   xmlns:cc="http://creativecommons.org/ns#"
   xmlns:rdf="http://www.w3.org/1999/02/22-rdf-syntax-ns#"
   xmlns:svg="http://www.w3.org/2000/svg"
   xmlns="http://www.w3.org/2000/svg"
   xmlns:sodipodi="http://sodipodi.sourceforge.net/DTD/sodipodi-0.dtd"
   xmlns:inkscape="http://www.inkscape.org/namespaces/inkscape"
   version="1.1"
   viewBox="0 0 264.42599 365.67136"
   stroke-miterlimit="10"
   id="svg175"
   sodipodi:docname="ImageVAE_Arch1.svg"
   inkscape:version="0.92.4 5da689c313, 2019-01-14"
   width="264.42599"
   height="365.67136"
   style="fill:none;stroke:none;stroke-linecap:square;stroke-miterlimit:10">
  <metadata
     id="metadata181">
    <rdf:RDF>
      <cc:Work
         rdf:about="">
        <dc:format>image/svg+xml</dc:format>
        <dc:type
           rdf:resource="http://purl.org/dc/dcmitype/StillImage" />
        <dc:title></dc:title>
      </cc:Work>
    </rdf:RDF>
  </metadata>
  <defs
     id="defs179" />
  <sodipodi:namedview
     pagecolor="#ffffff"
     bordercolor="#666666"
     borderopacity="1"
     objecttolerance="10"
     gridtolerance="10"
     guidetolerance="10"
     inkscape:pageopacity="0"
     inkscape:pageshadow="2"
     inkscape:window-width="1920"
     inkscape:window-height="1012"
     id="namedview177"
     showgrid="false"
     inkscape:zoom="1.3875"
     inkscape:cx="176.56053"
     inkscape:cy="179.6581"
     inkscape:window-x="0"
     inkscape:window-y="32"
     inkscape:window-maximized="1"
     inkscape:current-layer="g173"
     fit-margin-top="0"
     fit-margin-left="0"
     fit-margin-right="0"
     fit-margin-bottom="0" />
  <clipPath
     id="g7a9afec926_0_40.0">
    <path
       d="M 0,0 H 960 V 540 H 0 Z"
       id="path2"
       inkscape:connector-curvature="0"
       style="clip-rule:nonzero" />
  </clipPath>
  <g
     clip-path="url(#g7a9afec926_0_40.0)"
     id="g173"
     transform="translate(-347.787,-87.81615)">
    <path
       d="M 348.287,243.83858 V 106.63869 h 28.01205 v 137.19989 z"
       id="path7"
       inkscape:connector-curvature="0"
       style="fill:#eeeeee;fill-rule:evenodd" />
    <path
       d="M 348.287,243.83858 V 106.63869 h 28.01205 v 137.19989 z"
       id="path9"
       inkscape:connector-curvature="0"
       style="fill-rule:evenodd;stroke:#595959;stroke-width:1;stroke-linecap:butt;stroke-linejoin:round" />
    <path
       d="m 364.0174,208.24759 -0.125,-0.9375 q 0.79687,-0.15625 1.15625,-0.54688 0.34375,-0.39062 0.34375,-0.9375 0,-0.65625 -0.45313,-1.10937 -0.46875,-0.46875 -1.14062,-0.46875 -0.64063,0 -1.0625,0.42187 -0.42188,0.42188 -0.42188,1.07813 0,0.26562 0.10938,0.65625 l -0.82813,-0.10938 q 0.0156,-0.0937 0.0156,-0.14062 0,-0.59375 -0.3125,-1.07813 -0.3125,-0.48437 -0.96875,-0.48437 -0.51563,0 -0.84375,0.35937 -0.34375,0.34375 -0.34375,0.89063 0,0.54687 0.34375,0.92187 0.34375,0.35938 1.03125,0.45313 l -0.17188,0.9375 q -0.9375,-0.17188 -1.45312,-0.78125 -0.51563,-0.60938 -0.51563,-1.5 0,-0.625 0.26563,-1.15625 0.26562,-0.53125 0.73437,-0.79688 0.45313,-0.28125 0.98438,-0.28125 0.48437,0 0.89062,0.26563 0.40625,0.26562 0.65625,0.78125 0.15625,-0.67188 0.65625,-1.04688 0.48438,-0.375 1.21875,-0.375 1,0 1.70313,0.73438 0.6875,0.71875 0.6875,1.82812 0,1 -0.59375,1.67188 -0.60938,0.65625 -1.5625,0.75 z m 2.01562,-5.5515 -2.875,-2.01562 -2.65625,1.85937 v -1.17187 l 1.29688,-0.84375 q 0.375,-0.23438 0.625,-0.39063 -0.34375,-0.21875 -0.60938,-0.40625 l -1.3125,-0.9375 v -1.125 l 2.60938,1.92188 2.92187,-2.0625 v 1.15625 l -1.71875,1.125 -0.46875,0.29687 2.1875,1.45313 z m -2.01562,-5.70312 -0.125,-0.9375 q 0.79687,-0.15625 1.15625,-0.54688 0.34375,-0.39062 0.34375,-0.9375 0,-0.65625 -0.45313,-1.10937 -0.46875,-0.46875 -1.14062,-0.46875 -0.64063,0 -1.0625,0.42187 -0.42188,0.42188 -0.42188,1.07813 0,0.26562 0.10938,0.65625 l -0.82813,-0.10938 q 0.0156,-0.0937 0.0156,-0.14062 0,-0.59375 -0.3125,-1.07813 -0.3125,-0.48437 -0.96875,-0.48437 -0.51563,0 -0.84375,0.35937 -0.34375,0.34375 -0.34375,0.89063 0,0.54687 0.34375,0.92187 0.34375,0.35938 1.03125,0.45313 l -0.17188,0.9375 q -0.9375,-0.17188 -1.45312,-0.78125 -0.51563,-0.60938 -0.51563,-1.5 0,-0.625 0.26563,-1.15625 0.26562,-0.53125 0.73437,-0.79688 0.45313,-0.28125 0.98438,-0.28125 0.48437,0 0.89062,0.26563 0.40625,0.26562 0.65625,0.78125 0.15625,-0.67188 0.65625,-1.04688 0.48438,-0.375 1.21875,-0.375 1,0 1.70313,0.73438 0.6875,0.71875 0.6875,1.82812 0,1 -0.59375,1.67188 -0.60938,0.65625 -1.5625,0.75 z m 2.01562,-6.4265 h -1.0625 v -1.0625 h 1.0625 q 0.59375,0 0.95313,0.21875 0.35937,0.20312 0.5625,0.65625 l -0.40625,0.25 q -0.125,-0.29688 -0.39063,-0.4375 -0.25,-0.14063 -0.71875,-0.15625 z m -2.01562,-5.4213 -0.125,-0.9375 q 0.79687,-0.15625 1.15625,-0.54687 0.34375,-0.39063 0.34375,-0.9375 0,-0.65625 -0.45313,-1.10938 -0.46875,-0.46875 -1.14062,-0.46875 -0.64063,0 -1.0625,0.42188 -0.42188,0.42187 -0.42188,1.07812 0,0.26563 0.10938,0.65625 l -0.82813,-0.10937 q 0.0156,-0.0937 0.0156,-0.14063 0,-0.59375 -0.3125,-1.07812 -0.3125,-0.48438 -0.96875,-0.48438 -0.51563,0 -0.84375,0.35938 -0.34375,0.34375 -0.34375,0.89062 0,0.54688 0.34375,0.92188 0.34375,0.35937 1.03125,0.45312 l -0.17188,0.9375 q -0.9375,-0.17187 -1.45312,-0.78125 -0.51563,-0.60937 -0.51563,-1.5 0,-0.625 0.26563,-1.15625 0.26562,-0.53125 0.73437,-0.79687 0.45313,-0.28125 0.98438,-0.28125 0.48437,0 0.89062,0.26562 0.40625,0.26563 0.65625,0.78125 0.15625,-0.67187 0.65625,-1.04687 0.48438,-0.375 1.21875,-0.375 1,0 1.70313,0.73437 0.6875,0.71875 0.6875,1.82813 0,1 -0.59375,1.67187 -0.60938,0.65625 -1.5625,0.75 z m 1.10937,-10.83274 h 0.90625 v 5.03125 q -0.34375,0.0156 -0.65625,-0.10938 -0.51562,-0.1875 -1.01562,-0.60937 -0.5,-0.42188 -1.14063,-1.23438 -1.03125,-1.23437 -1.625,-1.67187 -0.59375,-0.4375 -1.125,-0.4375 -0.5625,0 -0.9375,0.40625 -0.39062,0.39062 -0.39062,1.03125 0,0.67187 0.40625,1.07812 0.40625,0.40625 1.125,0.40625 l -0.0937,0.96875 q -1.07813,-0.0937 -1.64063,-0.73437 -0.5625,-0.65625 -0.5625,-1.73438 0,-1.10937 0.60938,-1.75 0.60937,-0.64062 1.5,-0.64062 0.46875,0 0.90625,0.1875 0.4375,0.1875 0.9375,0.625 0.48437,0.4375 1.32812,1.45312 0.71875,0.82813 0.96875,1.07813 0.25,0.23437 0.5,0.39062 z m 0.90625,-4.40278 h -7.625 v -5.14062 h 0.89063 v 4.125 h 2.375 v -3.57813 h 0.89062 v 3.57813 h 3.46875 z m -6.54687,-6.33738 h -1.07813 v -0.9375 h 1.07813 z m 6.54687,0 h -5.53125 v -0.9375 h 5.53125 z m 0,-2.35186 h -7.625 v -0.9375 h 7.625 z m -0.84375,-4.42997 0.82813,-0.125 q 0.0937,0.39062 0.0937,0.70312 0,0.5 -0.15625,0.78125 -0.17188,0.28125 -0.4375,0.40625 -0.26563,0.10938 -1.10938,0.10938 h -3.17187 v 0.6875 h -0.73438 v -0.6875 h -1.35937 l -0.5625,-0.9375 h 1.92187 v -0.9375 h 0.73438 v 0.9375 h 3.23437 q 0.39063,0 0.51563,-0.0469 0.10937,-0.0469 0.1875,-0.15625 0.0625,-0.10937 0.0625,-0.32812 0,-0.15625 -0.0469,-0.40625 z m -0.9375,-4.69503 0.125,-0.96875 q 0.84375,0.23438 1.3125,0.85938 0.46875,0.60937 0.46875,1.57812 0,1.20313 -0.75,1.92188 -0.75,0.70312 -2.09375,0.70312 -1.39062,0 -2.15625,-0.71875 -0.78125,-0.71875 -0.78125,-1.85937 0,-1.10938 0.76563,-1.8125 0.75,-0.70313 2.125,-0.70313 0.0781,0 0.23437,0 v 4.125 q 0.92188,-0.0469 1.40625,-0.51562 0.48438,-0.46875 0.48438,-1.15625 0,-0.51563 -0.26563,-0.875 -0.28125,-0.35938 -0.875,-0.57813 z m -1.51562,3.07813 v -3.09375 q -0.6875,0.0625 -1.04688,0.35937 -0.53125,0.45313 -0.53125,1.15625 0,0.64063 0.4375,1.09375 0.42188,0.4375 1.14063,0.48438 z m 3.29687,-5.20775 h -5.53125 v -0.84375 h 0.84375 q -0.59375,-0.32812 -0.78125,-0.59375 -0.1875,-0.28125 -0.1875,-0.60937 0,-0.46875 0.3125,-0.95313 l 0.85938,0.3125 q -0.20313,0.34375 -0.20313,0.6875 0,0.3125 0.1875,0.5625 0.1875,0.23438 0.51563,0.34375 0.5,0.15625 1.09375,0.15625 h 2.89062 z m -1.65625,-3.18924 -0.14062,-0.92187 q 0.5625,-0.0781 0.85937,-0.4375 0.29688,-0.35938 0.29688,-1 0,-0.64063 -0.26563,-0.95313 -0.26562,-0.3125 -0.625,-0.3125 -0.3125,0 -0.5,0.28125 -0.125,0.1875 -0.3125,0.95313 -0.26562,1.03125 -0.45312,1.4375 -0.1875,0.39062 -0.51563,0.59375 -0.34375,0.20312 -0.75,0.20312 -0.35937,0 -0.67187,-0.17187 -0.32813,-0.17188 -0.53125,-0.45313 -0.15625,-0.21875 -0.26563,-0.59375 -0.125,-0.39062 -0.125,-0.8125 0,-0.65625 0.1875,-1.14062 0.1875,-0.5 0.51563,-0.73438 0.3125,-0.23437 0.85937,-0.3125 l 0.125,0.90625 q -0.4375,0.0625 -0.67187,0.375 -0.23438,0.29688 -0.23438,0.82813 0,0.65625 0.21875,0.9375 0.20313,0.26562 0.48438,0.26562 0.1875,0 0.32812,-0.10937 0.15625,-0.125 0.25,-0.35938 0.0625,-0.14062 0.25,-0.82812 0.26563,-1 0.4375,-1.39063 0.15625,-0.39062 0.48438,-0.60937 0.3125,-0.23438 0.79687,-0.23438 0.46875,0 0.89063,0.28125 0.40625,0.26563 0.64062,0.78125 0.21875,0.51563 0.21875,1.17188 0,1.07812 -0.4375,1.64062 -0.45312,0.5625 -1.34375,0.71875 z"
       id="path11"
       inkscape:connector-curvature="0"
       style="fill:#000000;fill-rule:nonzero" />
    <path
       d="M 414.69217,227.16534 V 123.31192 h 28.01208 v 103.85342 z"
       id="path13"
       inkscape:connector-curvature="0"
       style="fill:#eeeeee;fill-rule:evenodd" />
    <path
       d="M 414.69217,227.16534 V 123.31192 h 28.01208 v 103.85342 z"
       id="path15"
       inkscape:connector-curvature="0"
       style="fill-rule:evenodd;stroke:#595959;stroke-width:1;stroke-linecap:butt;stroke-linejoin:round" />
    <path
       d="m 430.42258,208.24759 -0.125,-0.9375 q 0.79687,-0.15625 1.15625,-0.54688 0.34375,-0.39062 0.34375,-0.9375 0,-0.65625 -0.45313,-1.10937 -0.46875,-0.46875 -1.14062,-0.46875 -0.64063,0 -1.0625,0.42187 -0.42188,0.42188 -0.42188,1.07813 0,0.26562 0.10938,0.65625 l -0.82813,-0.10938 q 0.0156,-0.0937 0.0156,-0.14062 0,-0.59375 -0.3125,-1.07813 -0.3125,-0.48437 -0.96875,-0.48437 -0.51563,0 -0.84375,0.35937 -0.34375,0.34375 -0.34375,0.89063 0,0.54687 0.34375,0.92187 0.34375,0.35938 1.03125,0.45313 l -0.17188,0.9375 q -0.9375,-0.17188 -1.45312,-0.78125 -0.51563,-0.60938 -0.51563,-1.5 0,-0.625 0.26563,-1.15625 0.26562,-0.53125 0.73437,-0.79688 0.45313,-0.28125 0.98438,-0.28125 0.48437,0 0.89062,0.26563 0.40625,0.26562 0.65625,0.78125 0.15625,-0.67188 0.65625,-1.04688 0.48438,-0.375 1.21875,-0.375 1,0 1.70313,0.73438 0.6875,0.71875 0.6875,1.82812 0,1 -0.59375,1.67188 -0.60938,0.65625 -1.5625,0.75 z m 2.01562,-5.5515 -2.875,-2.01562 -2.65625,1.85937 v -1.17187 l 1.29688,-0.84375 q 0.375,-0.23438 0.625,-0.39063 -0.34375,-0.21875 -0.60938,-0.40625 l -1.3125,-0.9375 v -1.125 l 2.60938,1.92188 2.92187,-2.0625 v 1.15625 l -1.71875,1.125 -0.46875,0.29687 2.1875,1.45313 z m -2.01562,-5.70312 -0.125,-0.9375 q 0.79687,-0.15625 1.15625,-0.54688 0.34375,-0.39062 0.34375,-0.9375 0,-0.65625 -0.45313,-1.10937 -0.46875,-0.46875 -1.14062,-0.46875 -0.64063,0 -1.0625,0.42187 -0.42188,0.42188 -0.42188,1.07813 0,0.26562 0.10938,0.65625 l -0.82813,-0.10938 q 0.0156,-0.0937 0.0156,-0.14062 0,-0.59375 -0.3125,-1.07813 -0.3125,-0.48437 -0.96875,-0.48437 -0.51563,0 -0.84375,0.35937 -0.34375,0.34375 -0.34375,0.89063 0,0.54687 0.34375,0.92187 0.34375,0.35938 1.03125,0.45313 l -0.17188,0.9375 q -0.9375,-0.17188 -1.45312,-0.78125 -0.51563,-0.60938 -0.51563,-1.5 0,-0.625 0.26563,-1.15625 0.26562,-0.53125 0.73437,-0.79688 0.45313,-0.28125 0.98438,-0.28125 0.48437,0 0.89062,0.26563 0.40625,0.26562 0.65625,0.78125 0.15625,-0.67188 0.65625,-1.04688 0.48438,-0.375 1.21875,-0.375 1,0 1.70313,0.73438 0.6875,0.71875 0.6875,1.82812 0,1 -0.59375,1.67188 -0.60938,0.65625 -1.5625,0.75 z m 2.01562,-6.4265 h -1.0625 v -1.0625 h 1.0625 q 0.59375,0 0.95313,0.21875 0.35937,0.20312 0.5625,0.65625 l -0.40625,0.25 q -0.125,-0.29688 -0.39063,-0.4375 -0.25,-0.14063 -0.71875,-0.15625 z m -5.76562,-10.26505 0.0781,0.92188 q -0.54687,0.125 -0.79687,0.35937 -0.40625,0.375 -0.40625,0.9375 0,0.4375 0.25,0.78125 0.32812,0.4375 0.95312,0.70313 0.60938,0.25 1.75,0.26562 -0.51562,-0.34375 -0.76562,-0.82812 -0.25,-0.5 -0.25,-1.03125 0,-0.9375 0.70312,-1.59375 0.6875,-0.65625 1.76563,-0.65625 0.71875,0 1.34375,0.3125 0.60937,0.3125 0.9375,0.85937 0.32812,0.53125 0.32812,1.21875 0,1.17188 -0.85937,1.90625 -0.85938,0.73438 -2.82813,0.73438 -2.21875,0 -3.21875,-0.8125 -0.875,-0.71875 -0.875,-1.92188 0,-0.89062 0.5,-1.46875 0.5,-0.57812 1.39063,-0.6875 z m 3.29687,3.8125 q 0.48438,0 0.92188,-0.20312 0.4375,-0.20313 0.67187,-0.5625 0.23438,-0.375 0.23438,-0.78125 0,-0.59375 -0.46875,-1.01563 -0.48438,-0.4375 -1.3125,-0.4375 -0.78125,0 -1.23438,0.42188 -0.46875,0.42187 -0.46875,1.0625 0,0.64062 0.46875,1.07812 0.45313,0.4375 1.1875,0.4375 z m 2.46875,-7.87962 h -1.82812 v 3.29687 h -0.85938 l -4.9375,-3.46875 v -0.76562 h 4.9375 v -1.03125 h 0.85938 v 1.03125 h 1.82812 z m -2.6875,0 h -3.4375 l 3.4375,2.375 z m 2.6875,-6.32465 h -7.625 v -5.14062 h 0.89063 v 4.125 h 2.375 v -3.57813 h 0.89062 v 3.57813 h 3.46875 z m -6.54687,-6.33738 h -1.07813 v -0.9375 h 1.07813 z m 6.54687,0 h -5.53125 v -0.9375 h 5.53125 z m 0,-2.35186 h -7.625 v -0.9375 h 7.625 z m -0.84375,-4.42997 0.82813,-0.125 q 0.0937,0.39062 0.0937,0.70312 0,0.5 -0.15625,0.78125 -0.17188,0.28125 -0.4375,0.40625 -0.26563,0.10938 -1.10938,0.10938 h -3.17187 v 0.6875 h -0.73438 v -0.6875 h -1.35937 l -0.5625,-0.9375 h 1.92187 v -0.9375 h 0.73438 v 0.9375 h 3.23437 q 0.39063,0 0.51563,-0.0469 0.10937,-0.0469 0.1875,-0.15625 0.0625,-0.10937 0.0625,-0.32812 0,-0.15625 -0.0469,-0.40625 z m -0.9375,-4.69503 0.125,-0.96875 q 0.84375,0.23438 1.3125,0.85938 0.46875,0.60937 0.46875,1.57812 0,1.20313 -0.75,1.92188 -0.75,0.70312 -2.09375,0.70312 -1.39062,0 -2.15625,-0.71875 -0.78125,-0.71875 -0.78125,-1.85937 0,-1.10938 0.76563,-1.8125 0.75,-0.70313 2.125,-0.70313 0.0781,0 0.23437,0 v 4.125 q 0.92188,-0.0469 1.40625,-0.51562 0.48438,-0.46875 0.48438,-1.15625 0,-0.51563 -0.26563,-0.875 -0.28125,-0.35938 -0.875,-0.57813 z m -1.51562,3.07813 v -3.09375 q -0.6875,0.0625 -1.04688,0.35937 -0.53125,0.45313 -0.53125,1.15625 0,0.64063 0.4375,1.09375 0.42188,0.4375 1.14063,0.48438 z m 3.29687,-5.20775 h -5.53125 v -0.84375 h 0.84375 q -0.59375,-0.32812 -0.78125,-0.59375 -0.1875,-0.28125 -0.1875,-0.60937 0,-0.46875 0.3125,-0.95313 l 0.85938,0.3125 q -0.20313,0.34375 -0.20313,0.6875 0,0.3125 0.1875,0.5625 0.1875,0.23438 0.51563,0.34375 0.5,0.15625 1.09375,0.15625 h 2.89062 z m -1.65625,-3.18924 -0.14062,-0.92187 q 0.5625,-0.0781 0.85937,-0.4375 0.29688,-0.35938 0.29688,-1 0,-0.64063 -0.26563,-0.95313 -0.26562,-0.3125 -0.625,-0.3125 -0.3125,0 -0.5,0.28125 -0.125,0.1875 -0.3125,0.95313 -0.26562,1.03125 -0.45312,1.4375 -0.1875,0.39062 -0.51563,0.59375 -0.34375,0.20312 -0.75,0.20312 -0.35937,0 -0.67187,-0.17187 -0.32813,-0.17188 -0.53125,-0.45313 -0.15625,-0.21875 -0.26563,-0.59375 -0.125,-0.39062 -0.125,-0.8125 0,-0.65625 0.1875,-1.14062 0.1875,-0.5 0.51563,-0.73438 0.3125,-0.23437 0.85937,-0.3125 l 0.125,0.90625 q -0.4375,0.0625 -0.67187,0.375 -0.23438,0.29688 -0.23438,0.82813 0,0.65625 0.21875,0.9375 0.20313,0.26562 0.48438,0.26562 0.1875,0 0.32812,-0.10937 0.15625,-0.125 0.25,-0.35938 0.0625,-0.14062 0.25,-0.82812 0.26563,-1 0.4375,-1.39063 0.15625,-0.39062 0.48438,-0.60937 0.3125,-0.23438 0.79687,-0.23438 0.46875,0 0.89063,0.28125 0.40625,0.26563 0.64062,0.78125 0.21875,0.51563 0.21875,1.17188 0,1.07812 -0.4375,1.64062 -0.45312,0.5625 -1.34375,0.71875 z"
       id="path17"
       inkscape:connector-curvature="0"
       style="fill:#000000;fill-rule:nonzero" />
    <path
       d="m 389.67157,219.29259 v -88.10791 h 11.64807 v 88.10791 z"
       id="path19"
       inkscape:connector-curvature="0"
       style="fill:#000000;fill-opacity:0;fill-rule:evenodd" />
    <path
       d="m 398.32938,202.1602 h 0.90625 v 5.03125 q -0.34375,0.0156 -0.65625,-0.10938 -0.51562,-0.1875 -1.01562,-0.60937 -0.5,-0.42188 -1.14063,-1.23438 -1.03125,-1.23437 -1.625,-1.67187 -0.59375,-0.4375 -1.125,-0.4375 -0.5625,0 -0.9375,0.40625 -0.39062,0.39062 -0.39062,1.03125 0,0.67187 0.40625,1.07812 0.40625,0.40625 1.125,0.40625 l -0.0937,0.96875 q -1.07813,-0.0937 -1.64063,-0.73437 -0.5625,-0.65625 -0.5625,-1.73438 0,-1.10937 0.60938,-1.75 0.60937,-0.64062 1.5,-0.64062 0.46875,0 0.90625,0.1875 0.4375,0.1875 0.9375,0.625 0.48437,0.4375 1.32812,1.45312 0.71875,0.82813 0.96875,1.07813 0.25,0.23437 0.5,0.39062 z m 0.90625,-0.64525 -2.875,-2.01562 -2.65625,1.85937 v -1.17187 l 1.29688,-0.84375 q 0.375,-0.23438 0.625,-0.39063 -0.34375,-0.21875 -0.60938,-0.40625 l -1.3125,-0.9375 v -1.125 l 2.60938,1.92188 2.92187,-2.0625 v 1.15625 l -1.71875,1.125 -0.46875,0.29687 2.1875,1.45313 z m -0.90625,-10.60937 h 0.90625 v 5.03125 q -0.34375,0.0156 -0.65625,-0.10938 -0.51562,-0.1875 -1.01562,-0.60937 -0.5,-0.42188 -1.14063,-1.23438 -1.03125,-1.23437 -1.625,-1.67187 -0.59375,-0.4375 -1.125,-0.4375 -0.5625,0 -0.9375,0.40625 -0.39062,0.39062 -0.39062,1.03125 0,0.67187 0.40625,1.07812 0.40625,0.40625 1.125,0.40625 l -0.0937,0.96875 q -1.07813,-0.0937 -1.64063,-0.73437 -0.5625,-0.65625 -0.5625,-1.73438 0,-1.10937 0.60938,-1.75 0.60937,-0.64062 1.5,-0.64062 0.46875,0 0.90625,0.1875 0.4375,0.1875 0.9375,0.625 0.48437,0.4375 1.32812,1.45312 0.71875,0.82813 0.96875,1.07813 0.25,0.23437 0.5,0.39062 z m 0.90625,-4.32465 h -7.625 v -1.51562 l 5.39063,-1.79688 q 0.76562,-0.25 1.14062,-0.375 -0.42187,-0.125 -1.23437,-0.40625 l -5.29688,-1.82812 v -1.34375 h 7.625 v 0.96875 h -6.39062 l 6.39062,2.21875 v 0.90625 l -6.5,2.20312 h 6.5 z m -0.6875,-12.39236 q 0.45313,0.53125 0.64063,1.01562 0.17187,0.46875 0.17187,1.01563 0,0.92187 -0.4375,1.40625 -0.45312,0.48437 -1.14062,0.48437 -0.40625,0 -0.73438,-0.17187 -0.34375,-0.1875 -0.54687,-0.48438 -0.20313,-0.3125 -0.3125,-0.6875 -0.0625,-0.26562 -0.14063,-0.82812 -0.125,-1.125 -0.3125,-1.67188 -0.20312,0 -0.25,0 -0.57812,0 -0.8125,0.26563 -0.3125,0.35937 -0.3125,1.0625 0,0.65625 0.23438,0.98437 0.23437,0.3125 0.8125,0.45313 l -0.125,0.92187 q -0.57813,-0.125 -0.9375,-0.40625 -0.375,-0.29687 -0.5625,-0.82812 -0.20313,-0.54688 -0.20313,-1.25 0,-0.71875 0.17188,-1.15625 0.17187,-0.4375 0.42187,-0.64063 0.25,-0.21875 0.64063,-0.29687 0.23437,-0.0469 0.85937,-0.0469 h 1.25 q 1.29688,0 1.65625,-0.0625 0.34375,-0.0625 0.65625,-0.23437 v 0.96875 q -0.29687,0.15625 -0.6875,0.1875 z m -2.07812,0.0781 q 0.20312,0.51563 0.34375,1.53125 0.0781,0.57813 0.1875,0.82813 0.10937,0.23437 0.3125,0.35937 0.1875,0.125 0.4375,0.125 0.375,0 0.625,-0.28125 0.25,-0.28125 0.25,-0.82812 0,-0.53125 -0.23438,-0.95313 -0.23437,-0.42187 -0.65625,-0.625 -0.3125,-0.15625 -0.9375,-0.15625 z m 2.76562,-1.77025 -2.875,-2.01562 -2.65625,1.85937 v -1.17187 l 1.29688,-0.84375 q 0.375,-0.23438 0.625,-0.39063 -0.34375,-0.21875 -0.60938,-0.40625 l -1.3125,-0.9375 v -1.125 l 2.60938,1.92188 2.92187,-2.0625 v 1.15625 l -1.71875,1.125 -0.46875,0.29687 2.1875,1.45313 z m 0,-9.03877 h -7.625 v -2.875 q 0,-0.75 0.0625,-1.15625 0.0937,-0.5625 0.35938,-0.9375 0.26562,-0.39063 0.75,-0.60938 0.46875,-0.23437 1.03125,-0.23437 0.96875,0 1.65625,0.625 0.67187,0.60937 0.67187,2.23437 v 1.95313 h 3.09375 z m -4,-1 v -1.96875 q 0,-0.98438 -0.35937,-1.39063 -0.375,-0.42187 -1.03125,-0.42187 -0.48438,0 -0.8125,0.25 -0.34375,0.23437 -0.45313,0.64062 -0.0781,0.25 -0.0781,0.9375 v 1.95313 z m 1.23438,-5.63889 q -1.53125,0 -2.26563,-0.84375 -0.625,-0.71875 -0.625,-1.73437 0,-1.14063 0.75,-1.85938 0.75,-0.73437 2.0625,-0.73437 1.0625,0 1.6875,0.32812 0.60938,0.3125 0.95313,0.92188 0.32812,0.60937 0.32812,1.34375 0,1.15625 -0.73437,1.875 -0.75,0.70312 -2.15625,0.70312 z m 0,-0.95312 q 1.0625,0 1.59375,-0.46875 0.53125,-0.46875 0.53125,-1.15625 0,-0.70313 -0.53125,-1.15625 -0.53125,-0.46875 -1.625,-0.46875 -1.01563,0 -1.54688,0.46875 -0.53125,0.45312 -0.53125,1.15625 0,0.6875 0.53125,1.15625 0.51563,0.46875 1.57813,0.46875 z m 0,-4.97337 q -1.53125,0 -2.26563,-0.84375 -0.625,-0.71875 -0.625,-1.73438 0,-1.14062 0.75,-1.85937 0.75,-0.73438 2.0625,-0.73438 1.0625,0 1.6875,0.32813 0.60938,0.3125 0.95313,0.92187 0.32812,0.60938 0.32812,1.34375 0,1.15625 -0.73437,1.875 -0.75,0.70313 -2.15625,0.70313 z m 0,-0.95313 q 1.0625,0 1.59375,-0.46875 0.53125,-0.46875 0.53125,-1.15625 0,-0.70312 -0.53125,-1.15625 -0.53125,-0.46875 -1.625,-0.46875 -1.01563,0 -1.54688,0.46875 -0.53125,0.45313 -0.53125,1.15625 0,0.6875 0.53125,1.15625 0.51563,0.46875 1.57813,0.46875 z m 2.76562,-5.3015 h -7.625 v -0.9375 h 7.625 z"
       id="path21"
       inkscape:connector-curvature="0"
       style="fill:#000000;fill-rule:nonzero" />
    <path
       d="m 376.29904,175.23863 h 6.68628 v 0.0515 h 6.68841"
       id="path23"
       inkscape:connector-curvature="0"
       style="fill:#000000;fill-opacity:0;fill-rule:evenodd" />
    <path
       d="m 376.29904,175.23865 h 6.68628 v 0.0515 h 0.68838"
       id="path25"
       inkscape:connector-curvature="0"
       style="fill-rule:evenodd;stroke:#595959;stroke-width:1;stroke-linecap:butt;stroke-linejoin:round" />
    <path
       d="m 383.6737,176.94191 4.53812,-1.65173 -4.53812,-1.65174 z"
       id="path27"
       inkscape:connector-curvature="0"
       style="fill:#595959;fill-rule:evenodd;stroke:#595959;stroke-width:1;stroke-linecap:butt" />
    <path
       d="m 401.31964,175.23863 h 13.37469"
       id="path29"
       inkscape:connector-curvature="0"
       style="fill:#000000;fill-opacity:0;fill-rule:evenodd" />
    <path
       d="m 401.31964,175.23865 h 7.37466"
       id="path31"
       inkscape:connector-curvature="0"
       style="fill-rule:evenodd;stroke:#595959;stroke-width:1;stroke-linecap:butt;stroke-linejoin:round" />
    <path
       d="m 408.6943,176.89037 4.53809,-1.65172 -4.53809,-1.65173 z"
       id="path33"
       inkscape:connector-curvature="0"
       style="fill:#595959;fill-rule:evenodd;stroke:#595959;stroke-width:1;stroke-linecap:butt" />
    <path
       d="m 456.07678,219.26682 v -88.10791 h 11.64807 v 88.10791 z"
       id="path35"
       inkscape:connector-curvature="0"
       style="fill:#000000;fill-opacity:0;fill-rule:evenodd" />
    <path
       d="m 464.73456,202.13443 h 0.90625 v 5.03125 q -0.34375,0.0156 -0.65625,-0.10938 -0.51563,-0.1875 -1.01563,-0.60937 -0.5,-0.42188 -1.14062,-1.23438 -1.03125,-1.23437 -1.625,-1.67187 -0.59375,-0.4375 -1.125,-0.4375 -0.5625,0 -0.9375,0.40625 -0.39063,0.39062 -0.39063,1.03125 0,0.67187 0.40625,1.07812 0.40625,0.40625 1.125,0.40625 l -0.0937,0.96875 q -1.07812,-0.0937 -1.64062,-0.73437 -0.5625,-0.65625 -0.5625,-1.73438 0,-1.10937 0.60937,-1.75 0.60938,-0.64062 1.5,-0.64062 0.46875,0 0.90625,0.1875 0.4375,0.1875 0.9375,0.625 0.48438,0.4375 1.32813,1.45312 0.71875,0.82813 0.96875,1.07813 0.25,0.23437 0.5,0.39062 z m 0.90625,-0.64525 -2.875,-2.01562 -2.65625,1.85937 v -1.17187 l 1.29687,-0.84375 q 0.375,-0.23438 0.625,-0.39063 -0.34375,-0.21875 -0.60937,-0.40625 l -1.3125,-0.9375 v -1.125 l 2.60937,1.92188 2.92188,-2.0625 v 1.15625 l -1.71875,1.125 -0.46875,0.29687 2.1875,1.45313 z m -0.90625,-10.60937 h 0.90625 v 5.03125 q -0.34375,0.0156 -0.65625,-0.10938 -0.51563,-0.1875 -1.01563,-0.60937 -0.5,-0.42188 -1.14062,-1.23438 -1.03125,-1.23437 -1.625,-1.67187 -0.59375,-0.4375 -1.125,-0.4375 -0.5625,0 -0.9375,0.40625 -0.39063,0.39062 -0.39063,1.03125 0,0.67187 0.40625,1.07812 0.40625,0.40625 1.125,0.40625 l -0.0937,0.96875 q -1.07812,-0.0937 -1.64062,-0.73437 -0.5625,-0.65625 -0.5625,-1.73438 0,-1.10937 0.60937,-1.75 0.60938,-0.64062 1.5,-0.64062 0.46875,0 0.90625,0.1875 0.4375,0.1875 0.9375,0.625 0.48438,0.4375 1.32813,1.45312 0.71875,0.82813 0.96875,1.07813 0.25,0.23437 0.5,0.39062 z m 0.90625,-4.32465 h -7.625 v -1.51562 l 5.39062,-1.79688 q 0.76563,-0.25 1.14063,-0.375 -0.42188,-0.125 -1.23438,-0.40625 l -5.29687,-1.82812 v -1.34375 h 7.625 v 0.96875 h -6.39063 l 6.39063,2.21875 v 0.90625 l -6.5,2.20312 h 6.5 z m -0.6875,-12.39236 q 0.45312,0.53125 0.64062,1.01562 0.17188,0.46875 0.17188,1.01563 0,0.92187 -0.4375,1.40625 -0.45313,0.48437 -1.14063,0.48437 -0.40625,0 -0.73437,-0.17187 -0.34375,-0.1875 -0.54688,-0.48438 -0.20312,-0.3125 -0.3125,-0.6875 -0.0625,-0.26562 -0.14062,-0.82812 -0.125,-1.125 -0.3125,-1.67188 -0.20313,0 -0.25,0 -0.57813,0 -0.8125,0.26563 -0.3125,0.35937 -0.3125,1.0625 0,0.65625 0.23437,0.98437 0.23438,0.3125 0.8125,0.45313 l -0.125,0.92187 q -0.57812,-0.125 -0.9375,-0.40625 -0.375,-0.29687 -0.5625,-0.82812 -0.20312,-0.54688 -0.20312,-1.25 0,-0.71875 0.17187,-1.15625 0.17188,-0.4375 0.42188,-0.64063 0.25,-0.21875 0.64062,-0.29687 0.23438,-0.0469 0.85938,-0.0469 h 1.25 q 1.29687,0 1.65625,-0.0625 0.34375,-0.0625 0.65625,-0.23437 v 0.96875 q -0.29688,0.15625 -0.6875,0.1875 z m -2.07813,0.0781 q 0.20313,0.51563 0.34375,1.53125 0.0781,0.57813 0.1875,0.82813 0.10938,0.23437 0.3125,0.35937 0.1875,0.125 0.4375,0.125 0.375,0 0.625,-0.28125 0.25,-0.28125 0.25,-0.82812 0,-0.53125 -0.23437,-0.95313 -0.23438,-0.42187 -0.65625,-0.625 -0.3125,-0.15625 -0.9375,-0.15625 z m 2.76563,-1.77025 -2.875,-2.01562 -2.65625,1.85937 v -1.17187 l 1.29687,-0.84375 q 0.375,-0.23438 0.625,-0.39063 -0.34375,-0.21875 -0.60937,-0.40625 l -1.3125,-0.9375 v -1.125 l 2.60937,1.92188 2.92188,-2.0625 v 1.15625 l -1.71875,1.125 -0.46875,0.29687 2.1875,1.45313 z m 0,-9.03877 h -7.625 v -2.875 q 0,-0.75 0.0625,-1.15625 0.0937,-0.5625 0.35937,-0.9375 0.26563,-0.39063 0.75,-0.60938 0.46875,-0.23437 1.03125,-0.23437 0.96875,0 1.65625,0.625 0.67188,0.60937 0.67188,2.23437 v 1.95313 h 3.09375 z m -4,-1 v -1.96875 q 0,-0.98438 -0.35938,-1.39063 -0.375,-0.42187 -1.03125,-0.42187 -0.48437,0 -0.8125,0.25 -0.34375,0.23437 -0.45312,0.64062 -0.0781,0.25 -0.0781,0.9375 v 1.95313 z m 1.23437,-5.63889 q -1.53125,0 -2.26562,-0.84375 -0.625,-0.71875 -0.625,-1.73437 0,-1.14063 0.75,-1.85938 0.75,-0.73437 2.0625,-0.73437 1.0625,0 1.6875,0.32812 0.60937,0.3125 0.95312,0.92188 0.32813,0.60937 0.32813,1.34375 0,1.15625 -0.73438,1.875 -0.75,0.70312 -2.15625,0.70312 z m 0,-0.95312 q 1.0625,0 1.59375,-0.46875 0.53125,-0.46875 0.53125,-1.15625 0,-0.70313 -0.53125,-1.15625 -0.53125,-0.46875 -1.625,-0.46875 -1.01562,0 -1.54687,0.46875 -0.53125,0.45312 -0.53125,1.15625 0,0.6875 0.53125,1.15625 0.51562,0.46875 1.57812,0.46875 z m 0,-4.97337 q -1.53125,0 -2.26562,-0.84375 -0.625,-0.71875 -0.625,-1.73438 0,-1.14062 0.75,-1.85937 0.75,-0.73438 2.0625,-0.73438 1.0625,0 1.6875,0.32813 0.60937,0.3125 0.95312,0.92187 0.32813,0.60938 0.32813,1.34375 0,1.15625 -0.73438,1.875 -0.75,0.70313 -2.15625,0.70313 z m 0,-0.95313 q 1.0625,0 1.59375,-0.46875 0.53125,-0.46875 0.53125,-1.15625 0,-0.70312 -0.53125,-1.15625 -0.53125,-0.46875 -1.625,-0.46875 -1.01562,0 -1.54687,0.46875 -0.53125,0.45313 -0.53125,1.15625 0,0.6875 0.53125,1.15625 0.51562,0.46875 1.57812,0.46875 z m 2.76563,-5.3015 h -7.625 v -0.9375 h 7.625 z"
       id="path37"
       inkscape:connector-curvature="0"
       style="fill:#000000;fill-rule:nonzero" />
    <path
       d="m 442.70425,175.23863 13.37466,-0.0258"
       id="path39"
       inkscape:connector-curvature="0"
       style="fill:#000000;fill-opacity:0;fill-rule:evenodd" />
    <path
       d="m 442.70428,175.23865 7.37463,-0.0142"
       id="path41"
       inkscape:connector-curvature="0"
       style="fill-rule:evenodd;stroke:#595959;stroke-width:1;stroke-linecap:butt;stroke-linejoin:round" />
    <path
       d="m 450.0821,176.87616 4.53491,-1.66048 -4.54126,-1.64299 z"
       id="path43"
       inkscape:connector-curvature="0"
       style="fill:#595959;fill-rule:evenodd;stroke:#595959;stroke-width:1;stroke-linecap:butt" />
    <path
       d="m 483.8247,211.88368 v -73.34164 h 28.01209 v 73.34164 z"
       id="path45"
       inkscape:connector-curvature="0"
       style="fill:#eeeeee;fill-rule:evenodd" />
    <path
       d="m 483.8247,211.88368 v -73.34164 h 28.01209 v 73.34164 z"
       id="path47"
       inkscape:connector-curvature="0"
       style="fill-rule:evenodd;stroke:#595959;stroke-width:1;stroke-linecap:butt;stroke-linejoin:round" />
    <path
       d="m 501.57074,190.62663 h -7.625 V 185.486 h 0.89062 v 4.125 h 2.375 v -3.57812 h 0.89063 v 3.57812 h 3.46875 z m 0,-6.32176 h -7.625 v -0.9375 h 7.625 z m -0.6875,-5.99248 q 0.45312,0.53125 0.64062,1.01563 0.17188,0.46875 0.17188,1.01562 0,0.92188 -0.4375,1.40625 -0.45313,0.48438 -1.14063,0.48438 -0.40625,0 -0.73437,-0.17188 -0.34375,-0.1875 -0.54688,-0.48437 -0.20312,-0.3125 -0.3125,-0.6875 -0.0625,-0.26563 -0.14062,-0.82813 -0.125,-1.125 -0.3125,-1.67187 -0.20313,0 -0.25,0 -0.57813,0 -0.8125,0.26562 -0.3125,0.35938 -0.3125,1.0625 0,0.65625 0.23437,0.98438 0.23438,0.3125 0.8125,0.45312 l -0.125,0.92188 q -0.57812,-0.125 -0.9375,-0.40625 -0.375,-0.29688 -0.5625,-0.82813 -0.20312,-0.54687 -0.20312,-1.25 0,-0.71875 0.17187,-1.15625 0.17188,-0.4375 0.42188,-0.64062 0.25,-0.21875 0.64062,-0.29688 0.23438,-0.0469 0.85938,-0.0469 h 1.25 q 1.29687,0 1.65625,-0.0625 0.34375,-0.0625 0.65625,-0.23438 v 0.96875 q -0.29688,0.15625 -0.6875,0.1875 z m -2.07813,0.0781 q 0.20313,0.51562 0.34375,1.53125 0.0781,0.57812 0.1875,0.82812 0.10938,0.23438 0.3125,0.35938 0.1875,0.125 0.4375,0.125 0.375,0 0.625,-0.28125 0.25,-0.28125 0.25,-0.82813 0,-0.53125 -0.23437,-0.95312 -0.23438,-0.42188 -0.65625,-0.625 -0.3125,-0.15625 -0.9375,-0.15625 z m 1.92188,-4.44213 0.82812,-0.125 q 0.0937,0.39063 0.0937,0.70313 0,0.5 -0.15625,0.78125 -0.17187,0.28125 -0.4375,0.40625 -0.26562,0.10937 -1.10937,0.10937 h -3.17188 v 0.6875 h -0.73437 v -0.6875 h -1.35938 l -0.5625,-0.9375 h 1.92188 v -0.9375 h 0.73437 v 0.9375 h 3.23438 q 0.39062,0 0.51562,-0.0469 0.10938,-0.0469 0.1875,-0.15625 0.0625,-0.10938 0.0625,-0.32813 0,-0.15625 -0.0469,-0.40625 z m 0,-2.96065 0.82812,-0.125 q 0.0937,0.39063 0.0937,0.70313 0,0.5 -0.15625,0.78125 -0.17187,0.28125 -0.4375,0.40625 -0.26562,0.10937 -1.10937,0.10937 h -3.17188 v 0.6875 h -0.73437 v -0.6875 h -1.35938 l -0.5625,-0.9375 h 1.92188 v -0.9375 h 0.73437 v 0.9375 h 3.23438 q 0.39062,0 0.51562,-0.0469 0.10938,-0.0469 0.1875,-0.15625 0.0625,-0.10938 0.0625,-0.32813 0,-0.15625 -0.0469,-0.40625 z m -0.9375,-4.69502 0.125,-0.96875 q 0.84375,0.23438 1.3125,0.85938 0.46875,0.60937 0.46875,1.57812 0,1.20313 -0.75,1.92188 -0.75,0.70312 -2.09375,0.70312 -1.39063,0 -2.15625,-0.71875 -0.78125,-0.71875 -0.78125,-1.85937 0,-1.10938 0.76562,-1.8125 0.75,-0.70313 2.125,-0.70313 0.0781,0 0.23438,0 v 4.125 q 0.92187,-0.0469 1.40625,-0.51562 0.48437,-0.46875 0.48437,-1.15625 0,-0.51563 -0.26562,-0.875 -0.28125,-0.35938 -0.875,-0.57813 z m -1.51563,3.07813 v -3.09375 q -0.6875,0.0625 -1.04687,0.35937 -0.53125,0.45313 -0.53125,1.15625 0,0.64063 0.4375,1.09375 0.42187,0.4375 1.14062,0.48438 z m 3.29688,-5.22338 h -5.53125 v -0.84375 h 0.79687 q -0.92187,-0.60937 -0.92187,-1.75 0,-0.5 0.1875,-0.92187 0.17187,-0.42188 0.46875,-0.625 0.29687,-0.21875 0.6875,-0.29688 0.26562,-0.0469 0.92187,-0.0469 h 3.39063 v 0.9375 h -3.35938 q -0.57812,0 -0.85937,0.10937 -0.28125,0.10938 -0.45313,0.39063 -0.17187,0.26562 -0.17187,0.64062 0,0.59375 0.39062,1.03125 0.375,0.4375 1.4375,0.4375 h 3.01563 z"
       id="path49"
       inkscape:connector-curvature="0"
       style="fill:#000000;fill-rule:nonzero" />
    <path
       d="m 467.72485,175.21286 h 16.10629"
       id="path51"
       inkscape:connector-curvature="0"
       style="fill:#000000;fill-opacity:0;fill-rule:evenodd" />
    <path
       d="m 467.72485,175.21286 h 10.10629"
       id="path53"
       inkscape:connector-curvature="0"
       style="fill-rule:evenodd;stroke:#595959;stroke-width:1;stroke-linecap:butt;stroke-linejoin:round" />
    <path
       d="m 477.83115,176.8646 4.53812,-1.65173 -4.53812,-1.65174 z"
       id="path55"
       inkscape:connector-curvature="0"
       style="fill:#595959;fill-rule:evenodd;stroke:#595959;stroke-width:1;stroke-linecap:butt" />
    <path
       d="M 527.93665,161.6578 V 88.31615 h 28.01208 v 73.34165 z"
       id="path57"
       inkscape:connector-curvature="0"
       style="fill:#eeeeee;fill-rule:evenodd" />
    <path
       d="M 527.93665,161.6578 V 88.31615 h 28.01208 v 73.34165 z"
       id="path59"
       inkscape:connector-curvature="0"
       style="fill-rule:evenodd;stroke:#595959;stroke-width:1;stroke-linecap:butt;stroke-linejoin:round" />
    <path
       d="m 543.22955,139.60503 -0.0781,-0.95313 q 0.5625,-0.0625 0.9375,-0.3125 0.35937,-0.25 0.59375,-0.76562 0.21875,-0.51563 0.21875,-1.17188 0,-0.57812 -0.17188,-1.01562 -0.17187,-0.4375 -0.46875,-0.65625 -0.29687,-0.21875 -0.65625,-0.21875 -0.35937,0 -0.625,0.21875 -0.26562,0.20312 -0.4375,0.67187 -0.125,0.3125 -0.375,1.35938 -0.25,1.04687 -0.48437,1.46875 -0.28125,0.54687 -0.70313,0.82812 -0.42187,0.26563 -0.95312,0.26563 -0.57813,0 -1.07813,-0.32813 -0.5,-0.32812 -0.76562,-0.95312 -0.26563,-0.64063 -0.26563,-1.40625 0,-0.84375 0.28125,-1.48438 0.26563,-0.65625 0.79688,-1 0.53125,-0.35937 1.20312,-0.39062 l 0.0781,0.96875 q -0.71875,0.0781 -1.09375,0.53125 -0.375,0.45312 -0.375,1.32812 0,0.92188 0.34375,1.34375 0.32812,0.40625 0.8125,0.40625 0.40625,0 0.67187,-0.29687 0.26563,-0.28125 0.54688,-1.51563 0.28125,-1.23437 0.48437,-1.6875 0.3125,-0.67187 0.78125,-0.98437 0.46875,-0.3125 1.07813,-0.3125 0.60937,0 1.15625,0.34375 0.53125,0.34375 0.82812,1 0.29688,0.65625 0.29688,1.46875 0,1.04687 -0.29688,1.75 -0.29687,0.6875 -0.90625,1.09375 -0.60937,0.39062 -1.375,0.40625 z m -4.09375,-7.32639 h -1.07812 v -0.9375 h 1.07812 z m 6.54688,0 h -5.53125 v -0.9375 h 5.53125 z m 0.45312,-2.1956 0.14063,-0.90625 q 0.42187,-0.0625 0.60937,-0.32812 0.26563,-0.34375 0.26563,-0.9375 0,-0.65625 -0.26563,-1 -0.25,-0.35938 -0.71875,-0.48438 -0.29687,-0.0781 -1.20312,-0.0781 0.71875,0.625 0.71875,1.53125 0,1.14062 -0.8125,1.76562 -0.82813,0.625 -1.98438,0.625 -0.78125,0 -1.45312,-0.28125 -0.67188,-0.29687 -1.03125,-0.82812 -0.375,-0.54688 -0.375,-1.28125 0,-0.98438 0.79687,-1.60938 h -0.67187 v -0.875 h 4.78125 q 1.29687,0 1.82812,0.26563 0.54688,0.26562 0.85938,0.84375 0.3125,0.5625 0.3125,1.39062 0,0.98438 -0.45313,1.59375 -0.4375,0.60938 -1.34375,0.59375 z m -3.3125,-0.78125 q 1.07813,0 1.57813,-0.42187 0.5,-0.4375 0.5,-1.07813 0,-0.65625 -0.48438,-1.09375 -0.5,-0.4375 -1.5625,-0.4375 -1.01562,0 -1.53125,0.45313 -0.51562,0.45312 -0.51562,1.09375 0,0.60937 0.51562,1.04687 0.5,0.4375 1.5,0.4375 z m 2.85938,-5.31712 h -5.53125 v -0.84375 h 0.78125 q -0.40625,-0.25 -0.65625,-0.6875 -0.25,-0.4375 -0.25,-0.98438 0,-0.60937 0.26562,-1 0.25,-0.39062 0.70313,-0.5625 -0.96875,-0.65625 -0.96875,-1.70312 0,-0.82813 0.46875,-1.26563 0.45312,-0.4375 1.39062,-0.4375 h 3.79688 v 0.92188 h -3.48438 q -0.5625,0 -0.79687,0.0937 -0.25,0.0937 -0.40625,0.34375 -0.15625,0.23437 -0.15625,0.54687 0,0.59375 0.39062,0.98438 0.39063,0.375 1.25,0.375 h 3.20313 v 0.9375 h -3.59375 q -0.625,0 -0.9375,0.23437 -0.3125,0.21875 -0.3125,0.75 0,0.39063 0.21875,0.73438 0.20312,0.32812 0.60937,0.48437 0.39063,0.14063 1.15625,0.14063 h 2.85938 z m -0.6875,-12.48612 q 0.45312,0.53125 0.64062,1.01563 0.17188,0.46875 0.17188,1.01562 0,0.92188 -0.4375,1.40625 -0.45313,0.48438 -1.14063,0.48438 -0.40625,0 -0.73437,-0.17188 -0.34375,-0.1875 -0.54688,-0.48437 -0.20312,-0.3125 -0.3125,-0.6875 -0.0625,-0.26563 -0.14062,-0.82813 -0.125,-1.125 -0.3125,-1.67187 -0.20313,0 -0.25,0 -0.57813,0 -0.8125,0.26562 -0.3125,0.35938 -0.3125,1.0625 0,0.65625 0.23437,0.98438 0.23438,0.3125 0.8125,0.45312 l -0.125,0.92188 q -0.57812,-0.125 -0.9375,-0.40625 -0.375,-0.29688 -0.5625,-0.82813 -0.20312,-0.54687 -0.20312,-1.25 0,-0.71875 0.17187,-1.15625 0.17188,-0.4375 0.42188,-0.64062 0.25,-0.21875 0.64062,-0.29688 0.23438,-0.0469 0.85938,-0.0469 h 1.25 q 1.29687,0 1.65625,-0.0625 0.34375,-0.0625 0.65625,-0.23438 v 0.96875 q -0.29688,0.15625 -0.6875,0.1875 z m -2.07813,0.0781 q 0.20313,0.51562 0.34375,1.53125 0.0781,0.57812 0.1875,0.82812 0.10938,0.23438 0.3125,0.35938 0.1875,0.125 0.4375,0.125 0.375,0 0.625,-0.28125 0.25,-0.28125 0.25,-0.82813 0,-0.53125 -0.23437,-0.95312 -0.23438,-0.42188 -0.65625,-0.625 -0.3125,-0.15625 -0.9375,-0.15625 z"
       id="path61"
       inkscape:connector-curvature="0"
       style="fill:#000000;fill-rule:nonzero" />
    <path
       d="m 527.93665,265.21057 v -73.34164 h 28.01208 v 73.34164 z"
       id="path63"
       inkscape:connector-curvature="0"
       style="fill:#eeeeee;fill-rule:evenodd" />
    <path
       d="m 527.93665,265.21057 v -73.34164 h 28.01208 v 73.34164 z"
       id="path65"
       inkscape:connector-curvature="0"
       style="fill-rule:evenodd;stroke:#595959;stroke-width:1;stroke-linecap:butt;stroke-linejoin:round" />
    <path
       d="m 545.6827,235.14449 h -7.625 v -1.51563 l 5.39062,-1.79687 q 0.76563,-0.25 1.14063,-0.375 -0.42188,-0.125 -1.23438,-0.40625 l -5.29687,-1.82813 v -1.34375 h 7.625 v 0.96875 h -6.39063 l 6.39063,2.21875 v 0.90625 l -6.5,2.20313 h 6.5 z m 0,-12.40799 h -0.8125 q 0.9375,0.65625 0.9375,1.75 0,0.5 -0.1875,0.92188 -0.1875,0.42187 -0.46875,0.625 -0.28125,0.20312 -0.70313,0.29687 -0.26562,0.0469 -0.875,0.0469 h -3.42187 v -0.9375 h 3.0625 q 0.73437,0 1,-0.0469 0.35937,-0.0937 0.57812,-0.375 0.20313,-0.29687 0.20313,-0.70312 0,-0.42188 -0.20313,-0.79688 -0.21875,-0.375 -0.59375,-0.51562 -0.375,-0.15625 -1.07812,-0.15625 h -2.96875 v -0.9375 h 5.53125 z"
       id="path67"
       inkscape:connector-curvature="0"
       style="fill:#000000;fill-rule:nonzero" />
    <path
       d="m 511.8368,175.21286 16.10626,53.3183"
       id="path69"
       inkscape:connector-curvature="0"
       style="fill:#000000;fill-opacity:0;fill-rule:evenodd" />
    <path
       d="m 511.8368,175.21286 14.37128,47.57463"
       id="path71"
       inkscape:connector-curvature="0"
       style="fill-rule:evenodd;stroke:#595959;stroke-width:1;stroke-linecap:butt;stroke-linejoin:round" />
    <path
       d="m 524.6269,223.26512 2.89343,3.86658 0.26886,-4.82186 z"
       id="path73"
       inkscape:connector-curvature="0"
       style="fill:#595959;fill-rule:evenodd;stroke:#595959;stroke-width:1;stroke-linecap:butt" />
    <path
       d="m 511.8368,175.21286 16.10626,-50.22588"
       id="path75"
       inkscape:connector-curvature="0"
       style="fill:#000000;fill-opacity:0;fill-rule:evenodd" />
    <path
       d="m 511.8368,175.21286 14.27417,-44.51247"
       id="path77"
       inkscape:connector-curvature="0"
       style="fill-rule:evenodd;stroke:#595959;stroke-width:1;stroke-linecap:butt;stroke-linejoin:round" />
    <path
       d="m 527.6838,131.20477 -0.18713,-4.82571 -2.95856,3.81697 z"
       id="path79"
       inkscape:connector-curvature="0"
       style="fill:#595959;fill-rule:evenodd;stroke:#595959;stroke-width:1;stroke-linecap:butt" />
    <path
       d="m 583.7009,211.90945 v -73.34164 h 28.01208 v 73.34164 z"
       id="path81"
       inkscape:connector-curvature="0"
       style="fill:#eeeeee;fill-rule:evenodd" />
    <path
       d="m 583.7009,211.90945 v -73.34164 h 28.01208 v 73.34164 z"
       id="path83"
       inkscape:connector-curvature="0"
       style="fill-rule:evenodd;stroke:#595959;stroke-width:1;stroke-linecap:butt;stroke-linejoin:round" />
    <path
       d="m 601.44696,178.2745 h -0.9375 l -4.89063,-3.90625 q -0.51562,-0.40625 -0.90625,-0.78125 v 4.25 h -0.89062 v -5.46875 h 0.89062 l 5.29688,4.28125 0.53125,0.46875 v -4.875 h 0.90625 z"
       id="path85"
       inkscape:connector-curvature="0"
       style="fill:#000000;fill-rule:nonzero" />
    <path
       d="m 555.9487,228.53975 27.75433,-53.29253"
       id="path87"
       inkscape:connector-curvature="0"
       style="fill:#000000;fill-opacity:0;fill-rule:evenodd" />
    <path
       d="m 555.9487,228.53973 24.98291,-47.97096"
       id="path89"
       inkscape:connector-curvature="0"
       style="fill-rule:evenodd;stroke:#595959;stroke-width:1;stroke-linecap:butt;stroke-linejoin:round" />
    <path
       d="m 582.3966,181.33173 0.63123,-4.78792 -3.56116,3.26204 z"
       id="path91"
       inkscape:connector-curvature="0"
       style="fill:#595959;fill-rule:evenodd;stroke:#595959;stroke-width:1;stroke-linecap:butt" />
    <path
       d="m 555.9487,124.98698 27.75433,50.22588"
       id="path93"
       inkscape:connector-curvature="0"
       style="fill:#000000;fill-opacity:0;fill-rule:evenodd" />
    <path
       d="m 555.9487,124.98698 24.85242,44.97436"
       id="path95"
       inkscape:connector-curvature="0"
       style="fill-rule:evenodd;stroke:#595959;stroke-width:1;stroke-linecap:butt;stroke-linejoin:round" />
    <path
       d="m 579.35547,170.7602 3.64056,3.17313 -0.7492,-4.77088 z"
       id="path97"
       inkscape:connector-curvature="0"
       style="fill:#595959;fill-rule:evenodd;stroke:#595959;stroke-width:1;stroke-linecap:butt" />
    <path
       d="m 362.8493,421.0658 v -73.35434 h 28 v 73.35434 z"
       id="path99"
       inkscape:connector-curvature="0"
       style="fill:#eeeeee;fill-rule:evenodd" />
    <path
       d="m 362.8493,421.0658 v -73.35434 h 28 v 73.35434 z"
       id="path101"
       inkscape:connector-curvature="0"
       style="fill-rule:evenodd;stroke:#595959;stroke-width:1;stroke-linecap:butt;stroke-linejoin:round" />
    <path
       d="m 380.58932,398.96213 h -7.625 v -2.625 q 0,-0.89063 0.10937,-1.35938 0.14063,-0.65625 0.54688,-1.10937 0.5,-0.60938 1.29687,-0.90625 0.79688,-0.29688 1.8125,-0.29688 0.875,0 1.54688,0.20313 0.67187,0.20312 1.10937,0.51562 0.4375,0.3125 0.6875,0.70313 0.25,0.375 0.39063,0.90625 0.125,0.53125 0.125,1.21875 z m -0.90625,-1 v -1.625 q 0,-0.76563 -0.14063,-1.1875 -0.14062,-0.4375 -0.39062,-0.6875 -0.35938,-0.35938 -0.95313,-0.5625 -0.60937,-0.20313 -1.48437,-0.20313 -1.1875,0 -1.82813,0.40625 -0.65625,0.39063 -0.875,0.95313 -0.15625,0.40625 -0.15625,1.29687 v 1.60938 z m -0.875,-10.35187 0.125,-0.96875 q 0.84375,0.23438 1.3125,0.85938 0.46875,0.60937 0.46875,1.57812 0,1.20313 -0.75,1.92188 -0.75,0.70312 -2.09375,0.70312 -1.39063,0 -2.15625,-0.71875 -0.78125,-0.71875 -0.78125,-1.85937 0,-1.10938 0.76562,-1.8125 0.75,-0.70313 2.125,-0.70313 0.0781,0 0.23438,0 v 4.125 q 0.92187,-0.0469 1.40625,-0.51562 0.48437,-0.46875 0.48437,-1.15625 0,-0.51563 -0.26562,-0.875 -0.28125,-0.35938 -0.875,-0.57813 z m -1.51563,3.07813 v -3.09375 q -0.6875,0.0625 -1.04687,0.35937 -0.53125,0.45313 -0.53125,1.15625 0,0.64063 0.4375,1.09375 0.42187,0.4375 1.14062,0.48438 z m 3.29688,-5.22336 h -5.53125 v -0.84375 h 0.79687 q -0.92187,-0.60938 -0.92187,-1.75 0,-0.5 0.1875,-0.92188 0.17187,-0.42187 0.46875,-0.625 0.29687,-0.21875 0.6875,-0.29687 0.26562,-0.0469 0.92187,-0.0469 h 3.39063 v 0.9375 h -3.35938 q -0.57812,0 -0.85937,0.10938 -0.28125,0.10937 -0.45313,0.39062 -0.17187,0.26563 -0.17187,0.64063 0,0.59375 0.39062,1.03125 0.375,0.4375 1.4375,0.4375 h 3.01563 z m -1.65625,-5.55151 -0.14063,-0.92188 q 0.5625,-0.0781 0.85938,-0.4375 0.29687,-0.35937 0.29687,-1 0,-0.64062 -0.26562,-0.95312 -0.26563,-0.3125 -0.625,-0.3125 -0.3125,0 -0.5,0.28125 -0.125,0.1875 -0.3125,0.95312 -0.26563,1.03125 -0.45313,1.4375 -0.1875,0.39063 -0.51562,0.59375 -0.34375,0.20313 -0.75,0.20313 -0.35938,0 -0.67188,-0.17188 -0.32812,-0.17187 -0.53125,-0.45312 -0.15625,-0.21875 -0.26562,-0.59375 -0.125,-0.39063 -0.125,-0.8125 0,-0.65625 0.1875,-1.14063 0.1875,-0.5 0.51562,-0.73437 0.3125,-0.23438 0.85938,-0.3125 l 0.125,0.90625 q -0.4375,0.0625 -0.67188,0.375 -0.23437,0.29687 -0.23437,0.82812 0,0.65625 0.21875,0.9375 0.20312,0.26563 0.48437,0.26563 0.1875,0 0.32813,-0.10938 0.15625,-0.125 0.25,-0.35937 0.0625,-0.14063 0.25,-0.82813 0.26562,-1 0.4375,-1.39062 0.15625,-0.39063 0.48437,-0.60938 0.3125,-0.23437 0.79688,-0.23437 0.46875,0 0.89062,0.28125 0.40625,0.26562 0.64063,0.78125 0.21875,0.51562 0.21875,1.17187 0,1.07813 -0.4375,1.64063 -0.45313,0.5625 -1.34375,0.71875 z m -0.125,-9.48438 0.125,-0.96875 q 0.84375,0.23438 1.3125,0.85938 0.46875,0.60937 0.46875,1.57812 0,1.20313 -0.75,1.92188 -0.75,0.70312 -2.09375,0.70312 -1.39063,0 -2.15625,-0.71875 -0.78125,-0.71875 -0.78125,-1.85937 0,-1.10938 0.76562,-1.8125 0.75,-0.70313 2.125,-0.70313 0.0781,0 0.23438,0 v 4.125 q 0.92187,-0.0469 1.40625,-0.51562 0.48437,-0.46875 0.48437,-1.15625 0,-0.51563 -0.26562,-0.875 -0.28125,-0.35938 -0.875,-0.57813 z m -1.51563,3.07813 v -3.09375 q -0.6875,0.0625 -1.04687,0.35937 -0.53125,0.45313 -0.53125,1.15625 0,0.64063 0.4375,1.09375 0.42187,0.4375 1.14062,0.48438 z"
       id="path103"
       inkscape:connector-curvature="0"
       style="fill:#000000;fill-rule:nonzero" />
    <path
       d="m 431.61615,420.56183 v -73.35434 h 28 v 73.35434 z"
       id="path105"
       inkscape:connector-curvature="0"
       style="fill:#eeeeee;fill-rule:evenodd" />
    <path
       d="m 431.61615,420.56183 v -73.35434 h 28 v 73.35434 z"
       id="path107"
       inkscape:connector-curvature="0"
       style="fill-rule:evenodd;stroke:#595959;stroke-width:1;stroke-linecap:butt;stroke-linejoin:round" />
    <path
       d="m 440.84055,400.90924 -0.125,-0.9375 q 0.79687,-0.15625 1.15625,-0.54688 0.34375,-0.39062 0.34375,-0.9375 0,-0.65625 -0.45313,-1.10937 -0.46875,-0.46875 -1.14062,-0.46875 -0.64063,0 -1.0625,0.42187 -0.42188,0.42188 -0.42188,1.07813 0,0.26562 0.10938,0.65625 l -0.82813,-0.10938 q 0.0156,-0.0937 0.0156,-0.14062 0,-0.59375 -0.3125,-1.07813 -0.3125,-0.48437 -0.96875,-0.48437 -0.51563,0 -0.84375,0.35937 -0.34375,0.34375 -0.34375,0.89063 0,0.54687 0.34375,0.92187 0.34375,0.35938 1.03125,0.45313 l -0.17188,0.9375 q -0.9375,-0.17188 -1.45312,-0.78125 -0.51563,-0.60938 -0.51563,-1.5 0,-0.625 0.26563,-1.15625 0.26562,-0.53125 0.73437,-0.79688 0.45313,-0.28125 0.98438,-0.28125 0.48437,0 0.89062,0.26563 0.40625,0.26562 0.65625,0.78125 0.15625,-0.67188 0.65625,-1.04688 0.48438,-0.375 1.21875,-0.375 1,0 1.70313,0.73438 0.6875,0.71875 0.6875,1.82812 0,1 -0.59375,1.67188 -0.60938,0.65625 -1.5625,0.75 z m 2.01562,-5.55151 -2.875,-2.01563 -2.65625,1.85938 v -1.17188 l 1.29688,-0.84375 q 0.375,-0.23437 0.625,-0.39062 -0.34375,-0.21875 -0.60938,-0.40625 l -1.3125,-0.9375 v -1.125 l 2.60938,1.92187 2.92187,-2.0625 v 1.15625 l -1.71875,1.125 -0.46875,0.29688 2.1875,1.45312 z m -2.01562,-5.70313 -0.125,-0.9375 q 0.79687,-0.15625 1.15625,-0.54687 0.34375,-0.39063 0.34375,-0.9375 0,-0.65625 -0.45313,-1.10938 -0.46875,-0.46875 -1.14062,-0.46875 -0.64063,0 -1.0625,0.42188 -0.42188,0.42187 -0.42188,1.07812 0,0.26563 0.10938,0.65625 l -0.82813,-0.10937 q 0.0156,-0.0937 0.0156,-0.14063 0,-0.59375 -0.3125,-1.07812 -0.3125,-0.48438 -0.96875,-0.48438 -0.51563,0 -0.84375,0.35938 -0.34375,0.34375 -0.34375,0.89062 0,0.54688 0.34375,0.92188 0.34375,0.35937 1.03125,0.45312 l -0.17188,0.9375 q -0.9375,-0.17187 -1.45312,-0.78125 -0.51563,-0.60937 -0.51563,-1.5 0,-0.625 0.26563,-1.15625 0.26562,-0.53125 0.73437,-0.79687 0.45313,-0.28125 0.98438,-0.28125 0.48437,0 0.89062,0.26562 0.40625,0.26563 0.65625,0.78125 0.15625,-0.67187 0.65625,-1.04687 0.48438,-0.375 1.21875,-0.375 1,0 1.70313,0.73437 0.6875,0.71875 0.6875,1.82813 0,1 -0.59375,1.67187 -0.60938,0.65625 -1.5625,0.75 z m 2.01562,-6.42648 h -1.0625 v -1.0625 h 1.0625 q 0.59375,0 0.95313,0.21875 0.35937,0.20312 0.5625,0.65625 l -0.40625,0.25 q -0.125,-0.29688 -0.39063,-0.4375 -0.25,-0.14063 -0.71875,-0.15625 z m -5.76562,-10.26505 0.0781,0.92188 q -0.54687,0.125 -0.79687,0.35937 -0.40625,0.375 -0.40625,0.9375 0,0.4375 0.25,0.78125 0.32812,0.4375 0.95312,0.70313 0.60938,0.25 1.75,0.26562 -0.51562,-0.34375 -0.76562,-0.82812 -0.25,-0.5 -0.25,-1.03125 0,-0.9375 0.70312,-1.59375 0.6875,-0.65625 1.76563,-0.65625 0.71875,0 1.34375,0.3125 0.60937,0.3125 0.9375,0.85937 0.32812,0.53125 0.32812,1.21875 0,1.17188 -0.85937,1.90625 -0.85938,0.73438 -2.82813,0.73438 -2.21875,0 -3.21875,-0.8125 -0.875,-0.71875 -0.875,-1.92188 0,-0.89062 0.5,-1.46875 0.5,-0.57812 1.39063,-0.6875 z m 3.29687,3.8125 q 0.48438,0 0.92188,-0.20312 0.4375,-0.20313 0.67187,-0.5625 0.23438,-0.375 0.23438,-0.78125 0,-0.59375 -0.46875,-1.01563 -0.48438,-0.4375 -1.3125,-0.4375 -0.78125,0 -1.23438,0.42188 -0.46875,0.42187 -0.46875,1.0625 0,0.64062 0.46875,1.07812 0.45313,0.4375 1.1875,0.4375 z m 2.46875,-7.87964 h -1.82812 v 3.29688 h -0.85938 l -4.9375,-3.46875 v -0.76563 h 4.9375 v -1.03125 h 0.85938 v 1.03125 h 1.82812 z m -2.6875,0 h -3.4375 l 3.4375,2.375 z"
       id="path109"
       inkscape:connector-curvature="0"
       style="fill:#000000;fill-rule:nonzero" />
    <path
       d="m 455.85617,397.5137 h -7.625 v -5.14063 h 0.89063 v 4.125 h 2.375 v -3.57812 h 0.89062 v 3.57812 h 3.46875 z m -6.54687,-6.33737 h -1.07813 v -0.9375 h 1.07813 z m 6.54687,0 h -5.53125 v -0.9375 h 5.53125 z m 0,-2.35187 h -7.625 v -0.9375 h 7.625 z m -0.84375,-4.42996 0.82813,-0.125 q 0.0937,0.39062 0.0937,0.70312 0,0.5 -0.15625,0.78125 -0.17188,0.28125 -0.4375,0.40625 -0.26563,0.10938 -1.10938,0.10938 h -3.17187 v 0.6875 h -0.73438 v -0.6875 h -1.35937 l -0.5625,-0.9375 h 1.92187 v -0.9375 h 0.73438 v 0.9375 h 3.23437 q 0.39063,0 0.51563,-0.0469 0.10937,-0.0469 0.1875,-0.15625 0.0625,-0.10937 0.0625,-0.32812 0,-0.15625 -0.0469,-0.40625 z m -0.9375,-4.69504 0.125,-0.96875 q 0.84375,0.23438 1.3125,0.85938 0.46875,0.60937 0.46875,1.57812 0,1.20313 -0.75,1.92188 -0.75,0.70312 -2.09375,0.70312 -1.39062,0 -2.15625,-0.71875 -0.78125,-0.71875 -0.78125,-1.85937 0,-1.10938 0.76563,-1.8125 0.75,-0.70313 2.125,-0.70313 0.0781,0 0.23437,0 v 4.125 q 0.92188,-0.0469 1.40625,-0.51562 0.48438,-0.46875 0.48438,-1.15625 0,-0.51563 -0.26563,-0.875 -0.28125,-0.35938 -0.875,-0.57813 z m -1.51562,3.07813 v -3.09375 q -0.6875,0.0625 -1.04688,0.35937 -0.53125,0.45313 -0.53125,1.15625 0,0.64063 0.4375,1.09375 0.42188,0.4375 1.14063,0.48438 z m 3.29687,-5.20774 h -5.53125 v -0.84375 h 0.84375 q -0.59375,-0.32812 -0.78125,-0.59375 -0.1875,-0.28125 -0.1875,-0.60937 0,-0.46875 0.3125,-0.95313 l 0.85938,0.3125 q -0.20313,0.34375 -0.20313,0.6875 0,0.3125 0.1875,0.5625 0.1875,0.23438 0.51563,0.34375 0.5,0.15625 1.09375,0.15625 h 2.89062 z m -1.65625,-3.18924 -0.14062,-0.92187 q 0.5625,-0.0781 0.85937,-0.4375 0.29688,-0.35938 0.29688,-1 0,-0.64063 -0.26563,-0.95313 -0.26562,-0.3125 -0.625,-0.3125 -0.3125,0 -0.5,0.28125 -0.125,0.1875 -0.3125,0.95313 -0.26562,1.03125 -0.45312,1.4375 -0.1875,0.39062 -0.51563,0.59375 -0.34375,0.20312 -0.75,0.20312 -0.35937,0 -0.67187,-0.17187 -0.32813,-0.17188 -0.53125,-0.45313 -0.15625,-0.21875 -0.26563,-0.59375 -0.125,-0.39062 -0.125,-0.8125 0,-0.65625 0.1875,-1.14062 0.1875,-0.5 0.51563,-0.73438 0.3125,-0.23437 0.85937,-0.3125 l 0.125,0.90625 q -0.4375,0.0625 -0.67187,0.375 -0.23438,0.29688 -0.23438,0.82813 0,0.65625 0.21875,0.9375 0.20313,0.26562 0.48438,0.26562 0.1875,0 0.32812,-0.10937 0.15625,-0.125 0.25,-0.35938 0.0625,-0.14062 0.25,-0.82812 0.26563,-1 0.4375,-1.39063 0.15625,-0.39062 0.48438,-0.60937 0.3125,-0.23438 0.79687,-0.23438 0.46875,0 0.89063,0.28125 0.40625,0.26563 0.64062,0.78125 0.21875,0.51563 0.21875,1.17188 0,1.07812 -0.4375,1.64062 -0.45312,0.5625 -1.34375,0.71875 z"
       id="path111"
       inkscape:connector-curvature="0"
       style="fill:#000000;fill-rule:nonzero" />
    <path
       d="m 405.40598,428.43497 v -88.09451 h 11.65353 v 88.09451 z"
       id="path113"
       inkscape:connector-curvature="0"
       style="fill:#000000;fill-opacity:0;fill-rule:evenodd" />
    <path
       d="m 414.97275,404.87207 h -7.625 v -3.375 q 0,-1.01563 0.20313,-1.54688 0.20312,-0.53125 0.73437,-0.84375 0.51563,-0.32812 1.14063,-0.32812 0.8125,0 1.375,0.53125 0.54687,0.51562 0.70312,1.625 0.1875,-0.40625 0.375,-0.60938 0.40625,-0.45312 1.01563,-0.84375 l 2.07812,-1.32812 v 1.26562 l -1.59375,1.01563 q -0.6875,0.4375 -1.04687,0.73437 -0.35938,0.28125 -0.5,0.51563 -0.15625,0.21875 -0.20313,0.45312 -0.0469,0.17188 -0.0469,0.5625 v 1.17188 h 3.39062 z m -4.26562,-1 v -2.17188 q 0,-0.6875 -0.14063,-1.07812 -0.14062,-0.39063 -0.45312,-0.59375 -0.3125,-0.20313 -0.6875,-0.20313 -0.54688,0 -0.89063,0.39063 -0.34375,0.39062 -0.34375,1.23437 v 2.42188 z m 2.48437,-10.33624 0.125,-0.96875 q 0.84375,0.23437 1.3125,0.85937 0.46875,0.60938 0.46875,1.57813 0,1.20312 -0.75,1.92187 -0.75,0.70313 -2.09375,0.70313 -1.39062,0 -2.15625,-0.71875 -0.78125,-0.71875 -0.78125,-1.85938 0,-1.10937 0.76563,-1.8125 0.75,-0.70312 2.125,-0.70312 0.0781,0 0.23437,0 v 4.125 q 0.92188,-0.0469 1.40625,-0.51563 0.48438,-0.46875 0.48438,-1.15625 0,-0.51562 -0.26563,-0.875 -0.28125,-0.35937 -0.875,-0.57812 z m -1.51562,3.07812 v -3.09375 q -0.6875,0.0625 -1.04688,0.35938 -0.53125,0.45312 -0.53125,1.15625 0,0.64062 0.4375,1.09375 0.42188,0.4375 1.14063,0.48437 z m 1.64062,-4.84836 -0.14062,-0.92187 q 0.5625,-0.0781 0.85937,-0.4375 0.29688,-0.35938 0.29688,-1 0,-0.64063 -0.26563,-0.95313 -0.26562,-0.3125 -0.625,-0.3125 -0.3125,0 -0.5,0.28125 -0.125,0.1875 -0.3125,0.95313 -0.26562,1.03125 -0.45312,1.4375 -0.1875,0.39062 -0.51563,0.59375 -0.34375,0.20312 -0.75,0.20312 -0.35937,0 -0.67187,-0.17187 -0.32813,-0.17188 -0.53125,-0.45313 -0.15625,-0.21875 -0.26563,-0.59375 -0.125,-0.39062 -0.125,-0.8125 0,-0.65625 0.1875,-1.14062 0.1875,-0.5 0.51563,-0.73438 0.3125,-0.23437 0.85937,-0.3125 l 0.125,0.90625 q -0.4375,0.0625 -0.67187,0.375 -0.23438,0.29688 -0.23438,0.82813 0,0.65625 0.21875,0.9375 0.20313,0.26562 0.48438,0.26562 0.1875,0 0.32812,-0.10937 0.15625,-0.125 0.25,-0.35938 0.0625,-0.14062 0.25,-0.82812 0.26563,-1 0.4375,-1.39063 0.15625,-0.39062 0.48438,-0.60937 0.3125,-0.23438 0.79687,-0.23438 0.46875,0 0.89063,0.28125 0.40625,0.26563 0.64062,0.78125 0.21875,0.51563 0.21875,1.17188 0,1.07812 -0.4375,1.64062 -0.45312,0.5625 -1.34375,0.71875 z m 1.65625,-5.70312 h -7.625 v -0.9375 h 2.73438 q -0.76563,-0.65625 -0.76563,-1.65625 0,-0.60938 0.25,-1.0625 0.23438,-0.45313 0.67188,-0.64063 0.42187,-0.20312 1.23437,-0.20312 h 3.5 v 0.9375 h -3.5 q -0.70312,0 -1.01562,0.3125 -0.32813,0.29687 -0.32813,0.85937 0,0.40625 0.21875,0.78125 0.21875,0.35938 0.59375,0.51563 0.35938,0.15625 1.01563,0.15625 h 3.01562 z m -0.6875,-9.53589 q 0.45313,0.53125 0.64063,1.01562 0.17187,0.46875 0.17187,1.01563 0,0.92187 -0.4375,1.40625 -0.45312,0.48437 -1.14062,0.48437 -0.40625,0 -0.73438,-0.17187 -0.34375,-0.1875 -0.54687,-0.48438 -0.20313,-0.3125 -0.3125,-0.6875 -0.0625,-0.26562 -0.14063,-0.82812 -0.125,-1.125 -0.3125,-1.67188 -0.20312,0 -0.25,0 -0.57812,0 -0.8125,0.26563 -0.3125,0.35937 -0.3125,1.0625 0,0.65625 0.23438,0.98437 0.23437,0.3125 0.8125,0.45313 l -0.125,0.92187 q -0.57813,-0.125 -0.9375,-0.40625 -0.375,-0.29687 -0.5625,-0.82812 -0.20313,-0.54688 -0.20313,-1.25 0,-0.71875 0.17188,-1.15625 0.17187,-0.4375 0.42187,-0.64063 0.25,-0.21875 0.64063,-0.29687 0.23437,-0.0469 0.85937,-0.0469 h 1.25 q 1.29688,0 1.65625,-0.0625 0.34375,-0.0625 0.65625,-0.23437 v 0.96875 q -0.29687,0.15625 -0.6875,0.1875 z m -2.07812,0.0781 q 0.20312,0.51563 0.34375,1.53125 0.0781,0.57813 0.1875,0.82813 0.10937,0.23437 0.3125,0.35937 0.1875,0.125 0.4375,0.125 0.375,0 0.625,-0.28125 0.25,-0.28125 0.25,-0.82812 0,-0.53125 -0.23438,-0.95313 -0.23437,-0.42187 -0.65625,-0.625 -0.3125,-0.15625 -0.9375,-0.15625 z m 4.89062,-2.39523 h -7.65625 v -0.85937 h 0.71875 q -0.42187,-0.29688 -0.625,-0.67188 -0.21875,-0.39062 -0.21875,-0.92187 0,-0.70313 0.375,-1.25 0.35938,-0.54688 1.03125,-0.8125 0.65625,-0.28125 1.45313,-0.28125 0.84375,0 1.53125,0.3125 0.67187,0.29687 1.03125,0.875 0.35937,0.57812 0.35937,1.21875 0,0.46875 -0.1875,0.84375 -0.20312,0.375 -0.51562,0.60937 h 2.70312 z m -4.85937,-0.84375 q 1.0625,0 1.57812,-0.4375 0.51563,-0.4375 0.51563,-1.04687 0,-0.625 -0.53125,-1.0625 -0.53125,-0.45313 -1.64063,-0.45313 -1.04687,0 -1.57812,0.4375 -0.53125,0.4375 -0.53125,1.04688 0,0.59375 0.5625,1.0625 0.5625,0.45312 1.625,0.45312 z m 0.95312,-8.86401 0.125,-0.96872 q 0.84375,0.23437 1.3125,0.85937 0.46875,0.60935 0.46875,1.5781 0,1.20312 -0.75,1.92187 -0.75,0.70313 -2.09375,0.70313 -1.39062,0 -2.15625,-0.71875 -0.78125,-0.71875 -0.78125,-1.85938 0,-1.10937 0.76563,-1.81247 0.75,-0.70312 2.125,-0.70312 0.0781,0 0.23437,0 v 4.12497 q 0.92188,-0.0469 1.40625,-0.51563 0.48438,-0.46875 0.48438,-1.15625 0,-0.51562 -0.26563,-0.875 -0.28125,-0.35937 -0.875,-0.57812 z m -1.51562,3.07812 v -3.09375 q -0.6875,0.0625 -1.04688,0.35938 -0.53125,0.45312 -0.53125,1.15625 0,0.64062 0.4375,1.09375 0.42188,0.4375 1.14063,0.48437 z"
       id="path115"
       inkscape:connector-curvature="0"
       style="fill:#000000;fill-rule:nonzero" />
    <path
       d="m 474.17282,428.43497 v -88.09451 h 11.65353 v 88.09451 z"
       id="path117"
       inkscape:connector-curvature="0"
       style="fill:#000000;fill-opacity:0;fill-rule:evenodd" />
    <path
       d="m 483.7396,399.8301 h -7.625 v -3.375 q 0,-1.01562 0.20312,-1.54687 0.20313,-0.53125 0.73438,-0.84375 0.51562,-0.32813 1.14062,-0.32813 0.8125,0 1.375,0.53125 0.54688,0.51563 0.70313,1.625 0.1875,-0.40625 0.375,-0.60937 0.40625,-0.45313 1.01562,-0.84375 l 2.07813,-1.32813 v 1.26563 l -1.59375,1.01562 q -0.6875,0.4375 -1.04688,0.73438 -0.35937,0.28125 -0.5,0.51562 -0.15625,0.21875 -0.20312,0.45313 -0.0469,0.17187 -0.0469,0.5625 v 1.17187 h 3.39063 z m -4.26563,-1 v -2.17187 q 0,-0.6875 -0.14062,-1.07813 -0.14063,-0.39062 -0.45313,-0.59375 -0.3125,-0.20312 -0.6875,-0.20312 -0.54687,0 -0.89062,0.39062 -0.34375,0.39063 -0.34375,1.23438 v 2.42187 z m 2.48438,-10.33621 0.125,-0.96875 q 0.84375,0.23437 1.3125,0.85937 0.46875,0.60938 0.46875,1.57813 0,1.20312 -0.75,1.92187 -0.75,0.70313 -2.09375,0.70313 -1.39063,0 -2.15625,-0.71875 -0.78125,-0.71875 -0.78125,-1.85938 0,-1.10937 0.76562,-1.8125 0.75,-0.70312 2.125,-0.70312 0.0781,0 0.23438,0 v 4.125 q 0.92187,-0.0469 1.40625,-0.51563 0.48437,-0.46875 0.48437,-1.15625 0,-0.51562 -0.26562,-0.875 -0.28125,-0.35937 -0.875,-0.57812 z m -1.51563,3.07812 v -3.09375 q -0.6875,0.0625 -1.04687,0.35938 -0.53125,0.45312 -0.53125,1.15625 0,0.64062 0.4375,1.09375 0.42187,0.4375 1.14062,0.48437 z m 1.64063,-4.84839 -0.14063,-0.92187 q 0.5625,-0.0781 0.85938,-0.4375 0.29687,-0.35938 0.29687,-1 0,-0.64063 -0.26562,-0.95313 -0.26563,-0.3125 -0.625,-0.3125 -0.3125,0 -0.5,0.28125 -0.125,0.1875 -0.3125,0.95313 -0.26563,1.03125 -0.45313,1.4375 -0.1875,0.39062 -0.51562,0.59375 -0.34375,0.20312 -0.75,0.20312 -0.35938,0 -0.67188,-0.17187 -0.32812,-0.17188 -0.53125,-0.45313 -0.15625,-0.21875 -0.26562,-0.59375 -0.125,-0.39062 -0.125,-0.8125 0,-0.65625 0.1875,-1.14062 0.1875,-0.5 0.51562,-0.73438 0.3125,-0.23437 0.85938,-0.3125 l 0.125,0.90625 q -0.4375,0.0625 -0.67188,0.375 -0.23437,0.29688 -0.23437,0.82813 0,0.65625 0.21875,0.9375 0.20312,0.26562 0.48437,0.26562 0.1875,0 0.32813,-0.10937 0.15625,-0.125 0.25,-0.35938 0.0625,-0.14062 0.25,-0.82812 0.26562,-1 0.4375,-1.39063 0.15625,-0.39062 0.48437,-0.60937 0.3125,-0.23438 0.79688,-0.23438 0.46875,0 0.89062,0.28125 0.40625,0.26563 0.64063,0.78125 0.21875,0.51563 0.21875,1.17188 0,1.07812 -0.4375,1.64062 -0.45313,0.5625 -1.34375,0.71875 z m -4.89063,-5.70312 h -1.07812 v -0.9375 h 1.07812 z m 6.54688,0 h -5.53125 v -0.9375 h 5.53125 z m 0,-1.86746 h -0.76563 l -4.03125,-3.51563 q 0.0312,0.59375 0.0312,1.04688 v 2.25 h -0.76562 v -4.51563 h 0.625 l 3.5,3 0.64062,0.57813 q -0.0469,-0.64063 -0.0469,-1.1875 v -2.54688 h 0.8125 z m -1.78125,-9.60938 0.125,-0.96875 q 0.84375,0.23438 1.3125,0.85938 0.46875,0.60937 0.46875,1.57812 0,1.20313 -0.75,1.92188 -0.75,0.70312 -2.09375,0.70312 -1.39063,0 -2.15625,-0.71875 -0.78125,-0.71875 -0.78125,-1.85937 0,-1.10938 0.76562,-1.8125 0.75,-0.70313 2.125,-0.70313 0.0781,0 0.23438,0 v 4.125 q 0.92187,-0.0469 1.40625,-0.51562 0.48437,-0.46875 0.48437,-1.15625 0,-0.51563 -0.26562,-0.875 -0.28125,-0.35938 -0.875,-0.57813 z m -1.51563,3.07813 v -3.09375 q -0.6875,0.0625 -1.04687,0.35937 -0.53125,0.45313 -0.53125,1.15625 0,0.64063 0.4375,1.09375 0.42187,0.4375 1.14062,0.48438 z"
       id="path119"
       inkscape:connector-curvature="0"
       style="fill:#000000;fill-rule:nonzero" />
    <path
       d="M 500.383,436.31 V 332.46747 h 28 V 436.31 Z"
       id="path121"
       inkscape:connector-curvature="0"
       style="fill:#eeeeee;fill-rule:evenodd" />
    <path
       d="M 500.383,436.31 V 332.46747 h 28 V 436.31 Z"
       id="path123"
       inkscape:connector-curvature="0"
       style="fill-rule:evenodd;stroke:#595959;stroke-width:1;stroke-linecap:butt;stroke-linejoin:round" />
    <path
       d="m 516.10736,417.39767 -0.125,-0.9375 q 0.79687,-0.15625 1.15625,-0.54688 0.34375,-0.39062 0.34375,-0.9375 0,-0.65625 -0.45313,-1.10937 -0.46875,-0.46875 -1.14062,-0.46875 -0.64063,0 -1.0625,0.42187 -0.42188,0.42188 -0.42188,1.07813 0,0.26562 0.10938,0.65625 l -0.82813,-0.10938 q 0.0156,-0.0937 0.0156,-0.14062 0,-0.59375 -0.3125,-1.07813 -0.3125,-0.48437 -0.96875,-0.48437 -0.51563,0 -0.84375,0.35937 -0.34375,0.34375 -0.34375,0.89063 0,0.54687 0.34375,0.92187 0.34375,0.35938 1.03125,0.45313 l -0.17188,0.9375 q -0.9375,-0.17188 -1.45312,-0.78125 -0.51563,-0.60938 -0.51563,-1.5 0,-0.625 0.26563,-1.15625 0.26562,-0.53125 0.73437,-0.79688 0.45313,-0.28125 0.98438,-0.28125 0.48437,0 0.89062,0.26563 0.40625,0.26562 0.65625,0.78125 0.15625,-0.67188 0.65625,-1.04688 0.48438,-0.375 1.21875,-0.375 1,0 1.70313,0.73438 0.6875,0.71875 0.6875,1.82812 0,1 -0.59375,1.67188 -0.60938,0.65625 -1.5625,0.75 z m 2.01562,-5.55148 -2.875,-2.01563 -2.65625,1.85938 v -1.17188 l 1.29688,-0.84375 q 0.375,-0.23437 0.625,-0.39062 -0.34375,-0.21875 -0.60938,-0.40625 l -1.3125,-0.9375 v -1.125 l 2.60938,1.92187 2.92187,-2.0625 v 1.15625 l -1.71875,1.125 -0.46875,0.29688 2.1875,1.45312 z m -2.01562,-5.70313 -0.125,-0.9375 q 0.79687,-0.15625 1.15625,-0.54687 0.34375,-0.39063 0.34375,-0.9375 0,-0.65625 -0.45313,-1.10938 -0.46875,-0.46875 -1.14062,-0.46875 -0.64063,0 -1.0625,0.42188 -0.42188,0.42187 -0.42188,1.07812 0,0.26563 0.10938,0.65625 l -0.82813,-0.10937 q 0.0156,-0.0937 0.0156,-0.14063 0,-0.59375 -0.3125,-1.07812 -0.3125,-0.48438 -0.96875,-0.48438 -0.51563,0 -0.84375,0.35938 -0.34375,0.34375 -0.34375,0.89062 0,0.54688 0.34375,0.92188 0.34375,0.35937 1.03125,0.45312 l -0.17188,0.9375 q -0.9375,-0.17187 -1.45312,-0.78125 -0.51563,-0.60937 -0.51563,-1.5 0,-0.625 0.26563,-1.15625 0.26562,-0.53125 0.73437,-0.79687 0.45313,-0.28125 0.98438,-0.28125 0.48437,0 0.89062,0.26562 0.40625,0.26563 0.65625,0.78125 0.15625,-0.67187 0.65625,-1.04687 0.48438,-0.375 1.21875,-0.375 1,0 1.70313,0.73437 0.6875,0.71875 0.6875,1.82813 0,1 -0.59375,1.67187 -0.60938,0.65625 -1.5625,0.75 z m 2.01562,-6.42651 h -1.0625 v -1.0625 h 1.0625 q 0.59375,0 0.95313,0.21875 0.35937,0.20312 0.5625,0.65625 l -0.40625,0.25 q -0.125,-0.29688 -0.39063,-0.4375 -0.25,-0.14063 -0.71875,-0.15625 z m -2.01562,-5.4213 -0.125,-0.9375 q 0.79687,-0.15625 1.15625,-0.54687 0.34375,-0.39063 0.34375,-0.9375 0,-0.65625 -0.45313,-1.10938 -0.46875,-0.46875 -1.14062,-0.46875 -0.64063,0 -1.0625,0.42188 -0.42188,0.42187 -0.42188,1.07812 0,0.26563 0.10938,0.65625 l -0.82813,-0.10937 q 0.0156,-0.0937 0.0156,-0.14063 0,-0.59375 -0.3125,-1.07812 -0.3125,-0.48438 -0.96875,-0.48438 -0.51563,0 -0.84375,0.35938 -0.34375,0.34375 -0.34375,0.89062 0,0.54688 0.34375,0.92188 0.34375,0.35937 1.03125,0.45312 l -0.17188,0.9375 q -0.9375,-0.17187 -1.45312,-0.78125 -0.51563,-0.60937 -0.51563,-1.5 0,-0.625 0.26563,-1.15625 0.26562,-0.53125 0.73437,-0.79687 0.45313,-0.28125 0.98438,-0.28125 0.48437,0 0.89062,0.26562 0.40625,0.26563 0.65625,0.78125 0.15625,-0.67187 0.65625,-1.04687 0.48438,-0.375 1.21875,-0.375 1,0 1.70313,0.73437 0.6875,0.71875 0.6875,1.82813 0,1 -0.59375,1.67187 -0.60938,0.65625 -1.5625,0.75 z m 1.10937,-10.83273 h 0.90625 v 5.03125 q -0.34375,0.0156 -0.65625,-0.10937 -0.51562,-0.1875 -1.01562,-0.60938 -0.5,-0.42187 -1.14063,-1.23437 -1.03125,-1.23438 -1.625,-1.67188 -0.59375,-0.4375 -1.125,-0.4375 -0.5625,0 -0.9375,0.40625 -0.39062,0.39063 -0.39062,1.03125 0,0.67188 0.40625,1.07813 0.40625,0.40625 1.125,0.40625 l -0.0937,0.96875 q -1.07813,-0.0937 -1.64063,-0.73438 -0.5625,-0.65625 -0.5625,-1.73437 0,-1.10938 0.60938,-1.75 0.60937,-0.64063 1.5,-0.64063 0.46875,0 0.90625,0.1875 0.4375,0.1875 0.9375,0.625 0.48437,0.4375 1.32812,1.45313 0.71875,0.82812 0.96875,1.07812 0.25,0.23438 0.5,0.39063 z m 0.90625,-4.40277 h -7.625 v -5.14063 h 0.89063 v 4.125 h 2.375 V 374.466 h 0.89062 v 3.57812 h 3.46875 z m -6.54687,-6.3374 h -1.07813 v -0.9375 h 1.07813 z m 6.54687,0 h -5.53125 v -0.9375 h 5.53125 z m 0,-2.35184 h -7.625 v -0.9375 h 7.625 z m -0.84375,-4.42999 0.82813,-0.125 q 0.0937,0.39062 0.0937,0.70312 0,0.5 -0.15625,0.78125 -0.17188,0.28125 -0.4375,0.40625 -0.26563,0.10938 -1.10938,0.10938 h -3.17187 v 0.6875 h -0.73438 v -0.6875 h -1.35937 l -0.5625,-0.9375 h 1.92187 v -0.9375 h 0.73438 v 0.9375 h 3.23437 q 0.39063,0 0.51563,-0.0469 0.10937,-0.0469 0.1875,-0.15625 0.0625,-0.10937 0.0625,-0.32812 0,-0.15625 -0.0469,-0.40625 z m -0.9375,-4.69501 0.125,-0.96875 q 0.84375,0.23437 1.3125,0.85937 0.46875,0.60938 0.46875,1.57813 0,1.20312 -0.75,1.92187 -0.75,0.70313 -2.09375,0.70313 -1.39062,0 -2.15625,-0.71875 -0.78125,-0.71875 -0.78125,-1.85938 0,-1.10937 0.76563,-1.8125 0.75,-0.70312 2.125,-0.70312 0.0781,0 0.23437,0 v 4.125 q 0.92188,-0.0469 1.40625,-0.51563 0.48438,-0.46875 0.48438,-1.15625 0,-0.51562 -0.26563,-0.875 -0.28125,-0.35937 -0.875,-0.57812 z m -1.51562,3.07812 v -3.09375 q -0.6875,0.0625 -1.04688,0.35938 -0.53125,0.45312 -0.53125,1.15625 0,0.64062 0.4375,1.09375 0.42188,0.4375 1.14063,0.48437 z m 3.29687,-5.20776 h -5.53125 v -0.84375 h 0.84375 q -0.59375,-0.32812 -0.78125,-0.59375 -0.1875,-0.28125 -0.1875,-0.60937 0,-0.46875 0.3125,-0.95313 l 0.85938,0.3125 q -0.20313,0.34375 -0.20313,0.6875 0,0.3125 0.1875,0.5625 0.1875,0.23438 0.51563,0.34375 0.5,0.15625 1.09375,0.15625 h 2.89062 z m -1.65625,-3.18924 -0.14062,-0.92187 q 0.5625,-0.0781 0.85937,-0.4375 0.29688,-0.35938 0.29688,-1 0,-0.64063 -0.26563,-0.95313 -0.26562,-0.3125 -0.625,-0.3125 -0.3125,0 -0.5,0.28125 -0.125,0.1875 -0.3125,0.95313 -0.26562,1.03125 -0.45312,1.4375 -0.1875,0.39062 -0.51563,0.59375 -0.34375,0.20312 -0.75,0.20312 -0.35937,0 -0.67187,-0.17187 -0.32813,-0.17188 -0.53125,-0.45313 -0.15625,-0.21875 -0.26563,-0.59375 -0.125,-0.39062 -0.125,-0.8125 0,-0.65625 0.1875,-1.14062 0.1875,-0.5 0.51563,-0.73438 0.3125,-0.23437 0.85937,-0.3125 l 0.125,0.90625 q -0.4375,0.0625 -0.67187,0.375 -0.23438,0.29688 -0.23438,0.82813 0,0.65625 0.21875,0.9375 0.20313,0.26562 0.48438,0.26562 0.1875,0 0.32812,-0.10937 0.15625,-0.125 0.25,-0.35938 0.0625,-0.14062 0.25,-0.82812 0.26563,-1 0.4375,-1.39063 0.15625,-0.39062 0.48438,-0.60937 0.3125,-0.23438 0.79687,-0.23438 0.46875,0 0.89063,0.28125 0.40625,0.26563 0.64062,0.78125 0.21875,0.51563 0.21875,1.17188 0,1.07812 -0.4375,1.64062 -0.45312,0.5625 -1.34375,0.71875 z"
       id="path125"
       inkscape:connector-curvature="0"
       style="fill:#000000;fill-rule:nonzero" />
    <path
       d="m 542.93964,428.43497 v -88.09451 h 11.65356 v 88.09451 z"
       id="path127"
       inkscape:connector-curvature="0"
       style="fill:#000000;fill-opacity:0;fill-rule:evenodd" />
    <path
       d="m 552.5064,399.8301 h -7.625 v -3.375 q 0,-1.01562 0.20312,-1.54687 0.20313,-0.53125 0.73438,-0.84375 0.51562,-0.32813 1.14062,-0.32813 0.8125,0 1.375,0.53125 0.54688,0.51563 0.70313,1.625 0.1875,-0.40625 0.375,-0.60937 0.40625,-0.45313 1.01562,-0.84375 l 2.07813,-1.32813 v 1.26563 l -1.59375,1.01562 q -0.6875,0.4375 -1.04688,0.73438 -0.35937,0.28125 -0.5,0.51562 -0.15625,0.21875 -0.20312,0.45313 -0.0469,0.17187 -0.0469,0.5625 v 1.17187 h 3.39063 z m -4.26563,-1 v -2.17187 q 0,-0.6875 -0.14062,-1.07813 -0.14063,-0.39062 -0.45313,-0.59375 -0.3125,-0.20312 -0.6875,-0.20312 -0.54687,0 -0.89062,0.39062 -0.34375,0.39063 -0.34375,1.23438 v 2.42187 z m 2.48438,-10.33621 0.125,-0.96875 q 0.84375,0.23437 1.3125,0.85937 0.46875,0.60938 0.46875,1.57813 0,1.20312 -0.75,1.92187 -0.75,0.70313 -2.09375,0.70313 -1.39063,0 -2.15625,-0.71875 -0.78125,-0.71875 -0.78125,-1.85938 0,-1.10937 0.76562,-1.8125 0.75,-0.70312 2.125,-0.70312 0.0781,0 0.23438,0 v 4.125 q 0.92187,-0.0469 1.40625,-0.51563 0.48437,-0.46875 0.48437,-1.15625 0,-0.51562 -0.26562,-0.875 -0.28125,-0.35937 -0.875,-0.57812 z m -1.51563,3.07812 v -3.09375 q -0.6875,0.0625 -1.04687,0.35938 -0.53125,0.45312 -0.53125,1.15625 0,0.64062 0.4375,1.09375 0.42187,0.4375 1.14062,0.48437 z m 1.64063,-4.84839 -0.14063,-0.92187 q 0.5625,-0.0781 0.85938,-0.4375 0.29687,-0.35938 0.29687,-1 0,-0.64063 -0.26562,-0.95313 -0.26563,-0.3125 -0.625,-0.3125 -0.3125,0 -0.5,0.28125 -0.125,0.1875 -0.3125,0.95313 -0.26563,1.03125 -0.45313,1.4375 -0.1875,0.39062 -0.51562,0.59375 -0.34375,0.20312 -0.75,0.20312 -0.35938,0 -0.67188,-0.17187 -0.32812,-0.17188 -0.53125,-0.45313 -0.15625,-0.21875 -0.26562,-0.59375 -0.125,-0.39062 -0.125,-0.8125 0,-0.65625 0.1875,-1.14062 0.1875,-0.5 0.51562,-0.73438 0.3125,-0.23437 0.85938,-0.3125 l 0.125,0.90625 q -0.4375,0.0625 -0.67188,0.375 -0.23437,0.29688 -0.23437,0.82813 0,0.65625 0.21875,0.9375 0.20312,0.26562 0.48437,0.26562 0.1875,0 0.32813,-0.10937 0.15625,-0.125 0.25,-0.35938 0.0625,-0.14062 0.25,-0.82812 0.26562,-1 0.4375,-1.39063 0.15625,-0.39062 0.48437,-0.60937 0.3125,-0.23438 0.79688,-0.23438 0.46875,0 0.89062,0.28125 0.40625,0.26563 0.64063,0.78125 0.21875,0.51563 0.21875,1.17188 0,1.07812 -0.4375,1.64062 -0.45313,0.5625 -1.34375,0.71875 z m -4.89063,-5.70312 h -1.07812 v -0.9375 h 1.07812 z m 6.54688,0 h -5.53125 v -0.9375 h 5.53125 z m 0,-1.86746 h -0.76563 l -4.03125,-3.51563 q 0.0312,0.59375 0.0312,1.04688 v 2.25 h -0.76562 v -4.51563 h 0.625 l 3.5,3 0.64062,0.57813 q -0.0469,-0.64063 -0.0469,-1.1875 v -2.54688 h 0.8125 z m -1.78125,-9.60938 0.125,-0.96875 q 0.84375,0.23438 1.3125,0.85938 0.46875,0.60937 0.46875,1.57812 0,1.20313 -0.75,1.92188 -0.75,0.70312 -2.09375,0.70312 -1.39063,0 -2.15625,-0.71875 -0.78125,-0.71875 -0.78125,-1.85937 0,-1.10938 0.76562,-1.8125 0.75,-0.70313 2.125,-0.70313 0.0781,0 0.23438,0 v 4.125 q 0.92187,-0.0469 1.40625,-0.51562 0.48437,-0.46875 0.48437,-1.15625 0,-0.51563 -0.26562,-0.875 -0.28125,-0.35938 -0.875,-0.57813 z m -1.51563,3.07813 v -3.09375 q -0.6875,0.0625 -1.04687,0.35937 -0.53125,0.45313 -0.53125,1.15625 0,0.64063 0.4375,1.09375 0.42187,0.4375 1.14062,0.48438 z"
       id="path129"
       inkscape:connector-curvature="0"
       style="fill:#000000;fill-rule:nonzero" />
    <path
       d="M 569.14984,452.98752 V 315.79068 h 28 v 137.19684 z"
       id="path131"
       inkscape:connector-curvature="0"
       style="fill:#eeeeee;fill-rule:evenodd" />
    <path
       d="M 569.14984,452.98752 V 315.79068 h 28 v 137.19684 z"
       id="path133"
       inkscape:connector-curvature="0"
       style="fill-rule:evenodd;stroke:#595959;stroke-width:1;stroke-linecap:butt;stroke-linejoin:round" />
    <path
       d="m 584.8742,414.4348 -0.125,-0.9375 q 0.79687,-0.15625 1.15625,-0.54688 0.34375,-0.39062 0.34375,-0.9375 0,-0.65625 -0.45313,-1.10937 -0.46875,-0.46875 -1.14062,-0.46875 -0.64063,0 -1.0625,0.42187 -0.42188,0.42188 -0.42188,1.07813 0,0.26562 0.10938,0.65625 l -0.82813,-0.10938 q 0.0156,-0.0937 0.0156,-0.14062 0,-0.59375 -0.3125,-1.07813 -0.3125,-0.48437 -0.96875,-0.48437 -0.51563,0 -0.84375,0.35937 -0.34375,0.34375 -0.34375,0.89063 0,0.54687 0.34375,0.92187 0.34375,0.35938 1.03125,0.45313 l -0.17188,0.9375 q -0.9375,-0.17188 -1.45312,-0.78125 -0.51563,-0.60938 -0.51563,-1.5 0,-0.625 0.26563,-1.15625 0.26562,-0.53125 0.73437,-0.79688 0.45313,-0.28125 0.98438,-0.28125 0.48437,0 0.89062,0.26563 0.40625,0.26562 0.65625,0.78125 0.15625,-0.67188 0.65625,-1.04688 0.48438,-0.375 1.21875,-0.375 1,0 1.70313,0.73438 0.6875,0.71875 0.6875,1.82812 0,1 -0.59375,1.67188 -0.60938,0.65625 -1.5625,0.75 z m 2.01562,-5.55151 -2.875,-2.01563 -2.65625,1.85938 v -1.17188 l 1.29688,-0.84375 q 0.375,-0.23437 0.625,-0.39062 -0.34375,-0.21875 -0.60938,-0.40625 l -1.3125,-0.9375 v -1.125 l 2.60938,1.92187 2.92187,-2.0625 v 1.15625 l -1.71875,1.125 -0.46875,0.29688 2.1875,1.45312 z m -2.01562,-5.70313 -0.125,-0.9375 q 0.79687,-0.15625 1.15625,-0.54687 0.34375,-0.39063 0.34375,-0.9375 0,-0.65625 -0.45313,-1.10938 -0.46875,-0.46875 -1.14062,-0.46875 -0.64063,0 -1.0625,0.42188 -0.42188,0.42187 -0.42188,1.07812 0,0.26563 0.10938,0.65625 l -0.82813,-0.10937 q 0.0156,-0.0937 0.0156,-0.14063 0,-0.59375 -0.3125,-1.07812 -0.3125,-0.48438 -0.96875,-0.48438 -0.51563,0 -0.84375,0.35938 -0.34375,0.34375 -0.34375,0.89062 0,0.54688 0.34375,0.92188 0.34375,0.35937 1.03125,0.45312 l -0.17188,0.9375 q -0.9375,-0.17187 -1.45312,-0.78125 -0.51563,-0.60937 -0.51563,-1.5 0,-0.625 0.26563,-1.15625 0.26562,-0.53125 0.73437,-0.79687 0.45313,-0.28125 0.98438,-0.28125 0.48437,0 0.89062,0.26562 0.40625,0.26563 0.65625,0.78125 0.15625,-0.67187 0.65625,-1.04687 0.48438,-0.375 1.21875,-0.375 1,0 1.70313,0.73437 0.6875,0.71875 0.6875,1.82813 0,1 -0.59375,1.67187 -0.60938,0.65625 -1.5625,0.75 z m 2.01562,-6.42648 h -1.0625 v -1.0625 h 1.0625 q 0.59375,0 0.95313,0.21875 0.35937,0.20312 0.5625,0.65625 l -0.40625,0.25 q -0.125,-0.29688 -0.39063,-0.4375 -0.25,-0.14063 -0.71875,-0.15625 z m -2.01562,-5.4213 -0.125,-0.9375 q 0.79687,-0.15625 1.15625,-0.54687 0.34375,-0.39063 0.34375,-0.9375 0,-0.65625 -0.45313,-1.10938 -0.46875,-0.46875 -1.14062,-0.46875 -0.64063,0 -1.0625,0.42188 -0.42188,0.42187 -0.42188,1.07812 0,0.26563 0.10938,0.65625 l -0.82813,-0.10937 q 0.0156,-0.0937 0.0156,-0.14063 0,-0.59375 -0.3125,-1.07812 -0.3125,-0.48438 -0.96875,-0.48438 -0.51563,0 -0.84375,0.35938 -0.34375,0.34375 -0.34375,0.89062 0,0.54688 0.34375,0.92188 0.34375,0.35937 1.03125,0.45312 l -0.17188,0.9375 q -0.9375,-0.17187 -1.45312,-0.78125 -0.51563,-0.60937 -0.51563,-1.5 0,-0.625 0.26563,-1.15625 0.26562,-0.53125 0.73437,-0.79687 0.45313,-0.28125 0.98438,-0.28125 0.48437,0 0.89062,0.26562 0.40625,0.26563 0.65625,0.78125 0.15625,-0.67187 0.65625,-1.04687 0.48438,-0.375 1.21875,-0.375 1,0 1.70313,0.73437 0.6875,0.71875 0.6875,1.82813 0,1 -0.59375,1.67187 -0.60938,0.65625 -1.5625,0.75 z m 2.01562,-9.30902 h -7.625 v -5.14062 h 0.89063 v 4.125 h 2.375 v -3.57813 h 0.89062 v 3.57813 h 3.46875 z m -6.54687,-6.3374 h -1.07813 v -0.9375 h 1.07813 z m 6.54687,0 h -5.53125 v -0.9375 h 5.53125 z m 0,-2.35184 h -7.625 v -0.9375 h 7.625 z m -0.84375,-4.42999 0.82813,-0.125 q 0.0937,0.39063 0.0937,0.70313 0,0.5 -0.15625,0.78125 -0.17188,0.28125 -0.4375,0.40625 -0.26563,0.10937 -1.10938,0.10937 h -3.17187 v 0.6875 h -0.73438 v -0.6875 h -1.35937 l -0.5625,-0.9375 h 1.92187 v -0.9375 h 0.73438 v 0.9375 h 3.23437 q 0.39063,0 0.51563,-0.0469 0.10937,-0.0469 0.1875,-0.15625 0.0625,-0.10938 0.0625,-0.32813 0,-0.15625 -0.0469,-0.40625 z m -0.9375,-4.69501 0.125,-0.96875 q 0.84375,0.23438 1.3125,0.85938 0.46875,0.60937 0.46875,1.57812 0,1.20313 -0.75,1.92188 -0.75,0.70312 -2.09375,0.70312 -1.39062,0 -2.15625,-0.71875 -0.78125,-0.71875 -0.78125,-1.85937 0,-1.10938 0.76563,-1.8125 0.75,-0.70313 2.125,-0.70313 0.0781,0 0.23437,0 v 4.125 q 0.92188,-0.0469 1.40625,-0.51562 0.48438,-0.46875 0.48438,-1.15625 0,-0.51563 -0.26563,-0.875 -0.28125,-0.35938 -0.875,-0.57813 z m -1.51562,3.07813 v -3.09375 q -0.6875,0.0625 -1.04688,0.35937 -0.53125,0.45313 -0.53125,1.15625 0,0.64063 0.4375,1.09375 0.42188,0.4375 1.14063,0.48438 z m 3.29687,-5.20777 h -5.53125 v -0.84375 h 0.84375 q -0.59375,-0.32812 -0.78125,-0.59375 -0.1875,-0.28125 -0.1875,-0.60937 0,-0.46875 0.3125,-0.95313 l 0.85938,0.3125 q -0.20313,0.34375 -0.20313,0.6875 0,0.3125 0.1875,0.5625 0.1875,0.23438 0.51563,0.34375 0.5,0.15625 1.09375,0.15625 h 2.89062 z m -1.65625,-3.18924 -0.14062,-0.92187 q 0.5625,-0.0781 0.85937,-0.4375 0.29688,-0.35938 0.29688,-1 0,-0.64063 -0.26563,-0.95313 -0.26562,-0.3125 -0.625,-0.3125 -0.3125,0 -0.5,0.28125 -0.125,0.1875 -0.3125,0.95313 -0.26562,1.03125 -0.45312,1.4375 -0.1875,0.39062 -0.51563,0.59375 -0.34375,0.20312 -0.75,0.20312 -0.35937,0 -0.67187,-0.17187 -0.32813,-0.17188 -0.53125,-0.45313 -0.15625,-0.21875 -0.26563,-0.59375 -0.125,-0.39062 -0.125,-0.8125 0,-0.65625 0.1875,-1.14062 0.1875,-0.5 0.51563,-0.73438 0.3125,-0.23437 0.85937,-0.3125 l 0.125,0.90625 q -0.4375,0.0625 -0.67187,0.375 -0.23438,0.29688 -0.23438,0.82813 0,0.65625 0.21875,0.9375 0.20313,0.26562 0.48438,0.26562 0.1875,0 0.32812,-0.10937 0.15625,-0.125 0.25,-0.35938 0.0625,-0.14062 0.25,-0.82812 0.26563,-1 0.4375,-1.39063 0.15625,-0.39062 0.48438,-0.60937 0.3125,-0.23438 0.79687,-0.23438 0.46875,0 0.89063,0.28125 0.40625,0.26563 0.64062,0.78125 0.21875,0.51563 0.21875,1.17188 0,1.07812 -0.4375,1.64062 -0.45312,0.5625 -1.34375,0.71875 z"
       id="path135"
       inkscape:connector-curvature="0"
       style="fill:#000000;fill-rule:nonzero" />
    <path
       d="m 390.8493,384.38864 h 14.55121"
       id="path137"
       inkscape:connector-curvature="0"
       style="fill:#000000;fill-opacity:0;fill-rule:evenodd" />
    <path
       d="m 390.84933,384.3886 h 8.55118"
       id="path139"
       inkscape:connector-curvature="0"
       style="fill-rule:evenodd;stroke:#595959;stroke-width:1;stroke-linecap:butt;stroke-linejoin:round" />
    <path
       d="m 399.4005,386.04034 4.53809,-1.65173 -4.53809,-1.65174 z"
       id="path141"
       inkscape:connector-curvature="0"
       style="fill:#595959;fill-rule:evenodd;stroke:#595959;stroke-width:1;stroke-linecap:butt" />
    <path
       d="m 417.0595,384.3877 14.55118,-0.50394"
       id="path143"
       inkscape:connector-curvature="0"
       style="fill:#000000;fill-opacity:0;fill-rule:evenodd" />
    <path
       d="m 417.0595,384.38773 8.55478,-0.29626"
       id="path145"
       inkscape:connector-curvature="0"
       style="fill-rule:evenodd;stroke:#595959;stroke-width:1;stroke-linecap:butt;stroke-linejoin:round" />
    <path
       d="m 425.67145,385.7422 4.47821,-1.8078 -4.59253,-1.49368 z"
       id="path147"
       inkscape:connector-curvature="0"
       style="fill:#595959;fill-rule:evenodd;stroke:#595959;stroke-width:1;stroke-linecap:butt" />
    <path
       d="m 459.61615,383.88464 14.55118,0.50394"
       id="path149"
       inkscape:connector-curvature="0"
       style="fill:#000000;fill-opacity:0;fill-rule:evenodd" />
    <path
       d="m 459.61615,383.88464 8.55478,0.29626"
       id="path151"
       inkscape:connector-curvature="0"
       style="fill-rule:evenodd;stroke:#595959;stroke-width:1;stroke-linecap:butt;stroke-linejoin:round" />
    <path
       d="m 468.11374,385.83163 4.59256,-1.49365 -4.47821,-1.80783 z"
       id="path153"
       inkscape:connector-curvature="0"
       style="fill:#595959;fill-rule:evenodd;stroke:#595959;stroke-width:1;stroke-linecap:butt" />
    <path
       d="m 485.82635,384.3877 h 14.55118"
       id="path155"
       inkscape:connector-curvature="0"
       style="fill:#000000;fill-opacity:0;fill-rule:evenodd" />
    <path
       d="m 485.82635,384.38773 h 8.55118"
       id="path157"
       inkscape:connector-curvature="0"
       style="fill-rule:evenodd;stroke:#595959;stroke-width:1;stroke-linecap:butt;stroke-linejoin:round" />
    <path
       d="m 494.37753,386.03946 4.53812,-1.65173 -4.53812,-1.65174 z"
       id="path159"
       inkscape:connector-curvature="0"
       style="fill:#595959;fill-rule:evenodd;stroke:#595959;stroke-width:1;stroke-linecap:butt" />
    <path
       d="m 528.383,384.38873 h 14.55121"
       id="path161"
       inkscape:connector-curvature="0"
       style="fill:#000000;fill-opacity:0;fill-rule:evenodd" />
    <path
       d="m 528.383,384.38873 h 8.55121"
       id="path163"
       inkscape:connector-curvature="0"
       style="fill-rule:evenodd;stroke:#595959;stroke-width:1;stroke-linecap:butt;stroke-linejoin:round" />
    <path
       d="m 536.9342,386.04047 4.53809,-1.65173 -4.53809,-1.65174 z"
       id="path165"
       inkscape:connector-curvature="0"
       style="fill:#595959;fill-rule:evenodd;stroke:#595959;stroke-width:1;stroke-linecap:butt" />
    <path
       d="m 554.5932,384.3877 h 14.55115"
       id="path167"
       inkscape:connector-curvature="0"
       style="fill:#000000;fill-opacity:0;fill-rule:evenodd" />
    <path
       d="m 554.5932,384.38773 h 8.55115"
       id="path169"
       inkscape:connector-curvature="0"
       style="fill-rule:evenodd;stroke:#595959;stroke-width:1;stroke-linecap:butt;stroke-linejoin:round" />
    <path
       d="m 563.14435,386.03946 4.53809,-1.65173 -4.53809,-1.65174 z"
       id="path171"
       inkscape:connector-curvature="0"
       style="fill:#595959;fill-rule:evenodd;stroke:#595959;stroke-width:1;stroke-linecap:butt" />
  </g>
</svg>
