<svg viewBox="0 0 330 200" xmlns="http://www.w3.org/2000/svg"><g><g><g><g><g><line x1="76" y1="175" x2="71" y2="175" style="visibility: inherit;" fill="rgb(0, 0, 0)" stroke="rgb(204, 204, 204)" stroke-width="1px"></line><line x1="76" y1="157.5" x2="71" y2="157.5" style="visibility: inherit;" fill="rgb(0, 0, 0)" stroke="rgb(204, 204, 204)" stroke-width="1px"></line><line x1="76" y1="140" x2="71" y2="140" style="visibility: inherit;" fill="rgb(0, 0, 0)" stroke="rgb(204, 204, 204)" stroke-width="1px"></line><line x1="76" y1="122.5" x2="71" y2="122.5" style="visibility: inherit;" fill="rgb(0, 0, 0)" stroke="rgb(204, 204, 204)" stroke-width="1px"></line><line x1="76" y1="105" x2="71" y2="105" style="visibility: inherit;" fill="rgb(0, 0, 0)" stroke="rgb(204, 204, 204)" stroke-width="1px"></line><line x1="76" y1="87.5" x2="71" y2="87.5" style="visibility: inherit;" fill="rgb(0, 0, 0)" stroke="rgb(204, 204, 204)" stroke-width="1px"></line><line x1="76" y1="70" x2="71" y2="70" style="visibility: inherit;" fill="rgb(0, 0, 0)" stroke="rgb(204, 204, 204)" stroke-width="1px"></line><line x1="76" y1="52.500000000000014" x2="71" y2="52.500000000000014" style="visibility: inherit;" fill="rgb(0, 0, 0)" stroke="rgb(204, 204, 204)" stroke-width="1px"></line><line x1="76" y1="35" x2="71" y2="35" style="visibility: inherit;" fill="rgb(0, 0, 0)" stroke="rgb(204, 204, 204)" stroke-width="1px"></line><line x1="76" y1="17.5" x2="71" y2="17.5" style="visibility: inherit;" fill="rgb(0, 0, 0)" stroke="rgb(204, 204, 204)" stroke-width="1px"></line><line x1="76" y1="0" x2="71" y2="0" style="visibility: inherit;" fill="rgb(0, 0, 0)" stroke="rgb(204, 204, 204)" stroke-width="1px"></line></g><g transform="translate(66, 0)"><text x="0" y="175" dx="0em" dy="0.3em" style="text-anchor: end; visibility: hidden; font-family: &quot;Helvetica Neue&quot;, sans-serif; font-size: 12px; font-weight: 200;" fill="rgb(50, 49, 63)" stroke="none" stroke-width="1px">-200</text><text x="0" y="157.5" dx="0em" dy="0.3em" style="text-anchor: end; visibility: inherit; font-family: &quot;Helvetica Neue&quot;, sans-serif; font-size: 12px; font-weight: 200;" fill="rgb(50, 49, 63)" stroke="none" stroke-width="1px">0</text><text x="0" y="140" dx="0em" dy="0.3em" style="text-anchor: end; visibility: hidden; font-family: &quot;Helvetica Neue&quot;, sans-serif; font-size: 12px; font-weight: 200;" fill="rgb(50, 49, 63)" stroke="none" stroke-width="1px">200</text><text x="0" y="122.5" dx="0em" dy="0.3em" style="text-anchor: end; visibility: inherit; font-family: &quot;Helvetica Neue&quot;, sans-serif; font-size: 12px; font-weight: 200;" fill="rgb(50, 49, 63)" stroke="none" stroke-width="1px">400</text><text x="0" y="105" dx="0em" dy="0.3em" style="text-anchor: end; visibility: hidden; font-family: &quot;Helvetica Neue&quot;, sans-serif; font-size: 12px; font-weight: 200;" fill="rgb(50, 49, 63)" stroke="none" stroke-width="1px">600</text><text x="0" y="87.5" dx="0em" dy="0.3em" style="text-anchor: end; visibility: inherit; font-family: &quot;Helvetica Neue&quot;, sans-serif; font-size: 12px; font-weight: 200;" fill="rgb(50, 49, 63)" stroke="none" stroke-width="1px">800</text><text x="0" y="70" dx="0em" dy="0.3em" style="text-anchor: end; visibility: hidden; font-family: &quot;Helvetica Neue&quot;, sans-serif; font-size: 12px; font-weight: 200;" fill="rgb(50, 49, 63)" stroke="none" stroke-width="1px">1e+3</text><text x="0" y="52.500000000000014" dx="0em" dy="0.3em" style="text-anchor: end; visibility: inherit; font-family: &quot;Helvetica Neue&quot;, sans-serif; font-size: 12px; font-weight: 200;" fill="rgb(50, 49, 63)" stroke="none" stroke-width="1px">1.2e+3</text><text x="0" y="35" dx="0em" dy="0.3em" style="text-anchor: end; visibility: hidden; font-family: &quot;Helvetica Neue&quot;, sans-serif; font-size: 12px; font-weight: 200;" fill="rgb(50, 49, 63)" stroke="none" stroke-width="1px">1.4e+3</text><text x="0" y="17.5" dx="0em" dy="0.3em" style="text-anchor: end; visibility: inherit; font-family: &quot;Helvetica Neue&quot;, sans-serif; font-size: 12px; font-weight: 200;" fill="rgb(50, 49, 63)" stroke="none" stroke-width="1px">1.6e+3</text><text x="0" y="0" dx="0em" dy="0.3em" style="text-anchor: end; visibility: hidden; font-family: &quot;Helvetica Neue&quot;, sans-serif; font-size: 12px; font-weight: 200;" fill="rgb(50, 49, 63)" stroke="none" stroke-width="1px">1.8e+3</text></g><line x1="76" y1="0" x2="76" y2="175" fill="rgb(0, 0, 0)" stroke="rgb(204, 204, 204)" stroke-width="1px"></line></g></g><g transform="translate(76, 0)" clip-path="url(#clip_0)"><clipPath id="clip_0"><rect width="254" height="175"></rect></clipPath><g><g><g><line x1="0" y1="0" x2="0" y2="175" fill="rgb(0, 0, 0)" stroke="rgb(60, 60, 60)" stroke-width="1px" opacity="0.25"></line><line x1="25.400000000000002" y1="0" x2="25.400000000000002" y2="175" fill="rgb(0, 0, 0)" stroke="rgb(60, 60, 60)" stroke-width="1px" opacity="0.25"></line><line x1="50.800000000000004" y1="0" x2="50.800000000000004" y2="175" fill="rgb(0, 0, 0)" stroke="rgb(60, 60, 60)" stroke-width="1px" opacity="0.25"></line><line x1="76.2" y1="0" x2="76.2" y2="175" fill="rgb(0, 0, 0)" stroke="rgb(60, 60, 60)" stroke-width="1px" opacity="0.25"></line><line x1="101.60000000000001" y1="0" x2="101.60000000000001" y2="175" fill="rgb(0, 0, 0)" stroke="rgb(60, 60, 60)" stroke-width="1px" opacity="0.25"></line><line x1="127" y1="0" x2="127" y2="175" fill="rgb(0, 0, 0)" stroke="rgb(60, 60, 60)" stroke-width="1px" opacity="0.25"></line><line x1="152.4" y1="0" x2="152.4" y2="175" fill="rgb(0, 0, 0)" stroke="rgb(60, 60, 60)" stroke-width="1px" opacity="0.25"></line><line x1="177.79999999999998" y1="0" x2="177.79999999999998" y2="175" fill="rgb(0, 0, 0)" stroke="rgb(60, 60, 60)" stroke-width="1px" opacity="0.25"></line><line x1="203.20000000000002" y1="0" x2="203.20000000000002" y2="175" fill="rgb(0, 0, 0)" stroke="rgb(60, 60, 60)" stroke-width="1px" opacity="0.25"></line><line x1="228.6" y1="0" x2="228.6" y2="175" fill="rgb(0, 0, 0)" stroke="rgb(60, 60, 60)" stroke-width="1px" opacity="0.25"></line><line x1="254" y1="0" x2="254" y2="175" fill="rgb(0, 0, 0)" stroke="rgb(60, 60, 60)" stroke-width="1px" opacity="0.25"></line></g><g><line x1="0" y1="175" x2="254" y2="175" fill="rgb(0, 0, 0)" stroke="rgb(60, 60, 60)" stroke-width="1px" opacity="0.25"></line><line x1="0" y1="157.5" x2="254" y2="157.5" fill="rgb(0, 0, 0)" stroke="rgb(60, 60, 60)" stroke-width="1px" opacity="0.25"></line><line x1="0" y1="140" x2="254" y2="140" fill="rgb(0, 0, 0)" stroke="rgb(60, 60, 60)" stroke-width="1px" opacity="0.25"></line><line x1="0" y1="122.5" x2="254" y2="122.5" fill="rgb(0, 0, 0)" stroke="rgb(60, 60, 60)" stroke-width="1px" opacity="0.25"></line><line x1="0" y1="105" x2="254" y2="105" fill="rgb(0, 0, 0)" stroke="rgb(60, 60, 60)" stroke-width="1px" opacity="0.25"></line><line x1="0" y1="87.5" x2="254" y2="87.5" fill="rgb(0, 0, 0)" stroke="rgb(60, 60, 60)" stroke-width="1px" opacity="0.25"></line><line x1="0" y1="70" x2="254" y2="70" fill="rgb(0, 0, 0)" stroke="rgb(60, 60, 60)" stroke-width="1px" opacity="0.25"></line><line x1="0" y1="52.500000000000014" x2="254" y2="52.500000000000014" fill="rgb(0, 0, 0)" stroke="rgb(60, 60, 60)" stroke-width="1px" opacity="0.25"></line><line x1="0" y1="35" x2="254" y2="35" fill="rgb(0, 0, 0)" stroke="rgb(60, 60, 60)" stroke-width="1px" opacity="0.25"></line><line x1="0" y1="17.5" x2="254" y2="17.5" fill="rgb(0, 0, 0)" stroke="rgb(60, 60, 60)" stroke-width="1px" opacity="0.25"></line><line x1="0" y1="0" x2="254" y2="0" fill="rgb(0, 0, 0)" stroke="rgb(60, 60, 60)" stroke-width="1px" opacity="0.25"></line></g></g></g><g><g><line x1="0" y1="157.5" x2="254" y2="157.5" fill="rgb(0, 0, 0)" stroke="rgb(153, 153, 153)" stroke-width="1.5px"></line></g></g><g><g><line x1="25.400000000000002" y1="0" x2="25.400000000000002" y2="175" fill="rgb(0, 0, 0)" stroke="rgb(153, 153, 153)" stroke-width="1.5px"></line></g></g><g><g><g><g><g><path stroke="rgb(255, 112, 67)" stroke-width="2px" d="M25.4254,29.828271484375023L25.9334,42.80340156555175L26.441399999999998,47.83273250034877L26.9494,52.187093325222236L27.4574,49.51700545025733L27.965400000000002,49.219177051056604L28.4734,51.628139139446844L28.981399999999997,51.990684648029756L29.4894,56.25504131862816L29.9974,55.44576016166954L30.505399999999998,50.11459856432438L31.0134,53.79040987171122L31.5214,53.95282658079418L32.029399999999995,51.64644191413822L32.5374,53.79768278198097L33.0454,56.20346317096512L33.553399999999996,53.73239266511648L34.0614,54.03325521715763L34.5694,56.30892908097141L35.0774,56.73073114670184L35.5854,61.67676587790575L36.0934,59.76022131257609L36.6014,57.463756863585914L37.1094,58.76071937009979L37.6174,60.23640835166583L38.125400000000006,62.25997895600527L38.6334,60.808280199326916L39.1414,60.64959692839966L39.6494,57.39419177201762L40.157399999999996,56.94326667250718L40.6654,57.17995966868935L41.1734,61.5436307505542L41.6814,63.2644133957845L42.1894,64.66170838023923L42.6974,66.207613433625L43.2054,61.749168233915285L43.7134,63.00896078701277L44.2214,64.10833362961016L44.7294,63.867980523910276L45.2374,63.655080306249076L45.745400000000004,62.719657069717954L46.253400000000006,59.833949391809256L46.7614,62.84255530489956L47.2694,65.28145084693647L47.7774,65.75700161172695L48.285399999999996,65.28439322774888L48.7934,67.72669672775635L49.3014,65.82645199657208L49.8094,64.30644492839153L50.3174,67.43879279934539L50.8254,66.14758476163222L51.3334,67.43214338627995L51.8414,70.5323503017929L52.3494,71.25372262004134L52.8574,71.1505123806185L53.3654,68.28605266762784L53.873400000000004,69.8901679775302L54.381400000000006,71.95439375526837L54.889399999999995,70.5397737043328L55.3974,70.53615639789267L55.9054,70.33785869469263L56.413399999999996,72.08407630079998L56.9214,69.61870322676903L57.4294,69.70215974123718L57.9374,64.71568793458603L58.4454,67.11368308545865L58.9534,69.37467255879471L59.4614,70.61251532726901L59.9694,70.84256626423252L60.4774,69.7104518679145L60.9854,71.84352209731121L61.4934,77.14247678377734L62.001400000000004,76.69578209077423L62.50940000000001,75.68306037995283L63.017399999999995,73.06863108881153L63.5254,71.19966437106035L64.0334,74.67456790974559L64.5414,70.42919265014423L65.04939999999999,74.08179537524279L65.5574,73.61254097026287L66.0654,72.04528092981396L66.5734,73.17343259597432L67.0814,77.4535334345377L67.5894,78.47707367400386L68.09740000000001,77.62266113555465L68.6054,74.58913134930155L69.1134,72.5801771128036L69.62140000000001,73.62165546201808L70.1294,74.02618816246476L70.6374,76.19225647658043L71.14540000000001,75.69560748702249L71.6534,74.42811980227208L72.1614,77.9661757754062L72.66940000000001,81.00029323379842L73.1774,76.00043778109935L73.6854,78.27361929707757L74.19340000000001,75.86362500842235L74.70139999999999,75.53078608903778L75.20939999999999,78.45542020078597L75.7174,78.82604722545203L76.2254,77.71831235626732L76.73339999999999,77.37052354657288L77.2414,75.82176725294373L77.7494,76.49323369160999L78.25739999999999,78.58886471447772L78.7654,77.73586552058117L79.2734,77.02196792074712L79.78139999999999,74.0838362700264L80.2894,77.1345488933635L80.7974,82.78636379646731L81.3054,77.78300052885695L81.8134,80.23426412346652L82.3214,80.99229675532989L82.8294,80.09681787253388L83.3374,84.5420723519383L83.8454,80.78147204885829L84.35340000000001,81.63485887628764L84.8614,82.40715647567494L85.3694,79.94868017690887L85.87740000000001,78.62627292548125L86.3854,81.08417348429268L86.8934,80.19310479858339L87.40140000000001,82.33705092846645L87.9094,84.94126986372049L88.4174,84.02836726491199L88.92540000000001,83.58124856939642L89.4334,83.52039251321987L89.9414,83.04807077404521L90.44940000000001,84.86794189069667L90.95739999999999,83.15320379408597L91.46539999999999,83.71151395125626L91.9734,86.69619914223813L92.4814,85.32578863817491L92.98939999999999,83.96527420829557L93.4974,87.65583505720392L94.0054,84.9663989835411L94.51339999999999,85.3050340922731L95.0214,84.99497083378182L95.5294,87.16539589138239L96.03739999999999,86.1793080304349L96.5454,82.94326047744062L97.0534,84.45491685775343L97.5614,85.30637723867551L98.0694,85.46925084271702L98.5774,89.72048422145052L99.0854,91.38467365054609L99.5934,89.98209630458547L100.1014,89.590873688513L100.60940000000001,89.34266050461171L101.1174,88.14101958157562L101.6254,90.90021935392583L102.13340000000001,87.84642769389848L102.6414,87.52308336194456L103.1494,92.13099601326049L103.65740000000001,90.49015278373754L104.1654,91.27191851350423L104.6734,93.14972795136427L105.18140000000001,93.95210605792795L105.6894,96.28210500438568L106.1974,92.12157074188923L106.7054,90.46554498419604L107.2134,94.44719106522466L107.72139999999999,93.12216687302151L108.2294,93.6054192644379L108.7374,95.60097128522524L109.24539999999999,96.67951953871327L109.7534,96.50283684529828L110.2614,98.44061018823365L110.76939999999999,99.71785946010816L111.2774,102.80383701395552L111.7854,99.12078578991627L112.29339999999999,98.37834885432085L112.8014,99.10765750595189L113.3094,96.2196146451727L113.8174,99.10176665087315L114.3254,102.91597820341453L114.8334,100.97085950505654L115.34140000000001,102.25902205069016L115.8494,99.46250063275785L116.3574,100.15016609010394L116.86540000000001,102.14822648511704L117.3734,99.9592831811093L117.8814,101.652747032689L118.38940000000001,105.94586483338294L118.8974,99.85875486194382L119.4054,104.69704368865067L119.91340000000001,107.68396229717477L120.4214,107.15349902137127L120.9294,110.24761210813527L121.43740000000001,105.30215124925616L121.9454,103.46754685306932L122.45339999999999,109.02248901882402L122.9614,105.68783789371628L123.4694,108.5109183734368L123.97739999999999,112.33420391712849L124.4854,108.62279346844116L124.9934,110.21320305860375L125.50139999999999,114.19284889815053L126.0094,109.20498881887079L126.5174,111.85872830719163L127.02539999999999,110.90410997015482L127.5334,111.98022049869445L128.0414,114.2077804315409L128.5494,112.83694334437374L129.0574,110.86182939773752L129.5654,116.61081239083978L130.0734,111.81412506878121L130.5814,115.73180679786051L131.0894,119.16996863071827L131.5974,117.38579984298174L132.1054,119.94498271340623L132.6134,116.05876300450859L133.1214,116.4135674340528L133.6294,121.19189717429887L134.1374,117.17009863172777L134.6454,116.94030365535502L135.1534,119.98414969199231L135.66140000000001,114.47606781812507L136.1694,117.66433179194927L136.6774,113.9076234281969L137.18540000000002,114.6870520842619L137.6934,119.68335658625048L138.2014,118.26824896761944L138.70940000000002,119.71910886543495L139.2174,123.75569780217111L139.7254,116.43704264370501L140.23340000000002,118.24148934965073L140.7414,121.99762096574747L141.2494,116.942591134136L141.75740000000002,119.10889971221988L142.2654,118.21600984075965L142.7734,117.92911045157494L143.28140000000002,121.08241622211685L143.7894,118.17907284118026L144.2974,119.16273560534293L144.80540000000002,123.64475424772723L145.3134,120.4252758579625L145.8214,120.38984691126188L146.3294,122.9456845749798L146.83739999999997,118.51384476598398L147.34539999999998,120.29775952682671L147.8534,115.08576966873272L148.36139999999997,117.1561825653998L148.86939999999998,121.93166043645668L149.3774,117.92561552456932L149.88539999999998,118.6989467378373L150.39339999999999,123.52287115549535L150.9014,119.64589752850227L151.40939999999998,118.99642996607598L151.9174,124.1125032127999L152.4254,121.88399545795338L152.9334,124.65101998595365L153.4414,120.50371486632805L153.9494,122.42236029797067L154.4574,125.69042698200505L154.9654,120.48163747582413L155.4734,120.41479638930306L155.9814,122.8289663345584L156.4894,119.7752386874538L156.9974,122.73329384723789L157.5054,124.23065623998338L158.0134,123.2065025696736L158.5214,125.13622240362056L159.0294,123.00040989480905L159.5374,120.45708202697332L160.0454,125.090548044309L160.5534,122.10420248381196L161.0614,123.0466911069864L161.5694,125.2066677708813L162.0774,119.96706066008737L162.5854,122.89315601275165L163.0934,122.55973683885216L163.6014,120.23564206058668L164.1094,123.94709538039498L164.6174,121.13832314620574L165.1254,122.13276973611212L165.6334,126.70446698693094L166.1414,119.97375929372106L166.6494,118.89933629522677L167.1574,122.28600146585677L167.6654,119.32602196105704L168.17340000000002,124.56722023229828L168.6814,118.67296061838289L169.1894,117.3058419533051L169.69740000000002,121.86568641587954L170.2054,121.52747840836562L170.7134,120.2928098294432L171.22140000000002,126.13012025435538L171.7294,124.37157648610932L172.2374,125.34112246637262L172.74540000000002,127.59514146688412L173.2534,124.98683097388047L173.7614,125.93857624546109L174.26940000000002,120.02826812276493L174.7774,119.74758816247731L175.2854,122.72216053298445L175.79340000000002,121.80387066061098L176.3014,120.60374863538026L176.8094,125.15130786653089L177.31740000000002,122.60900020453768L177.82539999999997,121.11195804508588L178.33339999999998,125.92606642861404L178.8414,123.38226400267624L179.34939999999997,125.22014819652762L179.85739999999998,121.10066145819977L180.3654,121.47221953727336L180.87339999999998,125.82339306269606L181.38139999999999,121.85876697775436L181.8894,122.54161119983621L182.39739999999998,125.61572904900328L182.9054,122.18505098531017L183.4134,120.37811692541462L183.9214,124.29711933127417L184.4294,122.95273738855941L184.9374,124.97983716580167L185.4454,121.94065544279155L185.9534,124.54084285063587L186.4614,127.90691385247138L186.9694,123.62890630708829L187.4774,123.77730304328618L187.9854,124.81294859843264L188.4934,123.78332991955764L189.0014,123.72566125129512L189.5094,123.46623995146066L190.0174,120.15216401482172L190.5254,124.76110523262349L191.0334,122.25563637565807L191.5414,121.55186494917416L192.0494,124.40036533791269L192.5574,121.66476464342145L193.0654,122.36906859440248L193.5734,124.8848652289071L194.0814,120.80686152015677L194.5894,122.81182687303156L195.0974,117.19374742997128L195.6054,115.3466302328851L196.1134,122.74707375130333L196.6214,120.9879103884773L197.1294,119.9525815907524L197.6374,124.2162192120198L198.1454,118.22336922252438L198.6534,120.5688803897158L199.16140000000001,126.25047557269667L199.6694,122.45923477599104L200.1774,122.71866098278213L200.68540000000002,121.2347833206263L201.1934,120.40797646820586L201.7014,124.98764537799383L202.20940000000002,121.99911035912052L202.7174,123.15638317714223L203.2254,127.63185877591424L203.73340000000002,124.37175091618332L204.2414,122.97931138345022L204.7494,127.73828491966974L205.25740000000002,121.63744696498543L205.7654,126.05890219998736L206.2734,122.47727537150608L206.78140000000002,122.25452760693685L207.2894,125.09330051801953L207.7974,118.25279488600704L208.30540000000002,121.66619093917257L208.8134,125.24119863332777L209.3214,120.02098901642243L209.8294,122.92114016278315L210.33739999999997,126.22944618263082L210.84539999999998,120.68812242149255L211.3534,124.2509635102686L211.86139999999997,120.88177470039943L212.36939999999998,122.22877108855022L212.8774,125.74214592339379L213.38539999999998,122.03686287141909L213.89339999999999,122.40607600532215L214.4014,125.83636944962885L214.90939999999998,123.36156272812691L215.4174,123.90819114639763L215.9254,119.35921064731124L216.4334,121.298214376668L216.9414,121.63225076955548L217.4494,121.77760592437977L217.9574,119.30852659784077L218.4654,124.53902861739587L218.9734,120.85834331789846L219.4814,120.63508304762385L219.9894,125.24450487618172L220.4974,121.78488758757427L221.0054,124.65411904546448L221.5134,122.63877452786463L222.0214,119.56856180534182L222.5294,122.54486968818557L223.0374,122.38475033463985L223.5454,121.52342649472922L224.0534,126.04709575279458L224.5614,124.34587982716502L225.0694,125.10056393755877L225.5774,128.2792995441759L226.0854,124.85432807855632L226.5934,127.54165400655762L227.1014,122.10924212927637L227.6094,122.16425270554433L228.1174,126.74554152200824L228.6254,120.62706673449401L229.1334,122.23161449138L229.6414,124.51622867407605L230.1494,120.94913463486554L230.6574,122.63895145352674L231.1654,126.37613591728207L231.67340000000002,123.19406396614073L232.1814,126.52114678422544L232.6894,123.66534950852356L233.19740000000002,123.31353221487976L233.7054,126.32960355133996L234.2134,122.25628233344071L234.72140000000002,122.85482012027926L235.2294,127.1304778265621L235.7374,123.28828120277319L236.24540000000002,125.57611722019908L236.7534,128.4959623853421L237.2614,124.11361747026776L237.76940000000002,126.27964310789308L238.2774,122.34866293993116L238.7854,123.81537467435909L239.29340000000002,126.979790447926L239.8014,124.77148877070871L240.3094,125.5723614936264L240.81740000000002,128.41487884075593L241.32539999999997,126.74518035621136L241.83339999999998,126.82161077720338L242.3414,123.8237336782361L242.84939999999997,123.37788324283034L243.35739999999998,125.57731222108882L243.8654,122.56845184681345L244.37339999999998,121.30645059417205" style="fill: none;" fill="none"></path></g></g></g></g><g opacity="0.2"><g><g><g><path stroke="rgb(255, 112, 67)" stroke-width="2px" d="M25.4254,29.828271484374994L25.9334,50.58847961425781L26.441399999999998,52.660890197753915L26.9494,57.30782165527344L27.4574,46.03093872070312L27.965400000000002,48.80717315673829L28.4734,55.072993469238284L28.981399999999997,52.519279479980455L29.4894,62.5441390991211L29.9974,54.24407196044922L30.505399999999998,42.16620941162108L31.0134,59.284123229980466L31.5214,54.1959213256836L32.029399999999995,48.191383361816406L32.5374,57.02201538085937L33.0454,59.81043701171875L33.553399999999996,50.026832580566406L34.0614,54.484472656250006L34.5694,59.72209320068359L35.0774,57.36339569091797L35.5854,69.09554672241211L36.0934,56.885467529296875L36.6014,54.019105529785165L37.1094,60.70614776611329L37.6174,62.44993133544922L38.125400000000006,65.29532623291016L38.6334,58.630735778808585L39.1414,60.41157226562501L39.6494,52.51108703613281L40.157399999999996,56.26687927246094L40.6654,57.53499908447266L41.1734,68.08913650512696L41.6814,65.84558715820313L42.1894,66.75765075683593L42.6974,68.52647094726562L43.2054,55.061500549316406L43.7134,64.89864959716796L44.2214,65.75739288330078L44.7294,63.507450866699216L45.2374,63.335729980468756L45.745400000000004,61.31652221679688L46.253400000000006,55.50538787841798L46.7614,67.35546417236328L47.2694,68.93979415893556L47.7774,66.47032775878905L48.285399999999996,64.57548065185547L48.7934,71.39015197753906L49.3014,62.97608489990235L49.8094,62.02643432617188L50.3174,72.13731460571289L50.8254,64.21077270507811L51.3334,69.35898132324218L51.8414,75.18266067504884L52.3494,72.33578109741211L52.8574,70.99569702148438L53.3654,63.98936309814454L53.873400000000004,72.29634094238281L54.381400000000006,75.050732421875L54.889399999999995,68.41784362792968L55.3974,70.53073043823242L55.9054,70.04041213989258L56.413399999999996,74.70340270996094L56.9214,65.92064361572265L57.4294,69.82734451293945L57.9374,57.235980224609364L58.4454,70.71067581176759L58.9534,72.76615676879884L59.4614,72.46927947998047L59.9694,71.18764266967773L60.4774,68.01228027343751L60.9854,75.04312744140626L61.4934,85.09090881347656L62.001400000000004,76.02574005126952L62.50940000000001,74.16397781372069L63.017399999999995,69.1469871520996L63.5254,68.3962142944336L64.0334,79.88692321777344L64.5414,64.06112976074218L65.04939999999999,79.56069946289064L65.5574,72.90865936279296L66.0654,69.69439086914062L66.5734,74.86566009521485L67.0814,83.87368469238282L67.5894,80.01238403320312L68.09740000000001,76.34104232788086L68.6054,70.03883666992188L69.1134,69.56674575805664L69.62140000000001,75.18387298583984L70.1294,74.63298721313475L70.6374,79.44135894775391L71.14540000000001,74.95063400268555L71.6534,72.52688827514648L72.1614,83.27325973510743L72.66940000000001,85.55146942138673L73.1774,68.50065460205079L73.6854,81.68339157104494L74.19340000000001,72.24863357543946L74.70139999999999,75.03152770996093L75.20939999999999,82.84237136840821L75.7174,79.38198776245117L76.2254,76.05671005249025L76.73339999999999,76.84884033203126L77.2414,73.4986328125L77.7494,77.50043334960938L78.25739999999999,81.73231124877931L78.7654,76.45636672973633L79.2734,75.9511215209961L79.78139999999999,69.6766387939453L80.2894,81.71061782836914L80.7974,91.26408615112304L81.3054,70.2779556274414L81.8134,83.91115951538086L82.3214,82.129345703125L82.8294,78.75359954833985L83.3374,91.20995407104492L83.8454,75.14057159423828L84.35340000000001,82.91493911743164L84.8614,83.56560287475585L85.3694,76.26096572875977L85.87740000000001,76.64266204833983L86.3854,84.77102432250976L86.8934,78.85650177001953L87.40140000000001,85.55297012329102L87.9094,88.84759826660157L88.4174,82.65901336669921L88.92540000000001,82.91057052612305L89.4334,83.42910842895508L89.9414,82.3395881652832L90.44940000000001,87.59774856567383L90.95739999999999,80.58109664916992L91.46539999999999,84.54897918701172L91.9734,91.17322692871095L92.4814,83.27017288208008L92.98939999999999,81.92450256347655L93.4974,93.19167633056641L94.0054,80.93224487304688L94.51339999999999,85.8129867553711L95.0214,84.52987594604492L95.5294,90.4210334777832L96.03739999999999,84.70017623901367L96.5454,78.08918914794923L97.0534,86.72240142822267L97.5614,86.58356781005858L98.0694,85.7135612487793L98.5774,96.09733428955079L99.0854,93.88095779418946L99.5934,87.87823028564453L100.1014,89.0040397644043L100.60940000000001,88.97034072875977L101.1174,86.3385581970215L101.6254,95.03901901245116L102.13340000000001,83.26574020385742L102.6414,87.03806686401367L103.1494,99.04286499023438L103.65740000000001,88.02888793945313L104.1654,92.4445671081543L104.6734,95.9664421081543L105.18140000000001,95.15567321777344L105.6894,99.77710342407227L106.1974,85.88076934814454L106.7054,87.98150634765625L107.2134,100.41966018676757L107.72139999999999,91.13463058471679L108.2294,94.33029785156249L108.7374,98.59429931640625L109.24539999999999,98.2973419189453L109.7534,96.23781280517578L110.2614,101.34727020263672L110.76939999999999,101.63373336791992L111.2774,107.43280334472657L111.7854,93.59620895385741L112.29339999999999,97.26469345092774L112.8014,100.20162048339844L113.3094,91.8875503540039L113.8174,103.42499465942383L114.3254,108.63729553222656L114.8334,98.05318145751953L115.34140000000001,104.19126586914062L115.8494,95.26771850585938L116.3574,101.18166427612304L116.86540000000001,105.14531707763672L117.3734,96.67586822509766L117.8814,104.1929428100586L118.38940000000001,112.38554153442382L118.8974,90.72808990478515L119.4054,111.95447692871093L119.91340000000001,112.16434020996093L120.4214,106.35780410766601L120.9294,114.88878173828125L121.43740000000001,97.8839599609375L121.9454,100.71564025878907L122.45339999999999,117.35490226745605L122.9614,100.68586120605468L123.4694,112.74553909301758L123.97739999999999,118.06913223266602L124.4854,103.05567779541016L124.9934,112.59881744384765L125.50139999999999,120.16231765747071L126.0094,101.72319869995117L126.5174,115.83933753967285L127.02539999999999,109.47218246459961L127.5334,113.59438629150391L128.0414,117.54912033081055L128.5494,110.78068771362305L129.0574,107.8991584777832L129.5654,125.23428688049316L130.0734,104.61909408569336L130.5814,121.60832939147949L131.0894,124.32721138000488L131.5974,114.70954666137695L132.1054,123.78375701904297L132.6134,110.2294334411621L133.1214,116.94577407836914L133.6294,128.35939178466796L134.1374,111.1374008178711L134.6454,116.59561119079589L135.1534,124.54991874694824L135.66140000000001,106.21394500732421L136.1694,122.44672775268555L136.6774,108.27256088256836L137.18540000000002,115.85619506835937L137.6934,127.1778133392334L138.2014,116.14558753967285L138.70940000000002,121.8953987121582L139.2174,129.8105812072754L139.7254,105.45905990600586L140.23340000000002,120.94815940856932L140.7414,127.63181838989257L141.2494,109.36004638671875L141.75740000000002,122.35836257934571L142.2654,116.87667503356934L142.7734,117.49876136779784L143.28140000000002,125.81237487792968L143.7894,113.82405776977538L144.2974,120.63822975158692L144.80540000000002,130.3677822113037L145.3134,115.59605827331544L145.8214,120.33670349121093L146.3294,126.77944107055663L146.83739999999997,111.86608505249023L147.34539999999998,122.97363166809082L147.8534,107.26778488159181L148.36139999999997,120.26180191040038L148.86939999999998,129.094877243042L149.3774,111.91654815673829L149.88539999999998,119.85894355773925L150.39339999999999,130.7587577819824L150.9014,113.8304370880127L151.40939999999998,118.02222862243653L151.9174,131.78661308288574L152.4254,118.54123382568359L152.9334,128.8015567779541L153.4414,114.28275718688965L153.9494,125.30032844543457L154.4574,130.59252700805663L154.9654,112.66845321655273L155.4734,120.31453475952148L155.9814,126.45022125244141L156.4894,115.19464721679688L156.9974,127.17037658691407L157.5054,126.47669982910156L158.0134,121.67027206420897L158.5214,128.03080215454102L159.0294,119.79669113159179L159.5374,116.64209022521973L160.0454,132.0407470703125L160.5534,117.62468414306642L161.0614,124.46042404174804L161.5694,128.44663276672364L162.0774,112.10764999389647L162.5854,127.28229904174805L163.0934,122.05960807800292L163.6014,116.74949989318847L164.1094,129.51427536010743L164.6174,116.92516479492187L165.1254,123.62443962097169L165.6334,133.56201286315917L166.1414,109.87769775390625L166.6494,117.28770179748535L167.1574,127.36599922180176L167.6654,114.88605270385742L168.17340000000002,132.42901763916015L168.6814,109.83157119750976L169.1894,115.25516395568847L169.69740000000002,128.7054531097412L170.2054,121.02016639709473L170.7134,118.44080696105956L171.22140000000002,134.88608589172364L171.7294,121.73376083374023L172.2374,126.79544143676759L172.74540000000002,130.97616996765137L173.2534,121.074365234375L173.7614,127.36619415283204L174.26940000000002,111.16280593872071L174.7774,119.32656822204589L175.2854,127.18401908874512L175.79340000000002,120.42643585205079L176.3014,118.80356559753417L176.8094,131.97264671325684L177.31740000000002,118.79553871154785L177.82539999999997,118.8663948059082L178.33339999999998,133.14722900390626L178.8414,119.56656036376953L179.34939999999997,127.97697448730469L179.85739999999998,114.92143135070802L180.3654,122.0295566558838L180.87339999999998,132.35015335083008L181.38139999999999,115.91182785034181L181.8894,123.56587753295898L182.39739999999998,130.2269058227539L182.9054,117.03903388977051L183.4134,117.66771583557129L183.9214,130.17562294006348L184.4294,120.9361644744873L184.9374,128.02048683166504L185.4454,117.38188285827636L185.9534,128.44112396240234L186.4614,132.9560203552246L186.9694,117.21189498901367L187.4774,123.99989814758301L187.9854,126.36641693115234L188.4934,122.23890190124511L189.0014,123.63915824890137L189.5094,123.07710800170898L190.0174,115.18105010986328L190.5254,131.67451705932618L191.0334,118.49743309020997L191.5414,120.49620780944824L192.0494,128.6731159210205L192.5574,117.56136360168458L193.0654,123.42552452087402L193.5734,128.65856018066407L194.0814,114.68985595703126L194.5894,125.81927490234375L195.0974,108.76662826538086L195.6054,112.57595443725586L196.1134,133.84773902893068L196.6214,118.34916534423829L197.1294,118.39958839416505L197.6374,130.6116756439209L198.1454,109.23409423828124L198.6534,124.08714714050294L199.16140000000001,134.77286834716796L199.6694,116.77237358093262L200.1774,123.10780029296875L200.68540000000002,119.00896682739258L201.1934,119.16776618957519L201.7014,131.85714874267578L202.20940000000002,117.51630783081055L202.7174,124.89229240417481L203.2254,134.34507217407227L203.73340000000002,119.48158912658691L204.2414,120.89065208435059L204.7494,134.87674522399902L205.25740000000002,112.48619003295899L205.7654,132.69108505249022L206.2734,117.10483512878417L206.78140000000002,121.920405960083L207.2894,129.35145988464356L207.7974,107.99203643798829L208.30540000000002,126.78628501892089L208.8134,130.60371017456055L209.3214,112.19067459106445L209.8294,127.27136688232422L210.33739999999997,131.19190521240233L210.84539999999998,112.37613677978516L211.3534,129.59522514343263L211.86139999999997,115.8279914855957L212.36939999999998,124.24926567077637L212.8774,131.01220817565917L213.38539999999998,116.47893829345703L213.89339999999999,122.95989570617675L214.4014,130.98180961608887L214.90939999999998,119.64935264587402L215.4174,124.7281337738037L215.9254,112.53573989868164L216.4334,124.20671997070312L216.9414,122.13330535888672L217.4494,121.99563865661621L217.9574,115.60490760803222L218.4654,132.38478164672853L218.9734,115.33731536865234L219.4814,120.30019264221191L219.9894,132.15863761901855L220.4974,116.59546165466308L221.0054,128.9579662322998L221.5134,119.61575775146486L222.0214,114.96324272155762L222.5294,127.00933151245117L223.0374,122.14457130432129L223.5454,120.23144073486328L224.0534,132.83259963989258L224.5614,121.7940559387207L225.0694,126.23259010314942L225.5774,133.04740295410156L226.0854,119.71687088012695L226.5934,131.57264289855956L227.1014,113.96062431335449L227.6094,122.24676856994628L228.1174,133.6174747467041L228.6254,111.44935455322266L229.1334,124.638436126709L229.6414,127.94314994812012L230.1494,115.5984935760498L230.6574,125.17367668151856L231.1654,131.98191261291504L231.67340000000002,118.42095603942872L232.1814,131.51177101135255L232.6894,119.3816535949707L233.19740000000002,122.78580627441406L233.7054,130.85371055603028L234.2134,116.1463005065918L234.72140000000002,123.75262680053712L235.2294,133.54396438598633L235.7374,117.52498626708984L236.24540000000002,129.00787124633788L236.7534,132.87573013305663L237.2614,117.54010009765625L237.76940000000002,129.52868156433107L238.2774,116.45219268798829L238.7854,126.01544227600098L239.29340000000002,131.72641410827637L239.8014,121.45903625488282L240.3094,126.77367057800294L240.81740000000002,132.67865486145018L241.32539999999997,124.24063262939453L241.83339999999998,126.9362564086914L242.3414,119.32691802978516L242.84939999999997,122.70910758972167L243.35739999999998,128.87645568847657L243.8654,118.0551612854004L244.37339999999998,119.41344871520997" style="fill: none;" fill="none"></path></g></g></g></g></g></g><g transform="translate(76, 175)" clip-path="url(#clip_1)"><clipPath id="clip_1"><rect width="254" height="25"></rect></clipPath><g><g><line x1="0" y1="0" x2="0" y2="5" style="visibility: inherit;" fill="rgb(0, 0, 0)" stroke="rgb(204, 204, 204)" stroke-width="1px"></line><line x1="25.400000000000002" y1="0" x2="25.400000000000002" y2="5" style="visibility: inherit;" fill="rgb(0, 0, 0)" stroke="rgb(204, 204, 204)" stroke-width="1px"></line><line x1="50.800000000000004" y1="0" x2="50.800000000000004" y2="5" style="visibility: inherit;" fill="rgb(0, 0, 0)" stroke="rgb(204, 204, 204)" stroke-width="1px"></line><line x1="76.2" y1="0" x2="76.2" y2="5" style="visibility: inherit;" fill="rgb(0, 0, 0)" stroke="rgb(204, 204, 204)" stroke-width="1px"></line><line x1="101.60000000000001" y1="0" x2="101.60000000000001" y2="5" style="visibility: inherit;" fill="rgb(0, 0, 0)" stroke="rgb(204, 204, 204)" stroke-width="1px"></line><line x1="127" y1="0" x2="127" y2="5" style="visibility: inherit;" fill="rgb(0, 0, 0)" stroke="rgb(204, 204, 204)" stroke-width="1px"></line><line x1="152.4" y1="0" x2="152.4" y2="5" style="visibility: inherit;" fill="rgb(0, 0, 0)" stroke="rgb(204, 204, 204)" stroke-width="1px"></line><line x1="177.79999999999998" y1="0" x2="177.79999999999998" y2="5" style="visibility: inherit;" fill="rgb(0, 0, 0)" stroke="rgb(204, 204, 204)" stroke-width="1px"></line><line x1="203.20000000000002" y1="0" x2="203.20000000000002" y2="5" style="visibility: inherit;" fill="rgb(0, 0, 0)" stroke="rgb(204, 204, 204)" stroke-width="1px"></line><line x1="228.6" y1="0" x2="228.6" y2="5" style="visibility: inherit;" fill="rgb(0, 0, 0)" stroke="rgb(204, 204, 204)" stroke-width="1px"></line><line x1="254" y1="0" x2="254" y2="5" style="visibility: inherit;" fill="rgb(0, 0, 0)" stroke="rgb(204, 204, 204)" stroke-width="1px"></line></g><g transform="translate(0, 8)"><text x="0" y="0" dx="0em" dy="0.95em" style="text-anchor: middle; visibility: hidden; font-family: &quot;Helvetica Neue&quot;, sans-serif; font-size: 12px; font-weight: 200;" fill="rgb(50, 49, 63)" stroke="none" stroke-width="1px">-1k</text><text x="25.400000000000002" y="0" dx="0em" dy="0.95em" style="text-anchor: middle; visibility: inherit; font-family: &quot;Helvetica Neue&quot;, sans-serif; font-size: 12px; font-weight: 200;" fill="rgb(50, 49, 63)" stroke="none" stroke-width="1px">0</text><text x="50.800000000000004" y="0" dx="0em" dy="0.95em" style="text-anchor: middle; visibility: inherit; font-family: &quot;Helvetica Neue&quot;, sans-serif; font-size: 12px; font-weight: 200;" fill="rgb(50, 49, 63)" stroke="none" stroke-width="1px">1k</text><text x="76.2" y="0" dx="0em" dy="0.95em" style="text-anchor: middle; visibility: inherit; font-family: &quot;Helvetica Neue&quot;, sans-serif; font-size: 12px; font-weight: 200;" fill="rgb(50, 49, 63)" stroke="none" stroke-width="1px">2k</text><text x="101.60000000000001" y="0" dx="0em" dy="0.95em" style="text-anchor: middle; visibility: inherit; font-family: &quot;Helvetica Neue&quot;, sans-serif; font-size: 12px; font-weight: 200;" fill="rgb(50, 49, 63)" stroke="none" stroke-width="1px">3k</text><text x="127" y="0" dx="0em" dy="0.95em" style="text-anchor: middle; visibility: inherit; font-family: &quot;Helvetica Neue&quot;, sans-serif; font-size: 12px; font-weight: 200;" fill="rgb(50, 49, 63)" stroke="none" stroke-width="1px">4k</text><text x="152.4" y="0" dx="0em" dy="0.95em" style="text-anchor: middle; visibility: inherit; font-family: &quot;Helvetica Neue&quot;, sans-serif; font-size: 12px; font-weight: 200;" fill="rgb(50, 49, 63)" stroke="none" stroke-width="1px">5k</text><text x="177.79999999999998" y="0" dx="0em" dy="0.95em" style="text-anchor: middle; visibility: inherit; font-family: &quot;Helvetica Neue&quot;, sans-serif; font-size: 12px; font-weight: 200;" fill="rgb(50, 49, 63)" stroke="none" stroke-width="1px">6k</text><text x="203.20000000000002" y="0" dx="0em" dy="0.95em" style="text-anchor: middle; visibility: inherit; font-family: &quot;Helvetica Neue&quot;, sans-serif; font-size: 12px; font-weight: 200;" fill="rgb(50, 49, 63)" stroke="none" stroke-width="1px">7k</text><text x="228.6" y="0" dx="0em" dy="0.95em" style="text-anchor: middle; visibility: inherit; font-family: &quot;Helvetica Neue&quot;, sans-serif; font-size: 12px; font-weight: 200;" fill="rgb(50, 49, 63)" stroke="none" stroke-width="1px">8k</text><text x="254" y="0" dx="0em" dy="0.95em" style="text-anchor: middle; visibility: hidden; font-family: &quot;Helvetica Neue&quot;, sans-serif; font-size: 12px; font-weight: 200;" fill="rgb(50, 49, 63)" stroke="none" stroke-width="1px">9k</text></g><line x1="0" y1="0" x2="254" y2="0" fill="rgb(0, 0, 0)" stroke="rgb(204, 204, 204)" stroke-width="1px"></line></g></g></g></g></svg>