<?xml version="1.0" encoding="UTF-8" standalone="no"?>
<svg
   xmlns:dc="http://purl.org/dc/elements/1.1/"
   xmlns:cc="http://creativecommons.org/ns#"
   xmlns:rdf="http://www.w3.org/1999/02/22-rdf-syntax-ns#"
   xmlns:svg="http://www.w3.org/2000/svg"
   xmlns="http://www.w3.org/2000/svg"
   xmlns:sodipodi="http://sodipodi.sourceforge.net/DTD/sodipodi-0.dtd"
   xmlns:inkscape="http://www.inkscape.org/namespaces/inkscape"
   version="1.1"
   viewBox="0 0 365.67135 264.426"
   stroke-miterlimit="10"
   id="svg175"
   sodipodi:docname="ImageVAE_Arch1.svg"
   inkscape:version="0.92.4 5da689c313, 2019-01-14"
   width="365.67136"
   height="264.42599"
   style="fill:none;stroke:none;stroke-linecap:square;stroke-miterlimit:10">
  <metadata
     id="metadata181">
    <rdf:RDF>
      <cc:Work
         rdf:about="">
        <dc:format>image/svg+xml</dc:format>
        <dc:type
           rdf:resource="http://purl.org/dc/dcmitype/StillImage" />
        <dc:title />
      </cc:Work>
    </rdf:RDF>
  </metadata>
  <defs
     id="defs179" />
  <sodipodi:namedview
     pagecolor="#ffffff"
     bordercolor="#666666"
     borderopacity="1"
     objecttolerance="10"
     gridtolerance="10"
     guidetolerance="10"
     inkscape:pageopacity="0"
     inkscape:pageshadow="2"
     inkscape:window-width="1920"
     inkscape:window-height="1012"
     id="namedview177"
     showgrid="false"
     inkscape:zoom="1.3875"
     inkscape:cx="8.6326025"
     inkscape:cy="179.6581"
     inkscape:window-x="0"
     inkscape:window-y="32"
     inkscape:window-maximized="1"
     inkscape:current-layer="g173"
     fit-margin-top="0"
     fit-margin-left="0"
     fit-margin-right="0"
     fit-margin-bottom="0"
     inkscape:snap-global="true" />
  <clipPath
     id="g7a9afec926_0_40.0">
    <path
       d="M 0,0 H 960 V 540 H 0 Z"
       id="path2"
       inkscape:connector-curvature="0"
       style="clip-rule:nonzero" />
  </clipPath>
  <g
     clip-path="url(#g7a9afec926_0_40.0)"
     id="g173"
     transform="translate(-347.787,-189.06151)">
    <g
       id="g1069"
       transform="translate(-170)">
      <path
         style="fill:#eeeeee;fill-rule:evenodd"
         inkscape:connector-curvature="0"
         id="path7"
         d="M 557.98441,189.38929 H 695.1843 v 28.01205 H 557.98441 Z" />
      <path
         style="fill-rule:evenodd;stroke:#595959;stroke-width:1;stroke-linecap:butt;stroke-linejoin:round"
         inkscape:connector-curvature="0"
         id="path9"
         d="M 557.98441,189.38929 H 695.1843 v 28.01205 H 557.98441 Z" />
      <path
         style="fill:#000000;fill-rule:nonzero"
         inkscape:connector-curvature="0"
         id="path11"
         d="m 593.5754,205.11969 0.9375,-0.125 q 0.15625,0.79687 0.54688,1.15625 0.39062,0.34375 0.9375,0.34375 0.65625,0 1.10937,-0.45313 0.46875,-0.46875 0.46875,-1.14062 0,-0.64063 -0.42187,-1.0625 -0.42188,-0.42188 -1.07813,-0.42188 -0.26562,0 -0.65625,0.10938 l 0.10938,-0.82813 q 0.0937,0.0156 0.14062,0.0156 0.59375,0 1.07813,-0.3125 0.48437,-0.3125 0.48437,-0.96875 0,-0.51563 -0.35937,-0.84375 -0.34375,-0.34375 -0.89063,-0.34375 -0.54687,0 -0.92187,0.34375 -0.35938,0.34375 -0.45313,1.03125 l -0.9375,-0.17188 q 0.17188,-0.9375 0.78125,-1.45312 0.60938,-0.51563 1.5,-0.51563 0.625,0 1.15625,0.26563 0.53125,0.26562 0.79688,0.73437 0.28125,0.45313 0.28125,0.98438 0,0.48437 -0.26563,0.89062 -0.26562,0.40625 -0.78125,0.65625 0.67188,0.15625 1.04688,0.65625 0.375,0.48438 0.375,1.21875 0,1 -0.73438,1.70313 -0.71875,0.6875 -1.82812,0.6875 -1,0 -1.67188,-0.59375 -0.65625,-0.60938 -0.75,-1.5625 z m 5.5515,2.01562 2.01562,-2.875 -1.85937,-2.65625 h 1.17187 l 0.84375,1.29688 q 0.23438,0.375 0.39063,0.625 0.21875,-0.34375 0.40625,-0.60938 l 0.9375,-1.3125 h 1.125 l -1.92188,2.60938 2.0625,2.92187 h -1.15625 l -1.125,-1.71875 -0.29687,-0.46875 -1.45313,2.1875 z m 5.70312,-2.01562 0.9375,-0.125 q 0.15625,0.79687 0.54688,1.15625 0.39062,0.34375 0.9375,0.34375 0.65625,0 1.10937,-0.45313 0.46875,-0.46875 0.46875,-1.14062 0,-0.64063 -0.42187,-1.0625 -0.42188,-0.42188 -1.07813,-0.42188 -0.26562,0 -0.65625,0.10938 l 0.10938,-0.82813 q 0.0937,0.0156 0.14062,0.0156 0.59375,0 1.07813,-0.3125 0.48437,-0.3125 0.48437,-0.96875 0,-0.51563 -0.35937,-0.84375 -0.34375,-0.34375 -0.89063,-0.34375 -0.54687,0 -0.92187,0.34375 -0.35938,0.34375 -0.45313,1.03125 l -0.9375,-0.17188 q 0.17188,-0.9375 0.78125,-1.45312 0.60938,-0.51563 1.5,-0.51563 0.625,0 1.15625,0.26563 0.53125,0.26562 0.79688,0.73437 0.28125,0.45313 0.28125,0.98438 0,0.48437 -0.26563,0.89062 -0.26562,0.40625 -0.78125,0.65625 0.67188,0.15625 1.04688,0.65625 0.375,0.48438 0.375,1.21875 0,1 -0.73438,1.70313 -0.71875,0.6875 -1.82812,0.6875 -1,0 -1.67188,-0.59375 -0.65625,-0.60938 -0.75,-1.5625 z m 6.4265,2.01562 v -1.0625 h 1.0625 v 1.0625 q 0,0.59375 -0.21875,0.95313 -0.20312,0.35937 -0.65625,0.5625 l -0.25,-0.40625 q 0.29688,-0.125 0.4375,-0.39063 0.14063,-0.25 0.15625,-0.71875 z m 5.4213,-2.01562 0.9375,-0.125 q 0.15625,0.79687 0.54687,1.15625 0.39063,0.34375 0.9375,0.34375 0.65625,0 1.10938,-0.45313 0.46875,-0.46875 0.46875,-1.14062 0,-0.64063 -0.42188,-1.0625 -0.42187,-0.42188 -1.07812,-0.42188 -0.26563,0 -0.65625,0.10938 l 0.10937,-0.82813 q 0.0937,0.0156 0.14063,0.0156 0.59375,0 1.07812,-0.3125 0.48438,-0.3125 0.48438,-0.96875 0,-0.51563 -0.35938,-0.84375 -0.34375,-0.34375 -0.89062,-0.34375 -0.54688,0 -0.92188,0.34375 -0.35937,0.34375 -0.45312,1.03125 l -0.9375,-0.17188 q 0.17187,-0.9375 0.78125,-1.45312 0.60937,-0.51563 1.5,-0.51563 0.625,0 1.15625,0.26563 0.53125,0.26562 0.79687,0.73437 0.28125,0.45313 0.28125,0.98438 0,0.48437 -0.26562,0.89062 -0.26563,0.40625 -0.78125,0.65625 0.67187,0.15625 1.04687,0.65625 0.375,0.48438 0.375,1.21875 0,1 -0.73437,1.70313 -0.71875,0.6875 -1.82813,0.6875 -1,0 -1.67187,-0.59375 -0.65625,-0.60938 -0.75,-1.5625 z m 10.83274,1.10937 v 0.90625 h -5.03125 q -0.0156,-0.34375 0.10938,-0.65625 0.1875,-0.51562 0.60937,-1.01562 0.42188,-0.5 1.23438,-1.14063 1.23437,-1.03125 1.67187,-1.625 0.4375,-0.59375 0.4375,-1.125 0,-0.5625 -0.40625,-0.9375 -0.39062,-0.39062 -1.03125,-0.39062 -0.67187,0 -1.07812,0.40625 -0.40625,0.40625 -0.40625,1.125 l -0.96875,-0.0937 q 0.0937,-1.07813 0.73437,-1.64063 0.65625,-0.5625 1.73438,-0.5625 1.10937,0 1.75,0.60938 0.64062,0.60937 0.64062,1.5 0,0.46875 -0.1875,0.90625 -0.1875,0.4375 -0.625,0.9375 -0.4375,0.48437 -1.45312,1.32812 -0.82813,0.71875 -1.07813,0.96875 -0.23437,0.25 -0.39062,0.5 z m 4.40278,0.90625 v -7.625 h 5.14062 v 0.89063 h -4.125 v 2.375 h 3.57813 v 0.89062 h -3.57813 v 3.46875 z m 6.33738,-6.54687 v -1.07813 h 0.9375 v 1.07813 z m 0,6.54687 v -5.53125 h 0.9375 v 5.53125 z m 2.35186,0 v -7.625 h 0.9375 v 7.625 z m 4.42997,-0.84375 0.125,0.82813 q -0.39062,0.0937 -0.70312,0.0937 -0.5,0 -0.78125,-0.15625 -0.28125,-0.17188 -0.40625,-0.4375 -0.10938,-0.26563 -0.10938,-1.10938 v -3.17187 h -0.6875 v -0.73438 h 0.6875 v -1.35937 l 0.9375,-0.5625 v 1.92187 h 0.9375 v 0.73438 h -0.9375 v 3.23437 q 0,0.39063 0.0469,0.51563 0.0469,0.10937 0.15625,0.1875 0.10937,0.0625 0.32812,0.0625 0.15625,0 0.40625,-0.0469 z m 4.69503,-0.9375 0.96875,0.125 q -0.23438,0.84375 -0.85938,1.3125 -0.60937,0.46875 -1.57812,0.46875 -1.20313,0 -1.92188,-0.75 -0.70312,-0.75 -0.70312,-2.09375 0,-1.39062 0.71875,-2.15625 0.71875,-0.78125 1.85937,-0.78125 1.10938,0 1.8125,0.76563 0.70313,0.75 0.70313,2.125 0,0.0781 0,0.23437 h -4.125 q 0.0469,0.92188 0.51562,1.40625 0.46875,0.48438 1.15625,0.48438 0.51563,0 0.875,-0.26563 0.35938,-0.28125 0.57813,-0.875 z m -3.07813,-1.51562 h 3.09375 q -0.0625,-0.6875 -0.35937,-1.04688 -0.45313,-0.53125 -1.15625,-0.53125 -0.64063,0 -1.09375,0.4375 -0.4375,0.42188 -0.48438,1.14063 z m 5.20775,3.29687 v -5.53125 h 0.84375 v 0.84375 q 0.32812,-0.59375 0.59375,-0.78125 0.28125,-0.1875 0.60937,-0.1875 0.46875,0 0.95313,0.3125 l -0.3125,0.85938 q -0.34375,-0.20313 -0.6875,-0.20313 -0.3125,0 -0.5625,0.1875 -0.23438,0.1875 -0.34375,0.51563 -0.15625,0.5 -0.15625,1.09375 v 2.89062 z m 3.18924,-1.65625 0.92187,-0.14062 q 0.0781,0.5625 0.4375,0.85937 0.35938,0.29688 1,0.29688 0.64063,0 0.95313,-0.26563 0.3125,-0.26562 0.3125,-0.625 0,-0.3125 -0.28125,-0.5 -0.1875,-0.125 -0.95313,-0.3125 -1.03125,-0.26562 -1.4375,-0.45312 -0.39062,-0.1875 -0.59375,-0.51563 -0.20312,-0.34375 -0.20312,-0.75 0,-0.35937 0.17187,-0.67187 0.17188,-0.32813 0.45313,-0.53125 0.21875,-0.15625 0.59375,-0.26563 0.39062,-0.125 0.8125,-0.125 0.65625,0 1.14062,0.1875 0.5,0.1875 0.73438,0.51563 0.23437,0.3125 0.3125,0.85937 l -0.90625,0.125 q -0.0625,-0.4375 -0.375,-0.67187 -0.29688,-0.23438 -0.82813,-0.23438 -0.65625,0 -0.9375,0.21875 -0.26562,0.20313 -0.26562,0.48438 0,0.1875 0.10937,0.32812 0.125,0.15625 0.35938,0.25 0.14062,0.0625 0.82812,0.25 1,0.26563 1.39063,0.4375 0.39062,0.15625 0.60937,0.48438 0.23438,0.3125 0.23438,0.79687 0,0.46875 -0.28125,0.89063 -0.26563,0.40625 -0.78125,0.64062 -0.51563,0.21875 -1.17188,0.21875 -1.07812,0 -1.64062,-0.4375 -0.5625,-0.45312 -0.71875,-1.34375 z" />
      <path
         style="fill:#eeeeee;fill-rule:evenodd"
         inkscape:connector-curvature="0"
         id="path13"
         d="m 574.65765,255.79446 h 103.85342 v 28.01208 H 574.65765 Z" />
      <path
         style="fill-rule:evenodd;stroke:#595959;stroke-width:1;stroke-linecap:butt;stroke-linejoin:round"
         inkscape:connector-curvature="0"
         id="path15"
         d="m 574.65765,255.79446 h 103.85342 v 28.01208 H 574.65765 Z" />
      <path
         style="fill:#000000;fill-rule:nonzero"
         inkscape:connector-curvature="0"
         id="path17"
         d="m 593.5754,271.52487 0.9375,-0.125 q 0.15625,0.79687 0.54688,1.15625 0.39062,0.34375 0.9375,0.34375 0.65625,0 1.10937,-0.45313 0.46875,-0.46875 0.46875,-1.14062 0,-0.64063 -0.42187,-1.0625 -0.42188,-0.42188 -1.07813,-0.42188 -0.26562,0 -0.65625,0.10938 l 0.10938,-0.82813 q 0.0937,0.0156 0.14062,0.0156 0.59375,0 1.07813,-0.3125 0.48437,-0.3125 0.48437,-0.96875 0,-0.51563 -0.35937,-0.84375 -0.34375,-0.34375 -0.89063,-0.34375 -0.54687,0 -0.92187,0.34375 -0.35938,0.34375 -0.45313,1.03125 l -0.9375,-0.17188 q 0.17188,-0.9375 0.78125,-1.45312 0.60938,-0.51563 1.5,-0.51563 0.625,0 1.15625,0.26563 0.53125,0.26562 0.79688,0.73437 0.28125,0.45313 0.28125,0.98438 0,0.48437 -0.26563,0.89062 -0.26562,0.40625 -0.78125,0.65625 0.67188,0.15625 1.04688,0.65625 0.375,0.48438 0.375,1.21875 0,1 -0.73438,1.70313 -0.71875,0.6875 -1.82812,0.6875 -1,0 -1.67188,-0.59375 -0.65625,-0.60938 -0.75,-1.5625 z m 5.5515,2.01562 2.01562,-2.875 -1.85937,-2.65625 h 1.17187 l 0.84375,1.29688 q 0.23438,0.375 0.39063,0.625 0.21875,-0.34375 0.40625,-0.60938 l 0.9375,-1.3125 h 1.125 l -1.92188,2.60938 2.0625,2.92187 h -1.15625 l -1.125,-1.71875 -0.29687,-0.46875 -1.45313,2.1875 z m 5.70312,-2.01562 0.9375,-0.125 q 0.15625,0.79687 0.54688,1.15625 0.39062,0.34375 0.9375,0.34375 0.65625,0 1.10937,-0.45313 0.46875,-0.46875 0.46875,-1.14062 0,-0.64063 -0.42187,-1.0625 -0.42188,-0.42188 -1.07813,-0.42188 -0.26562,0 -0.65625,0.10938 l 0.10938,-0.82813 q 0.0937,0.0156 0.14062,0.0156 0.59375,0 1.07813,-0.3125 0.48437,-0.3125 0.48437,-0.96875 0,-0.51563 -0.35937,-0.84375 -0.34375,-0.34375 -0.89063,-0.34375 -0.54687,0 -0.92187,0.34375 -0.35938,0.34375 -0.45313,1.03125 l -0.9375,-0.17188 q 0.17188,-0.9375 0.78125,-1.45312 0.60938,-0.51563 1.5,-0.51563 0.625,0 1.15625,0.26563 0.53125,0.26562 0.79688,0.73437 0.28125,0.45313 0.28125,0.98438 0,0.48437 -0.26563,0.89062 -0.26562,0.40625 -0.78125,0.65625 0.67188,0.15625 1.04688,0.65625 0.375,0.48438 0.375,1.21875 0,1 -0.73438,1.70313 -0.71875,0.6875 -1.82812,0.6875 -1,0 -1.67188,-0.59375 -0.65625,-0.60938 -0.75,-1.5625 z m 6.4265,2.01562 v -1.0625 h 1.0625 v 1.0625 q 0,0.59375 -0.21875,0.95313 -0.20312,0.35937 -0.65625,0.5625 l -0.25,-0.40625 q 0.29688,-0.125 0.4375,-0.39063 0.14063,-0.25 0.15625,-0.71875 z m 10.26505,-5.76562 -0.92188,0.0781 q -0.125,-0.54687 -0.35937,-0.79687 -0.375,-0.40625 -0.9375,-0.40625 -0.4375,0 -0.78125,0.25 -0.4375,0.32812 -0.70313,0.95312 -0.25,0.60938 -0.26562,1.75 0.34375,-0.51562 0.82812,-0.76562 0.5,-0.25 1.03125,-0.25 0.9375,0 1.59375,0.70312 0.65625,0.6875 0.65625,1.76563 0,0.71875 -0.3125,1.34375 -0.3125,0.60937 -0.85937,0.9375 -0.53125,0.32812 -1.21875,0.32812 -1.17188,0 -1.90625,-0.85937 -0.73438,-0.85938 -0.73438,-2.82813 0,-2.21875 0.8125,-3.21875 0.71875,-0.875 1.92188,-0.875 0.89062,0 1.46875,0.5 0.57812,0.5 0.6875,1.39063 z m -3.8125,3.29687 q 0,0.48438 0.20312,0.92188 0.20313,0.4375 0.5625,0.67187 0.375,0.23438 0.78125,0.23438 0.59375,0 1.01563,-0.46875 0.4375,-0.48438 0.4375,-1.3125 0,-0.78125 -0.42188,-1.23438 -0.42187,-0.46875 -1.0625,-0.46875 -0.64062,0 -1.07812,0.46875 -0.4375,0.45313 -0.4375,1.1875 z m 7.87962,2.46875 v -1.82812 h -3.29687 v -0.85938 l 3.46875,-4.9375 h 0.76562 v 4.9375 h 1.03125 v 0.85938 h -1.03125 v 1.82812 z m 0,-2.6875 v -3.4375 l -2.375,3.4375 z m 6.32465,2.6875 v -7.625 h 5.14062 v 0.89063 h -4.125 v 2.375 h 3.57813 v 0.89062 h -3.57813 v 3.46875 z m 6.33738,-6.54687 v -1.07813 h 0.9375 v 1.07813 z m 0,6.54687 v -5.53125 h 0.9375 v 5.53125 z m 2.35186,0 v -7.625 h 0.9375 v 7.625 z m 4.42997,-0.84375 0.125,0.82813 q -0.39062,0.0937 -0.70312,0.0937 -0.5,0 -0.78125,-0.15625 -0.28125,-0.17188 -0.40625,-0.4375 -0.10938,-0.26563 -0.10938,-1.10938 v -3.17187 h -0.6875 v -0.73438 h 0.6875 v -1.35937 l 0.9375,-0.5625 v 1.92187 h 0.9375 v 0.73438 h -0.9375 v 3.23437 q 0,0.39063 0.0469,0.51563 0.0469,0.10937 0.15625,0.1875 0.10937,0.0625 0.32812,0.0625 0.15625,0 0.40625,-0.0469 z m 4.69503,-0.9375 0.96875,0.125 q -0.23438,0.84375 -0.85938,1.3125 -0.60937,0.46875 -1.57812,0.46875 -1.20313,0 -1.92188,-0.75 -0.70312,-0.75 -0.70312,-2.09375 0,-1.39062 0.71875,-2.15625 0.71875,-0.78125 1.85937,-0.78125 1.10938,0 1.8125,0.76563 0.70313,0.75 0.70313,2.125 0,0.0781 0,0.23437 h -4.125 q 0.0469,0.92188 0.51562,1.40625 0.46875,0.48438 1.15625,0.48438 0.51563,0 0.875,-0.26563 0.35938,-0.28125 0.57813,-0.875 z m -3.07813,-1.51562 h 3.09375 q -0.0625,-0.6875 -0.35937,-1.04688 -0.45313,-0.53125 -1.15625,-0.53125 -0.64063,0 -1.09375,0.4375 -0.4375,0.42188 -0.48438,1.14063 z m 5.20775,3.29687 v -5.53125 h 0.84375 v 0.84375 q 0.32812,-0.59375 0.59375,-0.78125 0.28125,-0.1875 0.60937,-0.1875 0.46875,0 0.95313,0.3125 l -0.3125,0.85938 q -0.34375,-0.20313 -0.6875,-0.20313 -0.3125,0 -0.5625,0.1875 -0.23438,0.1875 -0.34375,0.51563 -0.15625,0.5 -0.15625,1.09375 v 2.89062 z m 3.18924,-1.65625 0.92187,-0.14062 q 0.0781,0.5625 0.4375,0.85937 0.35938,0.29688 1,0.29688 0.64063,0 0.95313,-0.26563 0.3125,-0.26562 0.3125,-0.625 0,-0.3125 -0.28125,-0.5 -0.1875,-0.125 -0.95313,-0.3125 -1.03125,-0.26562 -1.4375,-0.45312 -0.39062,-0.1875 -0.59375,-0.51563 -0.20312,-0.34375 -0.20312,-0.75 0,-0.35937 0.17187,-0.67187 0.17188,-0.32813 0.45313,-0.53125 0.21875,-0.15625 0.59375,-0.26563 0.39062,-0.125 0.8125,-0.125 0.65625,0 1.14062,0.1875 0.5,0.1875 0.73438,0.51563 0.23437,0.3125 0.3125,0.85937 l -0.90625,0.125 q -0.0625,-0.4375 -0.375,-0.67187 -0.29688,-0.23438 -0.82813,-0.23438 -0.65625,0 -0.9375,0.21875 -0.26562,0.20313 -0.26562,0.48438 0,0.1875 0.10937,0.32812 0.125,0.15625 0.35938,0.25 0.14062,0.0625 0.82812,0.25 1,0.26563 1.39063,0.4375 0.39062,0.15625 0.60937,0.48438 0.23438,0.3125 0.23438,0.79687 0,0.46875 -0.28125,0.89063 -0.26563,0.40625 -0.78125,0.64062 -0.51563,0.21875 -1.17188,0.21875 -1.07812,0 -1.64062,-0.4375 -0.5625,-0.45312 -0.71875,-1.34375 z" />
      <path
         style="fill:#000000;fill-opacity:0;fill-rule:evenodd"
         inkscape:connector-curvature="0"
         id="path19"
         d="m 582.5304,230.77386 h 88.10791 v 11.64807 H 582.5304 Z" />
      <path
         style="fill:#000000;fill-rule:nonzero"
         inkscape:connector-curvature="0"
         id="path21"
         d="m 599.66279,239.43167 v 0.90625 h -5.03125 q -0.0156,-0.34375 0.10938,-0.65625 0.1875,-0.51562 0.60937,-1.01562 0.42188,-0.5 1.23438,-1.14063 1.23437,-1.03125 1.67187,-1.625 0.4375,-0.59375 0.4375,-1.125 0,-0.5625 -0.40625,-0.9375 -0.39062,-0.39062 -1.03125,-0.39062 -0.67187,0 -1.07812,0.40625 -0.40625,0.40625 -0.40625,1.125 l -0.96875,-0.0937 q 0.0937,-1.07813 0.73437,-1.64063 0.65625,-0.5625 1.73438,-0.5625 1.10937,0 1.75,0.60938 0.64062,0.60937 0.64062,1.5 0,0.46875 -0.1875,0.90625 -0.1875,0.4375 -0.625,0.9375 -0.4375,0.48437 -1.45312,1.32812 -0.82813,0.71875 -1.07813,0.96875 -0.23437,0.25 -0.39062,0.5 z m 0.64525,0.90625 2.01562,-2.875 -1.85937,-2.65625 h 1.17187 l 0.84375,1.29688 q 0.23438,0.375 0.39063,0.625 0.21875,-0.34375 0.40625,-0.60938 l 0.9375,-1.3125 h 1.125 l -1.92188,2.60938 2.0625,2.92187 h -1.15625 l -1.125,-1.71875 -0.29687,-0.46875 -1.45313,2.1875 z m 10.60937,-0.90625 v 0.90625 h -5.03125 q -0.0156,-0.34375 0.10938,-0.65625 0.1875,-0.51562 0.60937,-1.01562 0.42188,-0.5 1.23438,-1.14063 1.23437,-1.03125 1.67187,-1.625 0.4375,-0.59375 0.4375,-1.125 0,-0.5625 -0.40625,-0.9375 -0.39062,-0.39062 -1.03125,-0.39062 -0.67187,0 -1.07812,0.40625 -0.40625,0.40625 -0.40625,1.125 l -0.96875,-0.0937 q 0.0937,-1.07813 0.73437,-1.64063 0.65625,-0.5625 1.73438,-0.5625 1.10937,0 1.75,0.60938 0.64062,0.60937 0.64062,1.5 0,0.46875 -0.1875,0.90625 -0.1875,0.4375 -0.625,0.9375 -0.4375,0.48437 -1.45312,1.32812 -0.82813,0.71875 -1.07813,0.96875 -0.23437,0.25 -0.39062,0.5 z m 4.32465,0.90625 v -7.625 h 1.51562 l 1.79688,5.39063 q 0.25,0.76562 0.375,1.14062 0.125,-0.42187 0.40625,-1.23437 l 1.82812,-5.29688 h 1.34375 v 7.625 h -0.96875 v -6.39062 l -2.21875,6.39062 h -0.90625 l -2.20312,-6.5 v 6.5 z m 12.39236,-0.6875 q -0.53125,0.45313 -1.01562,0.64063 -0.46875,0.17187 -1.01563,0.17187 -0.92187,0 -1.40625,-0.4375 -0.48437,-0.45312 -0.48437,-1.14062 0,-0.40625 0.17187,-0.73438 0.1875,-0.34375 0.48438,-0.54687 0.3125,-0.20313 0.6875,-0.3125 0.26562,-0.0625 0.82812,-0.14063 1.125,-0.125 1.67188,-0.3125 0,-0.20312 0,-0.25 0,-0.57812 -0.26563,-0.8125 -0.35937,-0.3125 -1.0625,-0.3125 -0.65625,0 -0.98437,0.23438 -0.3125,0.23437 -0.45313,0.8125 l -0.92187,-0.125 q 0.125,-0.57813 0.40625,-0.9375 0.29687,-0.375 0.82812,-0.5625 0.54688,-0.20313 1.25,-0.20313 0.71875,0 1.15625,0.17188 0.4375,0.17187 0.64063,0.42187 0.21875,0.25 0.29687,0.64063 0.0469,0.23437 0.0469,0.85937 v 1.25 q 0,1.29688 0.0625,1.65625 0.0625,0.34375 0.23437,0.65625 h -0.96875 q -0.15625,-0.29687 -0.1875,-0.6875 z m -0.0781,-2.07812 q -0.51563,0.20312 -1.53125,0.34375 -0.57813,0.0781 -0.82813,0.1875 -0.23437,0.10937 -0.35937,0.3125 -0.125,0.1875 -0.125,0.4375 0,0.375 0.28125,0.625 0.28125,0.25 0.82812,0.25 0.53125,0 0.95313,-0.23438 0.42187,-0.23437 0.625,-0.65625 0.15625,-0.3125 0.15625,-0.9375 z m 1.77025,2.76562 2.01562,-2.875 -1.85937,-2.65625 h 1.17187 l 0.84375,1.29688 q 0.23438,0.375 0.39063,0.625 0.21875,-0.34375 0.40625,-0.60938 l 0.9375,-1.3125 h 1.125 l -1.92188,2.60938 2.0625,2.92187 h -1.15625 l -1.125,-1.71875 -0.29687,-0.46875 -1.45313,2.1875 z m 9.03877,0 v -7.625 h 2.875 q 0.75,0 1.15625,0.0625 0.5625,0.0937 0.9375,0.35938 0.39063,0.26562 0.60938,0.75 0.23437,0.46875 0.23437,1.03125 0,0.96875 -0.625,1.65625 -0.60937,0.67187 -2.23437,0.67187 h -1.95313 v 3.09375 z m 1,-4 h 1.96875 q 0.98438,0 1.39063,-0.35937 0.42187,-0.375 0.42187,-1.03125 0,-0.48438 -0.25,-0.8125 -0.23437,-0.34375 -0.64062,-0.45313 -0.25,-0.0781 -0.9375,-0.0781 h -1.95313 z m 5.63889,1.23438 q 0,-1.53125 0.84375,-2.26563 0.71875,-0.625 1.73437,-0.625 1.14063,0 1.85938,0.75 0.73437,0.75 0.73437,2.0625 0,1.0625 -0.32812,1.6875 -0.3125,0.60938 -0.92188,0.95313 -0.60937,0.32812 -1.34375,0.32812 -1.15625,0 -1.875,-0.73437 -0.70312,-0.75 -0.70312,-2.15625 z m 0.95312,0 q 0,1.0625 0.46875,1.59375 0.46875,0.53125 1.15625,0.53125 0.70313,0 1.15625,-0.53125 0.46875,-0.53125 0.46875,-1.625 0,-1.01563 -0.46875,-1.54688 -0.45312,-0.53125 -1.15625,-0.53125 -0.6875,0 -1.15625,0.53125 -0.46875,0.51563 -0.46875,1.57813 z m 4.97337,0 q 0,-1.53125 0.84375,-2.26563 0.71875,-0.625 1.73438,-0.625 1.14062,0 1.85937,0.75 0.73438,0.75 0.73438,2.0625 0,1.0625 -0.32813,1.6875 -0.3125,0.60938 -0.92187,0.95313 -0.60938,0.32812 -1.34375,0.32812 -1.15625,0 -1.875,-0.73437 -0.70313,-0.75 -0.70313,-2.15625 z m 0.95313,0 q 0,1.0625 0.46875,1.59375 0.46875,0.53125 1.15625,0.53125 0.70312,0 1.15625,-0.53125 0.46875,-0.53125 0.46875,-1.625 0,-1.01563 -0.46875,-1.54688 -0.45313,-0.53125 -1.15625,-0.53125 -0.6875,0 -1.15625,0.53125 -0.46875,0.51563 -0.46875,1.57813 z m 5.3015,2.76562 v -7.625 h 0.9375 v 7.625 z" />
      <path
         style="fill:#000000;fill-opacity:0;fill-rule:evenodd"
         inkscape:connector-curvature="0"
         id="path23"
         d="m 626.58436,217.40133 v 6.68628 h -0.0515 v 6.68841" />
      <path
         style="fill-rule:evenodd;stroke:#595959;stroke-width:1;stroke-linecap:butt;stroke-linejoin:round"
         inkscape:connector-curvature="0"
         id="path25"
         d="m 626.58434,217.40133 v 6.68628 h -0.0515 v 0.68838" />
      <path
         style="fill:#595959;fill-rule:evenodd;stroke:#595959;stroke-width:1;stroke-linecap:butt"
         inkscape:connector-curvature="0"
         id="path27"
         d="m 624.88108,224.77599 1.65173,4.53812 1.65174,-4.53812 z" />
      <path
         style="fill:#000000;fill-opacity:0;fill-rule:evenodd"
         inkscape:connector-curvature="0"
         id="path29"
         d="m 626.58436,242.42193 v 13.37469" />
      <path
         style="fill-rule:evenodd;stroke:#595959;stroke-width:1;stroke-linecap:butt;stroke-linejoin:round"
         inkscape:connector-curvature="0"
         id="path31"
         d="m 626.58434,242.42193 v 7.37466" />
      <path
         style="fill:#595959;fill-rule:evenodd;stroke:#595959;stroke-width:1;stroke-linecap:butt"
         inkscape:connector-curvature="0"
         id="path33"
         d="m 624.93262,249.79659 1.65172,4.53809 1.65173,-4.53809 z" />
      <path
         style="fill:#000000;fill-opacity:0;fill-rule:evenodd"
         inkscape:connector-curvature="0"
         id="path35"
         d="m 582.55617,297.17907 h 88.10791 v 11.64807 h -88.10791 z" />
      <path
         style="fill:#000000;fill-rule:nonzero"
         inkscape:connector-curvature="0"
         id="path37"
         d="m 599.68856,305.83685 v 0.90625 h -5.03125 q -0.0156,-0.34375 0.10938,-0.65625 0.1875,-0.51563 0.60937,-1.01563 0.42188,-0.5 1.23438,-1.14062 1.23437,-1.03125 1.67187,-1.625 0.4375,-0.59375 0.4375,-1.125 0,-0.5625 -0.40625,-0.9375 -0.39062,-0.39063 -1.03125,-0.39063 -0.67187,0 -1.07812,0.40625 -0.40625,0.40625 -0.40625,1.125 l -0.96875,-0.0937 q 0.0937,-1.07812 0.73437,-1.64062 0.65625,-0.5625 1.73438,-0.5625 1.10937,0 1.75,0.60937 0.64062,0.60938 0.64062,1.5 0,0.46875 -0.1875,0.90625 -0.1875,0.4375 -0.625,0.9375 -0.4375,0.48438 -1.45312,1.32813 -0.82813,0.71875 -1.07813,0.96875 -0.23437,0.25 -0.39062,0.5 z m 0.64525,0.90625 2.01562,-2.875 -1.85937,-2.65625 h 1.17187 l 0.84375,1.29687 q 0.23438,0.375 0.39063,0.625 0.21875,-0.34375 0.40625,-0.60937 l 0.9375,-1.3125 h 1.125 l -1.92188,2.60937 2.0625,2.92188 h -1.15625 l -1.125,-1.71875 -0.29687,-0.46875 -1.45313,2.1875 z m 10.60937,-0.90625 v 0.90625 h -5.03125 q -0.0156,-0.34375 0.10938,-0.65625 0.1875,-0.51563 0.60937,-1.01563 0.42188,-0.5 1.23438,-1.14062 1.23437,-1.03125 1.67187,-1.625 0.4375,-0.59375 0.4375,-1.125 0,-0.5625 -0.40625,-0.9375 -0.39062,-0.39063 -1.03125,-0.39063 -0.67187,0 -1.07812,0.40625 -0.40625,0.40625 -0.40625,1.125 l -0.96875,-0.0937 q 0.0937,-1.07812 0.73437,-1.64062 0.65625,-0.5625 1.73438,-0.5625 1.10937,0 1.75,0.60937 0.64062,0.60938 0.64062,1.5 0,0.46875 -0.1875,0.90625 -0.1875,0.4375 -0.625,0.9375 -0.4375,0.48438 -1.45312,1.32813 -0.82813,0.71875 -1.07813,0.96875 -0.23437,0.25 -0.39062,0.5 z m 4.32465,0.90625 v -7.625 h 1.51562 l 1.79688,5.39062 q 0.25,0.76563 0.375,1.14063 0.125,-0.42188 0.40625,-1.23438 l 1.82812,-5.29687 h 1.34375 v 7.625 h -0.96875 v -6.39063 l -2.21875,6.39063 h -0.90625 l -2.20312,-6.5 v 6.5 z m 12.39236,-0.6875 q -0.53125,0.45312 -1.01562,0.64062 -0.46875,0.17188 -1.01563,0.17188 -0.92187,0 -1.40625,-0.4375 -0.48437,-0.45313 -0.48437,-1.14063 0,-0.40625 0.17187,-0.73437 0.1875,-0.34375 0.48438,-0.54688 0.3125,-0.20312 0.6875,-0.3125 0.26562,-0.0625 0.82812,-0.14062 1.125,-0.125 1.67188,-0.3125 0,-0.20313 0,-0.25 0,-0.57813 -0.26563,-0.8125 -0.35937,-0.3125 -1.0625,-0.3125 -0.65625,0 -0.98437,0.23437 -0.3125,0.23438 -0.45313,0.8125 l -0.92187,-0.125 q 0.125,-0.57812 0.40625,-0.9375 0.29687,-0.375 0.82812,-0.5625 0.54688,-0.20312 1.25,-0.20312 0.71875,0 1.15625,0.17187 0.4375,0.17188 0.64063,0.42188 0.21875,0.25 0.29687,0.64062 0.0469,0.23438 0.0469,0.85938 v 1.25 q 0,1.29687 0.0625,1.65625 0.0625,0.34375 0.23437,0.65625 h -0.96875 q -0.15625,-0.29688 -0.1875,-0.6875 z m -0.0781,-2.07813 q -0.51563,0.20313 -1.53125,0.34375 -0.57813,0.0781 -0.82813,0.1875 -0.23437,0.10938 -0.35937,0.3125 -0.125,0.1875 -0.125,0.4375 0,0.375 0.28125,0.625 0.28125,0.25 0.82812,0.25 0.53125,0 0.95313,-0.23437 0.42187,-0.23438 0.625,-0.65625 0.15625,-0.3125 0.15625,-0.9375 z m 1.77025,2.76563 2.01562,-2.875 -1.85937,-2.65625 h 1.17187 l 0.84375,1.29687 q 0.23438,0.375 0.39063,0.625 0.21875,-0.34375 0.40625,-0.60937 l 0.9375,-1.3125 h 1.125 l -1.92188,2.60937 2.0625,2.92188 h -1.15625 l -1.125,-1.71875 -0.29687,-0.46875 -1.45313,2.1875 z m 9.03877,0 v -7.625 h 2.875 q 0.75,0 1.15625,0.0625 0.5625,0.0937 0.9375,0.35937 0.39063,0.26563 0.60938,0.75 0.23437,0.46875 0.23437,1.03125 0,0.96875 -0.625,1.65625 -0.60937,0.67188 -2.23437,0.67188 h -1.95313 v 3.09375 z m 1,-4 h 1.96875 q 0.98438,0 1.39063,-0.35938 0.42187,-0.375 0.42187,-1.03125 0,-0.48437 -0.25,-0.8125 -0.23437,-0.34375 -0.64062,-0.45312 -0.25,-0.0781 -0.9375,-0.0781 h -1.95313 z m 5.63889,1.23437 q 0,-1.53125 0.84375,-2.26562 0.71875,-0.625 1.73437,-0.625 1.14063,0 1.85938,0.75 0.73437,0.75 0.73437,2.0625 0,1.0625 -0.32812,1.6875 -0.3125,0.60937 -0.92188,0.95312 -0.60937,0.32813 -1.34375,0.32813 -1.15625,0 -1.875,-0.73438 -0.70312,-0.75 -0.70312,-2.15625 z m 0.95312,0 q 0,1.0625 0.46875,1.59375 0.46875,0.53125 1.15625,0.53125 0.70313,0 1.15625,-0.53125 0.46875,-0.53125 0.46875,-1.625 0,-1.01562 -0.46875,-1.54687 -0.45312,-0.53125 -1.15625,-0.53125 -0.6875,0 -1.15625,0.53125 -0.46875,0.51562 -0.46875,1.57812 z m 4.97337,0 q 0,-1.53125 0.84375,-2.26562 0.71875,-0.625 1.73438,-0.625 1.14062,0 1.85937,0.75 0.73438,0.75 0.73438,2.0625 0,1.0625 -0.32813,1.6875 -0.3125,0.60937 -0.92187,0.95312 -0.60938,0.32813 -1.34375,0.32813 -1.15625,0 -1.875,-0.73438 -0.70313,-0.75 -0.70313,-2.15625 z m 0.95313,0 q 0,1.0625 0.46875,1.59375 0.46875,0.53125 1.15625,0.53125 0.70312,0 1.15625,-0.53125 0.46875,-0.53125 0.46875,-1.625 0,-1.01562 -0.46875,-1.54687 -0.45313,-0.53125 -1.15625,-0.53125 -0.6875,0 -1.15625,0.53125 -0.46875,0.51562 -0.46875,1.57812 z m 5.3015,2.76563 v -7.625 h 0.9375 v 7.625 z" />
      <path
         style="fill:#000000;fill-opacity:0;fill-rule:evenodd"
         inkscape:connector-curvature="0"
         id="path39"
         d="m 626.58436,283.80654 0.0258,13.37466" />
      <path
         style="fill-rule:evenodd;stroke:#595959;stroke-width:1;stroke-linecap:butt;stroke-linejoin:round"
         inkscape:connector-curvature="0"
         id="path41"
         d="m 626.58434,283.80657 0.0142,7.37463" />
      <path
         style="fill:#595959;fill-rule:evenodd;stroke:#595959;stroke-width:1;stroke-linecap:butt"
         inkscape:connector-curvature="0"
         id="path43"
         d="m 624.94683,291.18439 1.66048,4.53491 1.64299,-4.54126 z" />
      <path
         style="fill:#eeeeee;fill-rule:evenodd"
         inkscape:connector-curvature="0"
         id="path45"
         d="m 589.93931,324.92699 h 73.34164 v 28.01209 h -73.34164 z" />
      <path
         style="fill-rule:evenodd;stroke:#595959;stroke-width:1;stroke-linecap:butt;stroke-linejoin:round"
         inkscape:connector-curvature="0"
         id="path47"
         d="m 589.93931,324.92699 h 73.34164 v 28.01209 h -73.34164 z" />
      <path
         style="fill:#000000;fill-rule:nonzero"
         inkscape:connector-curvature="0"
         id="path49"
         d="m 611.19636,342.67303 v -7.625 h 5.14063 v 0.89062 h -4.125 v 2.375 h 3.57812 v 0.89063 h -3.57812 v 3.46875 z m 6.32176,0 v -7.625 h 0.9375 v 7.625 z m 5.99248,-0.6875 q -0.53125,0.45312 -1.01563,0.64062 -0.46875,0.17188 -1.01562,0.17188 -0.92188,0 -1.40625,-0.4375 -0.48438,-0.45313 -0.48438,-1.14063 0,-0.40625 0.17188,-0.73437 0.1875,-0.34375 0.48437,-0.54688 0.3125,-0.20312 0.6875,-0.3125 0.26563,-0.0625 0.82813,-0.14062 1.125,-0.125 1.67187,-0.3125 0,-0.20313 0,-0.25 0,-0.57813 -0.26562,-0.8125 -0.35938,-0.3125 -1.0625,-0.3125 -0.65625,0 -0.98438,0.23437 -0.3125,0.23438 -0.45312,0.8125 l -0.92188,-0.125 q 0.125,-0.57812 0.40625,-0.9375 0.29688,-0.375 0.82813,-0.5625 0.54687,-0.20312 1.25,-0.20312 0.71875,0 1.15625,0.17187 0.4375,0.17188 0.64062,0.42188 0.21875,0.25 0.29688,0.64062 0.0469,0.23438 0.0469,0.85938 v 1.25 q 0,1.29687 0.0625,1.65625 0.0625,0.34375 0.23438,0.65625 h -0.96875 q -0.15625,-0.29688 -0.1875,-0.6875 z m -0.0781,-2.07813 q -0.51562,0.20313 -1.53125,0.34375 -0.57812,0.0781 -0.82812,0.1875 -0.23438,0.10938 -0.35938,0.3125 -0.125,0.1875 -0.125,0.4375 0,0.375 0.28125,0.625 0.28125,0.25 0.82813,0.25 0.53125,0 0.95312,-0.23437 0.42188,-0.23438 0.625,-0.65625 0.15625,-0.3125 0.15625,-0.9375 z m 4.44213,1.92188 0.125,0.82812 q -0.39063,0.0937 -0.70313,0.0937 -0.5,0 -0.78125,-0.15625 -0.28125,-0.17187 -0.40625,-0.4375 -0.10937,-0.26562 -0.10937,-1.10937 v -3.17188 h -0.6875 v -0.73437 h 0.6875 v -1.35938 l 0.9375,-0.5625 v 1.92188 h 0.9375 v 0.73437 h -0.9375 v 3.23438 q 0,0.39062 0.0469,0.51562 0.0469,0.10938 0.15625,0.1875 0.10938,0.0625 0.32813,0.0625 0.15625,0 0.40625,-0.0469 z m 2.96065,0 0.125,0.82812 q -0.39063,0.0937 -0.70313,0.0937 -0.5,0 -0.78125,-0.15625 -0.28125,-0.17187 -0.40625,-0.4375 -0.10937,-0.26562 -0.10937,-1.10937 v -3.17188 h -0.6875 v -0.73437 h 0.6875 v -1.35938 l 0.9375,-0.5625 v 1.92188 h 0.9375 v 0.73437 h -0.9375 v 3.23438 q 0,0.39062 0.0469,0.51562 0.0469,0.10938 0.15625,0.1875 0.10938,0.0625 0.32813,0.0625 0.15625,0 0.40625,-0.0469 z m 4.69502,-0.9375 0.96875,0.125 q -0.23438,0.84375 -0.85938,1.3125 -0.60937,0.46875 -1.57812,0.46875 -1.20313,0 -1.92188,-0.75 -0.70312,-0.75 -0.70312,-2.09375 0,-1.39063 0.71875,-2.15625 0.71875,-0.78125 1.85937,-0.78125 1.10938,0 1.8125,0.76562 0.70313,0.75 0.70313,2.125 0,0.0781 0,0.23438 h -4.125 q 0.0469,0.92187 0.51562,1.40625 0.46875,0.48437 1.15625,0.48437 0.51563,0 0.875,-0.26562 0.35938,-0.28125 0.57813,-0.875 z m -3.07813,-1.51563 h 3.09375 q -0.0625,-0.6875 -0.35937,-1.04687 -0.45313,-0.53125 -1.15625,-0.53125 -0.64063,0 -1.09375,0.4375 -0.4375,0.42187 -0.48438,1.14062 z m 5.22338,3.29688 v -5.53125 h 0.84375 v 0.79687 q 0.60937,-0.92187 1.75,-0.92187 0.5,0 0.92187,0.1875 0.42188,0.17187 0.625,0.46875 0.21875,0.29687 0.29688,0.6875 0.0469,0.26562 0.0469,0.92187 v 3.39063 h -0.9375 v -3.35938 q 0,-0.57812 -0.10937,-0.85937 -0.10938,-0.28125 -0.39063,-0.45313 -0.26562,-0.17187 -0.64062,-0.17187 -0.59375,0 -1.03125,0.39062 -0.4375,0.375 -0.4375,1.4375 v 3.01563 z" />
      <path
         style="fill:#000000;fill-opacity:0;fill-rule:evenodd"
         inkscape:connector-curvature="0"
         id="path51"
         d="m 626.61013,308.82714 v 16.10629" />
      <path
         style="fill-rule:evenodd;stroke:#595959;stroke-width:1;stroke-linecap:butt;stroke-linejoin:round"
         inkscape:connector-curvature="0"
         id="path53"
         d="m 626.61013,308.82714 v 10.10629" />
      <path
         style="fill:#595959;fill-rule:evenodd;stroke:#595959;stroke-width:1;stroke-linecap:butt"
         inkscape:connector-curvature="0"
         id="path55"
         d="m 624.95839,318.93344 1.65173,4.53812 1.65174,-4.53812 z" />
      <path
         style="fill:#eeeeee;fill-rule:evenodd"
         inkscape:connector-curvature="0"
         id="path57"
         d="m 640.16519,369.03894 h 73.34165 v 28.01208 h -73.34165 z" />
      <path
         style="fill-rule:evenodd;stroke:#595959;stroke-width:1;stroke-linecap:butt;stroke-linejoin:round"
         inkscape:connector-curvature="0"
         id="path59"
         d="m 640.16519,369.03894 h 73.34165 v 28.01208 h -73.34165 z" />
      <path
         style="fill:#000000;fill-rule:nonzero"
         inkscape:connector-curvature="0"
         id="path61"
         d="m 662.21796,384.33184 0.95313,-0.0781 q 0.0625,0.5625 0.3125,0.9375 0.25,0.35937 0.76562,0.59375 0.51563,0.21875 1.17188,0.21875 0.57812,0 1.01562,-0.17188 0.4375,-0.17187 0.65625,-0.46875 0.21875,-0.29687 0.21875,-0.65625 0,-0.35937 -0.21875,-0.625 -0.20312,-0.26562 -0.67187,-0.4375 -0.3125,-0.125 -1.35938,-0.375 -1.04687,-0.25 -1.46875,-0.48437 -0.54687,-0.28125 -0.82812,-0.70313 -0.26563,-0.42187 -0.26563,-0.95312 0,-0.57813 0.32813,-1.07813 0.32812,-0.5 0.95312,-0.76562 0.64063,-0.26563 1.40625,-0.26563 0.84375,0 1.48438,0.28125 0.65625,0.26563 1,0.79688 0.35937,0.53125 0.39062,1.20312 l -0.96875,0.0781 q -0.0781,-0.71875 -0.53125,-1.09375 -0.45312,-0.375 -1.32812,-0.375 -0.92188,0 -1.34375,0.34375 -0.40625,0.32812 -0.40625,0.8125 0,0.40625 0.29687,0.67187 0.28125,0.26563 1.51563,0.54688 1.23437,0.28125 1.6875,0.48437 0.67187,0.3125 0.98437,0.78125 0.3125,0.46875 0.3125,1.07813 0,0.60937 -0.34375,1.15625 -0.34375,0.53125 -1,0.82812 -0.65625,0.29688 -1.46875,0.29688 -1.04687,0 -1.75,-0.29688 -0.6875,-0.29687 -1.09375,-0.90625 -0.39062,-0.60937 -0.40625,-1.375 z m 7.32639,-4.09375 v -1.07812 h 0.9375 v 1.07812 z m 0,6.54688 v -5.53125 h 0.9375 v 5.53125 z m 2.1956,0.45312 0.90625,0.14063 q 0.0625,0.42187 0.32812,0.60937 0.34375,0.26563 0.9375,0.26563 0.65625,0 1,-0.26563 0.35938,-0.25 0.48438,-0.71875 0.0781,-0.29687 0.0781,-1.20312 -0.625,0.71875 -1.53125,0.71875 -1.14062,0 -1.76562,-0.8125 -0.625,-0.82813 -0.625,-1.98438 0,-0.78125 0.28125,-1.45312 0.29687,-0.67188 0.82812,-1.03125 0.54688,-0.375 1.28125,-0.375 0.98438,0 1.60938,0.79687 v -0.67187 h 0.875 v 4.78125 q 0,1.29687 -0.26563,1.82812 -0.26562,0.54688 -0.84375,0.85938 -0.5625,0.3125 -1.39062,0.3125 -0.98438,0 -1.59375,-0.45313 -0.60938,-0.4375 -0.59375,-1.34375 z m 0.78125,-3.3125 q 0,1.07813 0.42187,1.57813 0.4375,0.5 1.07813,0.5 0.65625,0 1.09375,-0.48438 0.4375,-0.5 0.4375,-1.5625 0,-1.01562 -0.45313,-1.53125 -0.45312,-0.51562 -1.09375,-0.51562 -0.60937,0 -1.04687,0.51562 -0.4375,0.5 -0.4375,1.5 z m 5.31712,2.85938 v -5.53125 h 0.84375 v 0.78125 q 0.25,-0.40625 0.6875,-0.65625 0.4375,-0.25 0.98438,-0.25 0.60937,0 1,0.26562 0.39062,0.25 0.5625,0.70313 0.65625,-0.96875 1.70312,-0.96875 0.82813,0 1.26563,0.46875 0.4375,0.45312 0.4375,1.39062 v 3.79688 h -0.92188 v -3.48438 q 0,-0.5625 -0.0937,-0.79687 -0.0937,-0.25 -0.34375,-0.40625 -0.23437,-0.15625 -0.54687,-0.15625 -0.59375,0 -0.98438,0.39062 -0.375,0.39063 -0.375,1.25 v 3.20313 h -0.9375 v -3.59375 q 0,-0.625 -0.23437,-0.9375 -0.21875,-0.3125 -0.75,-0.3125 -0.39063,0 -0.73438,0.21875 -0.32812,0.20312 -0.48437,0.60937 -0.14063,0.39063 -0.14063,1.15625 v 2.85938 z m 12.48612,-0.6875 q -0.53125,0.45312 -1.01563,0.64062 -0.46875,0.17188 -1.01562,0.17188 -0.92188,0 -1.40625,-0.4375 -0.48438,-0.45313 -0.48438,-1.14063 0,-0.40625 0.17188,-0.73437 0.1875,-0.34375 0.48437,-0.54688 0.3125,-0.20312 0.6875,-0.3125 0.26563,-0.0625 0.82813,-0.14062 1.125,-0.125 1.67187,-0.3125 0,-0.20313 0,-0.25 0,-0.57813 -0.26562,-0.8125 -0.35938,-0.3125 -1.0625,-0.3125 -0.65625,0 -0.98438,0.23437 -0.3125,0.23438 -0.45312,0.8125 l -0.92188,-0.125 q 0.125,-0.57812 0.40625,-0.9375 0.29688,-0.375 0.82813,-0.5625 0.54687,-0.20312 1.25,-0.20312 0.71875,0 1.15625,0.17187 0.4375,0.17188 0.64062,0.42188 0.21875,0.25 0.29688,0.64062 0.0469,0.23438 0.0469,0.85938 v 1.25 q 0,1.29687 0.0625,1.65625 0.0625,0.34375 0.23438,0.65625 h -0.96875 q -0.15625,-0.29688 -0.1875,-0.6875 z m -0.0781,-2.07813 q -0.51562,0.20313 -1.53125,0.34375 -0.57812,0.0781 -0.82812,0.1875 -0.23438,0.10938 -0.35938,0.3125 -0.125,0.1875 -0.125,0.4375 0,0.375 0.28125,0.625 0.28125,0.25 0.82813,0.25 0.53125,0 0.95312,-0.23437 0.42188,-0.23438 0.625,-0.65625 0.15625,-0.3125 0.15625,-0.9375 z" />
      <path
         style="fill:#eeeeee;fill-rule:evenodd"
         inkscape:connector-curvature="0"
         id="path63"
         d="m 536.61242,369.03894 h 73.34164 v 28.01208 h -73.34164 z" />
      <path
         style="fill-rule:evenodd;stroke:#595959;stroke-width:1;stroke-linecap:butt;stroke-linejoin:round"
         inkscape:connector-curvature="0"
         id="path65"
         d="m 536.61242,369.03894 h 73.34164 v 28.01208 h -73.34164 z" />
      <path
         style="fill:#000000;fill-rule:nonzero"
         inkscape:connector-curvature="0"
         id="path67"
         d="m 566.6785,386.78499 v -7.625 h 1.51563 l 1.79687,5.39062 q 0.25,0.76563 0.375,1.14063 0.125,-0.42188 0.40625,-1.23438 l 1.82813,-5.29687 h 1.34375 v 7.625 h -0.96875 v -6.39063 l -2.21875,6.39063 h -0.90625 l -2.20313,-6.5 v 6.5 z m 12.40799,0 v -0.8125 q -0.65625,0.9375 -1.75,0.9375 -0.5,0 -0.92188,-0.1875 -0.42187,-0.1875 -0.625,-0.46875 -0.20312,-0.28125 -0.29687,-0.70313 -0.0469,-0.26562 -0.0469,-0.875 v -3.42187 h 0.9375 v 3.0625 q 0,0.73437 0.0469,1 0.0937,0.35937 0.375,0.57812 0.29687,0.20313 0.70312,0.20313 0.42188,0 0.79688,-0.20313 0.375,-0.21875 0.51562,-0.59375 0.15625,-0.375 0.15625,-1.07812 v -2.96875 h 0.9375 v 5.53125 z" />
      <path
         style="fill:#000000;fill-opacity:0;fill-rule:evenodd"
         inkscape:connector-curvature="0"
         id="path69"
         d="m 626.61013,352.93909 -53.3183,16.10626" />
      <path
         style="fill-rule:evenodd;stroke:#595959;stroke-width:1;stroke-linecap:butt;stroke-linejoin:round"
         inkscape:connector-curvature="0"
         id="path71"
         d="M 626.61013,352.93909 579.0355,367.31037" />
      <path
         style="fill:#595959;fill-rule:evenodd;stroke:#595959;stroke-width:1;stroke-linecap:butt"
         inkscape:connector-curvature="0"
         id="path73"
         d="m 578.55787,365.72919 -3.86658,2.89343 4.82186,0.26886 z" />
      <path
         style="fill:#000000;fill-opacity:0;fill-rule:evenodd"
         inkscape:connector-curvature="0"
         id="path75"
         d="m 626.61013,352.93909 50.22588,16.10626" />
      <path
         style="fill-rule:evenodd;stroke:#595959;stroke-width:1;stroke-linecap:butt;stroke-linejoin:round"
         inkscape:connector-curvature="0"
         id="path77"
         d="m 626.61013,352.93909 44.51247,14.27417" />
      <path
         style="fill:#595959;fill-rule:evenodd;stroke:#595959;stroke-width:1;stroke-linecap:butt"
         inkscape:connector-curvature="0"
         id="path79"
         d="m 670.61822,368.78609 4.82571,-0.18713 -3.81697,-2.95856 z" />
      <path
         style="fill:#eeeeee;fill-rule:evenodd"
         inkscape:connector-curvature="0"
         id="path81"
         d="m 589.91354,424.80319 h 73.34164 v 28.01208 h -73.34164 z" />
      <path
         style="fill-rule:evenodd;stroke:#595959;stroke-width:1;stroke-linecap:butt;stroke-linejoin:round"
         inkscape:connector-curvature="0"
         id="path83"
         d="m 589.91354,424.80319 h 73.34164 v 28.01208 h -73.34164 z" />
      <path
         style="fill:#000000;fill-rule:nonzero"
         inkscape:connector-curvature="0"
         id="path85"
         d="m 623.54849,442.54925 v -0.9375 l 3.90625,-4.89063 q 0.40625,-0.51562 0.78125,-0.90625 h -4.25 v -0.89062 h 5.46875 v 0.89062 l -4.28125,5.29688 -0.46875,0.53125 h 4.875 v 0.90625 z" />
      <path
         style="fill:#000000;fill-opacity:0;fill-rule:evenodd"
         inkscape:connector-curvature="0"
         id="path87"
         d="m 573.28324,397.05099 53.29253,27.75433" />
      <path
         style="fill-rule:evenodd;stroke:#595959;stroke-width:1;stroke-linecap:butt;stroke-linejoin:round"
         inkscape:connector-curvature="0"
         id="path89"
         d="m 573.28326,397.05099 47.97096,24.98291" />
      <path
         style="fill:#595959;fill-rule:evenodd;stroke:#595959;stroke-width:1;stroke-linecap:butt"
         inkscape:connector-curvature="0"
         id="path91"
         d="m 620.49126,423.49889 4.78792,0.63123 -3.26204,-3.56116 z" />
      <path
         style="fill:#000000;fill-opacity:0;fill-rule:evenodd"
         inkscape:connector-curvature="0"
         id="path93"
         d="m 676.83601,397.05099 -50.22588,27.75433" />
      <path
         style="fill-rule:evenodd;stroke:#595959;stroke-width:1;stroke-linecap:butt;stroke-linejoin:round"
         inkscape:connector-curvature="0"
         id="path95"
         d="m 676.83601,397.05099 -44.97436,24.85242" />
      <path
         style="fill:#595959;fill-rule:evenodd;stroke:#595959;stroke-width:1;stroke-linecap:butt"
         inkscape:connector-curvature="0"
         id="path97"
         d="m 631.06279,420.45776 -3.17313,3.64056 4.77088,-0.7492 z" />
    </g>
    <g
       id="g1021"
       transform="translate(205.99998,4.2e-4)">
      <path
         style="fill:#eeeeee;fill-rule:evenodd"
         inkscape:connector-curvature="0"
         id="path99"
         d="m 380.75719,203.95159 h 73.35434 v 28 h -73.35434 z" />
      <path
         style="fill-rule:evenodd;stroke:#595959;stroke-width:1;stroke-linecap:butt;stroke-linejoin:round"
         inkscape:connector-curvature="0"
         id="path101"
         d="m 380.75719,203.95159 h 73.35434 v 28 h -73.35434 z" />
      <path
         style="fill:#000000;fill-rule:nonzero"
         inkscape:connector-curvature="0"
         id="path103"
         d="m 402.86086,221.69161 v -7.625 h 2.625 q 0.89063,0 1.35938,0.10937 0.65625,0.14063 1.10937,0.54688 0.60938,0.5 0.90625,1.29687 0.29688,0.79688 0.29688,1.8125 0,0.875 -0.20313,1.54688 -0.20312,0.67187 -0.51562,1.10937 -0.3125,0.4375 -0.70313,0.6875 -0.375,0.25 -0.90625,0.39063 -0.53125,0.125 -1.21875,0.125 z m 1,-0.90625 h 1.625 q 0.76563,0 1.1875,-0.14063 0.4375,-0.14062 0.6875,-0.39062 0.35938,-0.35938 0.5625,-0.95313 0.20313,-0.60937 0.20313,-1.48437 0,-1.1875 -0.40625,-1.82813 -0.39063,-0.65625 -0.95313,-0.875 -0.40625,-0.15625 -1.29687,-0.15625 h -1.60938 z m 10.35187,-0.875 0.96875,0.125 q -0.23438,0.84375 -0.85938,1.3125 -0.60937,0.46875 -1.57812,0.46875 -1.20313,0 -1.92188,-0.75 -0.70312,-0.75 -0.70312,-2.09375 0,-1.39063 0.71875,-2.15625 0.71875,-0.78125 1.85937,-0.78125 1.10938,0 1.8125,0.76562 0.70313,0.75 0.70313,2.125 0,0.0781 0,0.23438 h -4.125 q 0.0469,0.92187 0.51562,1.40625 0.46875,0.48437 1.15625,0.48437 0.51563,0 0.875,-0.26562 0.35938,-0.28125 0.57813,-0.875 z m -3.07813,-1.51563 h 3.09375 q -0.0625,-0.6875 -0.35937,-1.04687 -0.45313,-0.53125 -1.15625,-0.53125 -0.64063,0 -1.09375,0.4375 -0.4375,0.42187 -0.48438,1.14062 z m 5.22336,3.29688 v -5.53125 h 0.84375 v 0.79687 q 0.60938,-0.92187 1.75,-0.92187 0.5,0 0.92188,0.1875 0.42187,0.17187 0.625,0.46875 0.21875,0.29687 0.29687,0.6875 0.0469,0.26562 0.0469,0.92187 v 3.39063 h -0.9375 v -3.35938 q 0,-0.57812 -0.10938,-0.85937 -0.10937,-0.28125 -0.39062,-0.45313 -0.26563,-0.17187 -0.64063,-0.17187 -0.59375,0 -1.03125,0.39062 -0.4375,0.375 -0.4375,1.4375 v 3.01563 z m 5.55151,-1.65625 0.92188,-0.14063 q 0.0781,0.5625 0.4375,0.85938 0.35937,0.29687 1,0.29687 0.64062,0 0.95312,-0.26562 0.3125,-0.26563 0.3125,-0.625 0,-0.3125 -0.28125,-0.5 -0.1875,-0.125 -0.95312,-0.3125 -1.03125,-0.26563 -1.4375,-0.45313 -0.39063,-0.1875 -0.59375,-0.51562 -0.20313,-0.34375 -0.20313,-0.75 0,-0.35938 0.17188,-0.67188 0.17187,-0.32812 0.45312,-0.53125 0.21875,-0.15625 0.59375,-0.26562 0.39063,-0.125 0.8125,-0.125 0.65625,0 1.14063,0.1875 0.5,0.1875 0.73437,0.51562 0.23438,0.3125 0.3125,0.85938 l -0.90625,0.125 q -0.0625,-0.4375 -0.375,-0.67188 -0.29687,-0.23437 -0.82812,-0.23437 -0.65625,0 -0.9375,0.21875 -0.26563,0.20312 -0.26563,0.48437 0,0.1875 0.10938,0.32813 0.125,0.15625 0.35937,0.25 0.14063,0.0625 0.82813,0.25 1,0.26562 1.39062,0.4375 0.39063,0.15625 0.60938,0.48437 0.23437,0.3125 0.23437,0.79688 0,0.46875 -0.28125,0.89062 -0.26562,0.40625 -0.78125,0.64063 -0.51562,0.21875 -1.17187,0.21875 -1.07813,0 -1.64063,-0.4375 -0.5625,-0.45313 -0.71875,-1.34375 z m 9.48438,-0.125 0.96875,0.125 q -0.23438,0.84375 -0.85938,1.3125 -0.60937,0.46875 -1.57812,0.46875 -1.20313,0 -1.92188,-0.75 -0.70312,-0.75 -0.70312,-2.09375 0,-1.39063 0.71875,-2.15625 0.71875,-0.78125 1.85937,-0.78125 1.10938,0 1.8125,0.76562 0.70313,0.75 0.70313,2.125 0,0.0781 0,0.23438 h -4.125 q 0.0469,0.92187 0.51562,1.40625 0.46875,0.48437 1.15625,0.48437 0.51563,0 0.875,-0.26562 0.35938,-0.28125 0.57813,-0.875 z m -3.07813,-1.51563 h 3.09375 q -0.0625,-0.6875 -0.35937,-1.04687 -0.45313,-0.53125 -1.15625,-0.53125 -0.64063,0 -1.09375,0.4375 -0.4375,0.42187 -0.48438,1.14062 z" />
      <path
         style="fill:#eeeeee;fill-rule:evenodd"
         inkscape:connector-curvature="0"
         id="path105"
         d="m 381.26116,272.71844 h 73.35434 v 28 h -73.35434 z" />
      <path
         style="fill-rule:evenodd;stroke:#595959;stroke-width:1;stroke-linecap:butt;stroke-linejoin:round"
         inkscape:connector-curvature="0"
         id="path107"
         d="m 381.26116,272.71844 h 73.35434 v 28 h -73.35434 z" />
      <path
         style="fill:#000000;fill-rule:nonzero"
         inkscape:connector-curvature="0"
         id="path109"
         d="m 400.91375,281.94284 0.9375,-0.125 q 0.15625,0.79687 0.54688,1.15625 0.39062,0.34375 0.9375,0.34375 0.65625,0 1.10937,-0.45313 0.46875,-0.46875 0.46875,-1.14062 0,-0.64063 -0.42187,-1.0625 -0.42188,-0.42188 -1.07813,-0.42188 -0.26562,0 -0.65625,0.10938 l 0.10938,-0.82813 q 0.0937,0.0156 0.14062,0.0156 0.59375,0 1.07813,-0.3125 0.48437,-0.3125 0.48437,-0.96875 0,-0.51563 -0.35937,-0.84375 -0.34375,-0.34375 -0.89063,-0.34375 -0.54687,0 -0.92187,0.34375 -0.35938,0.34375 -0.45313,1.03125 l -0.9375,-0.17188 q 0.17188,-0.9375 0.78125,-1.45312 0.60938,-0.51563 1.5,-0.51563 0.625,0 1.15625,0.26563 0.53125,0.26562 0.79688,0.73437 0.28125,0.45313 0.28125,0.98438 0,0.48437 -0.26563,0.89062 -0.26562,0.40625 -0.78125,0.65625 0.67188,0.15625 1.04688,0.65625 0.375,0.48438 0.375,1.21875 0,1 -0.73438,1.70313 -0.71875,0.6875 -1.82812,0.6875 -1,0 -1.67188,-0.59375 -0.65625,-0.60938 -0.75,-1.5625 z m 5.55151,2.01562 2.01563,-2.875 -1.85938,-2.65625 h 1.17188 l 0.84375,1.29688 q 0.23437,0.375 0.39062,0.625 0.21875,-0.34375 0.40625,-0.60938 l 0.9375,-1.3125 h 1.125 l -1.92187,2.60938 2.0625,2.92187 h -1.15625 l -1.125,-1.71875 -0.29688,-0.46875 -1.45312,2.1875 z m 5.70313,-2.01562 0.9375,-0.125 q 0.15625,0.79687 0.54687,1.15625 0.39063,0.34375 0.9375,0.34375 0.65625,0 1.10938,-0.45313 0.46875,-0.46875 0.46875,-1.14062 0,-0.64063 -0.42188,-1.0625 -0.42187,-0.42188 -1.07812,-0.42188 -0.26563,0 -0.65625,0.10938 l 0.10937,-0.82813 q 0.0937,0.0156 0.14063,0.0156 0.59375,0 1.07812,-0.3125 0.48438,-0.3125 0.48438,-0.96875 0,-0.51563 -0.35938,-0.84375 -0.34375,-0.34375 -0.89062,-0.34375 -0.54688,0 -0.92188,0.34375 -0.35937,0.34375 -0.45312,1.03125 l -0.9375,-0.17188 q 0.17187,-0.9375 0.78125,-1.45312 0.60937,-0.51563 1.5,-0.51563 0.625,0 1.15625,0.26563 0.53125,0.26562 0.79687,0.73437 0.28125,0.45313 0.28125,0.98438 0,0.48437 -0.26562,0.89062 -0.26563,0.40625 -0.78125,0.65625 0.67187,0.15625 1.04687,0.65625 0.375,0.48438 0.375,1.21875 0,1 -0.73437,1.70313 -0.71875,0.6875 -1.82813,0.6875 -1,0 -1.67187,-0.59375 -0.65625,-0.60938 -0.75,-1.5625 z m 6.42648,2.01562 v -1.0625 h 1.0625 v 1.0625 q 0,0.59375 -0.21875,0.95313 -0.20312,0.35937 -0.65625,0.5625 l -0.25,-0.40625 q 0.29688,-0.125 0.4375,-0.39063 0.14063,-0.25 0.15625,-0.71875 z m 10.26505,-5.76562 -0.92188,0.0781 q -0.125,-0.54687 -0.35937,-0.79687 -0.375,-0.40625 -0.9375,-0.40625 -0.4375,0 -0.78125,0.25 -0.4375,0.32812 -0.70313,0.95312 -0.25,0.60938 -0.26562,1.75 0.34375,-0.51562 0.82812,-0.76562 0.5,-0.25 1.03125,-0.25 0.9375,0 1.59375,0.70312 0.65625,0.6875 0.65625,1.76563 0,0.71875 -0.3125,1.34375 -0.3125,0.60937 -0.85937,0.9375 -0.53125,0.32812 -1.21875,0.32812 -1.17188,0 -1.90625,-0.85937 -0.73438,-0.85938 -0.73438,-2.82813 0,-2.21875 0.8125,-3.21875 0.71875,-0.875 1.92188,-0.875 0.89062,0 1.46875,0.5 0.57812,0.5 0.6875,1.39063 z m -3.8125,3.29687 q 0,0.48438 0.20312,0.92188 0.20313,0.4375 0.5625,0.67187 0.375,0.23438 0.78125,0.23438 0.59375,0 1.01563,-0.46875 0.4375,-0.48438 0.4375,-1.3125 0,-0.78125 -0.42188,-1.23438 -0.42187,-0.46875 -1.0625,-0.46875 -0.64062,0 -1.07812,0.46875 -0.4375,0.45313 -0.4375,1.1875 z m 7.87964,2.46875 v -1.82812 h -3.29688 v -0.85938 l 3.46875,-4.9375 h 0.76563 v 4.9375 h 1.03125 v 0.85938 h -1.03125 v 1.82812 z m 0,-2.6875 v -3.4375 l -2.375,3.4375 z" />
      <path
         style="fill:#000000;fill-rule:nonzero"
         inkscape:connector-curvature="0"
         id="path111"
         d="m 404.30929,296.95846 v -7.625 h 5.14063 v 0.89063 h -4.125 v 2.375 h 3.57812 v 0.89062 h -3.57812 v 3.46875 z m 6.33737,-6.54687 v -1.07813 h 0.9375 v 1.07813 z m 0,6.54687 v -5.53125 h 0.9375 v 5.53125 z m 2.35187,0 v -7.625 h 0.9375 v 7.625 z m 4.42996,-0.84375 0.125,0.82813 q -0.39062,0.0937 -0.70312,0.0937 -0.5,0 -0.78125,-0.15625 -0.28125,-0.17188 -0.40625,-0.4375 -0.10938,-0.26563 -0.10938,-1.10938 v -3.17187 h -0.6875 v -0.73438 h 0.6875 v -1.35937 l 0.9375,-0.5625 v 1.92187 h 0.9375 v 0.73438 h -0.9375 v 3.23437 q 0,0.39063 0.0469,0.51563 0.0469,0.10937 0.15625,0.1875 0.10937,0.0625 0.32812,0.0625 0.15625,0 0.40625,-0.0469 z m 4.69504,-0.9375 0.96875,0.125 q -0.23438,0.84375 -0.85938,1.3125 -0.60937,0.46875 -1.57812,0.46875 -1.20313,0 -1.92188,-0.75 -0.70312,-0.75 -0.70312,-2.09375 0,-1.39062 0.71875,-2.15625 0.71875,-0.78125 1.85937,-0.78125 1.10938,0 1.8125,0.76563 0.70313,0.75 0.70313,2.125 0,0.0781 0,0.23437 h -4.125 q 0.0469,0.92188 0.51562,1.40625 0.46875,0.48438 1.15625,0.48438 0.51563,0 0.875,-0.26563 0.35938,-0.28125 0.57813,-0.875 z m -3.07813,-1.51562 h 3.09375 q -0.0625,-0.6875 -0.35937,-1.04688 -0.45313,-0.53125 -1.15625,-0.53125 -0.64063,0 -1.09375,0.4375 -0.4375,0.42188 -0.48438,1.14063 z m 5.20774,3.29687 v -5.53125 h 0.84375 v 0.84375 q 0.32812,-0.59375 0.59375,-0.78125 0.28125,-0.1875 0.60937,-0.1875 0.46875,0 0.95313,0.3125 l -0.3125,0.85938 q -0.34375,-0.20313 -0.6875,-0.20313 -0.3125,0 -0.5625,0.1875 -0.23438,0.1875 -0.34375,0.51563 -0.15625,0.5 -0.15625,1.09375 v 2.89062 z m 3.18924,-1.65625 0.92187,-0.14062 q 0.0781,0.5625 0.4375,0.85937 0.35938,0.29688 1,0.29688 0.64063,0 0.95313,-0.26563 0.3125,-0.26562 0.3125,-0.625 0,-0.3125 -0.28125,-0.5 -0.1875,-0.125 -0.95313,-0.3125 -1.03125,-0.26562 -1.4375,-0.45312 -0.39062,-0.1875 -0.59375,-0.51563 -0.20312,-0.34375 -0.20312,-0.75 0,-0.35937 0.17187,-0.67187 0.17188,-0.32813 0.45313,-0.53125 0.21875,-0.15625 0.59375,-0.26563 0.39062,-0.125 0.8125,-0.125 0.65625,0 1.14062,0.1875 0.5,0.1875 0.73438,0.51563 0.23437,0.3125 0.3125,0.85937 l -0.90625,0.125 q -0.0625,-0.4375 -0.375,-0.67187 -0.29688,-0.23438 -0.82813,-0.23438 -0.65625,0 -0.9375,0.21875 -0.26562,0.20313 -0.26562,0.48438 0,0.1875 0.10937,0.32812 0.125,0.15625 0.35938,0.25 0.14062,0.0625 0.82812,0.25 1,0.26563 1.39063,0.4375 0.39062,0.15625 0.60937,0.48438 0.23438,0.3125 0.23438,0.79687 0,0.46875 -0.28125,0.89063 -0.26563,0.40625 -0.78125,0.64062 -0.51563,0.21875 -1.17188,0.21875 -1.07812,0 -1.64062,-0.4375 -0.5625,-0.45312 -0.71875,-1.34375 z" />
      <path
         style="fill:#000000;fill-opacity:0;fill-rule:evenodd"
         inkscape:connector-curvature="0"
         id="path113"
         d="m 373.38802,246.50827 h 88.09451 v 11.65353 h -88.09451 z" />
      <path
         style="fill:#000000;fill-rule:nonzero"
         inkscape:connector-curvature="0"
         id="path115"
         d="m 396.95092,256.07504 v -7.625 h 3.375 q 1.01563,0 1.54688,0.20313 0.53125,0.20312 0.84375,0.73437 0.32812,0.51563 0.32812,1.14063 0,0.8125 -0.53125,1.375 -0.51562,0.54687 -1.625,0.70312 0.40625,0.1875 0.60938,0.375 0.45312,0.40625 0.84375,1.01563 l 1.32812,2.07812 h -1.26562 l -1.01563,-1.59375 q -0.4375,-0.6875 -0.73437,-1.04687 -0.28125,-0.35938 -0.51563,-0.5 -0.21875,-0.15625 -0.45312,-0.20313 -0.17188,-0.0469 -0.5625,-0.0469 h -1.17188 v 3.39062 z m 1,-4.26562 h 2.17188 q 0.6875,0 1.07812,-0.14063 0.39063,-0.14062 0.59375,-0.45312 0.20313,-0.3125 0.20313,-0.6875 0,-0.54688 -0.39063,-0.89063 -0.39062,-0.34375 -1.23437,-0.34375 h -2.42188 z m 10.33624,2.48437 0.96875,0.125 q -0.23437,0.84375 -0.85937,1.3125 -0.60938,0.46875 -1.57813,0.46875 -1.20312,0 -1.92187,-0.75 -0.70313,-0.75 -0.70313,-2.09375 0,-1.39062 0.71875,-2.15625 0.71875,-0.78125 1.85938,-0.78125 1.10937,0 1.8125,0.76563 0.70312,0.75 0.70312,2.125 0,0.0781 0,0.23437 h -4.125 q 0.0469,0.92188 0.51563,1.40625 0.46875,0.48438 1.15625,0.48438 0.51562,0 0.875,-0.26563 0.35937,-0.28125 0.57812,-0.875 z m -3.07812,-1.51562 h 3.09375 q -0.0625,-0.6875 -0.35938,-1.04688 -0.45312,-0.53125 -1.15625,-0.53125 -0.64062,0 -1.09375,0.4375 -0.4375,0.42188 -0.48437,1.14063 z m 4.84836,1.64062 0.92187,-0.14062 q 0.0781,0.5625 0.4375,0.85937 0.35938,0.29688 1,0.29688 0.64063,0 0.95313,-0.26563 0.3125,-0.26562 0.3125,-0.625 0,-0.3125 -0.28125,-0.5 -0.1875,-0.125 -0.95313,-0.3125 -1.03125,-0.26562 -1.4375,-0.45312 -0.39062,-0.1875 -0.59375,-0.51563 -0.20312,-0.34375 -0.20312,-0.75 0,-0.35937 0.17187,-0.67187 0.17188,-0.32813 0.45313,-0.53125 0.21875,-0.15625 0.59375,-0.26563 0.39062,-0.125 0.8125,-0.125 0.65625,0 1.14062,0.1875 0.5,0.1875 0.73438,0.51563 0.23437,0.3125 0.3125,0.85937 l -0.90625,0.125 q -0.0625,-0.4375 -0.375,-0.67187 -0.29688,-0.23438 -0.82813,-0.23438 -0.65625,0 -0.9375,0.21875 -0.26562,0.20313 -0.26562,0.48438 0,0.1875 0.10937,0.32812 0.125,0.15625 0.35938,0.25 0.14062,0.0625 0.82812,0.25 1,0.26563 1.39063,0.4375 0.39062,0.15625 0.60937,0.48438 0.23438,0.3125 0.23438,0.79687 0,0.46875 -0.28125,0.89063 -0.26563,0.40625 -0.78125,0.64062 -0.51563,0.21875 -1.17188,0.21875 -1.07812,0 -1.64062,-0.4375 -0.5625,-0.45312 -0.71875,-1.34375 z m 5.70312,1.65625 v -7.625 h 0.9375 v 2.73438 q 0.65625,-0.76563 1.65625,-0.76563 0.60938,0 1.0625,0.25 0.45313,0.23438 0.64063,0.67188 0.20312,0.42187 0.20312,1.23437 v 3.5 h -0.9375 v -3.5 q 0,-0.70312 -0.3125,-1.01562 -0.29687,-0.32813 -0.85937,-0.32813 -0.40625,0 -0.78125,0.21875 -0.35938,0.21875 -0.51563,0.59375 -0.15625,0.35938 -0.15625,1.01563 v 3.01562 z m 9.53589,-0.6875 q -0.53125,0.45313 -1.01562,0.64063 -0.46875,0.17187 -1.01563,0.17187 -0.92187,0 -1.40625,-0.4375 -0.48437,-0.45312 -0.48437,-1.14062 0,-0.40625 0.17187,-0.73438 0.1875,-0.34375 0.48438,-0.54687 0.3125,-0.20313 0.6875,-0.3125 0.26562,-0.0625 0.82812,-0.14063 1.125,-0.125 1.67188,-0.3125 0,-0.20312 0,-0.25 0,-0.57812 -0.26563,-0.8125 -0.35937,-0.3125 -1.0625,-0.3125 -0.65625,0 -0.98437,0.23438 -0.3125,0.23437 -0.45313,0.8125 l -0.92187,-0.125 q 0.125,-0.57813 0.40625,-0.9375 0.29687,-0.375 0.82812,-0.5625 0.54688,-0.20313 1.25,-0.20313 0.71875,0 1.15625,0.17188 0.4375,0.17187 0.64063,0.42187 0.21875,0.25 0.29687,0.64063 0.0469,0.23437 0.0469,0.85937 v 1.25 q 0,1.29688 0.0625,1.65625 0.0625,0.34375 0.23437,0.65625 h -0.96875 q -0.15625,-0.29687 -0.1875,-0.6875 z m -0.0781,-2.07812 q -0.51563,0.20312 -1.53125,0.34375 -0.57813,0.0781 -0.82813,0.1875 -0.23437,0.10937 -0.35937,0.3125 -0.125,0.1875 -0.125,0.4375 0,0.375 0.28125,0.625 0.28125,0.25 0.82812,0.25 0.53125,0 0.95313,-0.23438 0.42187,-0.23437 0.625,-0.65625 0.15625,-0.3125 0.15625,-0.9375 z m 2.39523,4.89062 v -7.65625 h 0.85937 v 0.71875 q 0.29688,-0.42187 0.67188,-0.625 0.39062,-0.21875 0.92187,-0.21875 0.70313,0 1.25,0.375 0.54688,0.35938 0.8125,1.03125 0.28125,0.65625 0.28125,1.45313 0,0.84375 -0.3125,1.53125 -0.29687,0.67187 -0.875,1.03125 -0.57812,0.35937 -1.21875,0.35937 -0.46875,0 -0.84375,-0.1875 -0.375,-0.20312 -0.60937,-0.51562 v 2.70312 z m 0.84375,-4.85937 q 0,1.0625 0.4375,1.57812 0.4375,0.51563 1.04687,0.51563 0.625,0 1.0625,-0.53125 0.45313,-0.53125 0.45313,-1.64063 0,-1.04687 -0.4375,-1.57812 -0.4375,-0.53125 -1.04688,-0.53125 -0.59375,0 -1.0625,0.5625 -0.45312,0.5625 -0.45312,1.625 z m 8.86401,0.95312 0.96872,0.125 q -0.23437,0.84375 -0.85937,1.3125 -0.60935,0.46875 -1.5781,0.46875 -1.20312,0 -1.92187,-0.75 -0.70313,-0.75 -0.70313,-2.09375 0,-1.39062 0.71875,-2.15625 0.71875,-0.78125 1.85938,-0.78125 1.10937,0 1.81247,0.76563 0.70312,0.75 0.70312,2.125 0,0.0781 0,0.23437 h -4.12497 q 0.0469,0.92188 0.51563,1.40625 0.46875,0.48438 1.15625,0.48438 0.51562,0 0.875,-0.26563 0.35937,-0.28125 0.57812,-0.875 z m -3.07812,-1.51562 h 3.09375 q -0.0625,-0.6875 -0.35938,-1.04688 -0.45312,-0.53125 -1.15625,-0.53125 -0.64062,0 -1.09375,0.4375 -0.4375,0.42188 -0.48437,1.14063 z" />
      <path
         style="fill:#000000;fill-opacity:0;fill-rule:evenodd"
         inkscape:connector-curvature="0"
         id="path117"
         d="m 373.38802,315.27511 h 88.09451 v 11.65353 h -88.09451 z" />
      <path
         style="fill:#000000;fill-rule:nonzero"
         inkscape:connector-curvature="0"
         id="path119"
         d="m 401.99289,324.84189 v -7.625 h 3.375 q 1.01562,0 1.54687,0.20312 0.53125,0.20313 0.84375,0.73438 0.32813,0.51562 0.32813,1.14062 0,0.8125 -0.53125,1.375 -0.51563,0.54688 -1.625,0.70313 0.40625,0.1875 0.60937,0.375 0.45313,0.40625 0.84375,1.01562 l 1.32813,2.07813 h -1.26563 l -1.01562,-1.59375 q -0.4375,-0.6875 -0.73438,-1.04688 -0.28125,-0.35937 -0.51562,-0.5 -0.21875,-0.15625 -0.45313,-0.20312 -0.17187,-0.0469 -0.5625,-0.0469 h -1.17187 v 3.39063 z m 1,-4.26563 h 2.17187 q 0.6875,0 1.07813,-0.14062 0.39062,-0.14063 0.59375,-0.45313 0.20312,-0.3125 0.20312,-0.6875 0,-0.54687 -0.39062,-0.89062 -0.39063,-0.34375 -1.23438,-0.34375 h -2.42187 z m 10.33621,2.48438 0.96875,0.125 q -0.23437,0.84375 -0.85937,1.3125 -0.60938,0.46875 -1.57813,0.46875 -1.20312,0 -1.92187,-0.75 -0.70313,-0.75 -0.70313,-2.09375 0,-1.39063 0.71875,-2.15625 0.71875,-0.78125 1.85938,-0.78125 1.10937,0 1.8125,0.76562 0.70312,0.75 0.70312,2.125 0,0.0781 0,0.23438 h -4.125 q 0.0469,0.92187 0.51563,1.40625 0.46875,0.48437 1.15625,0.48437 0.51562,0 0.875,-0.26562 0.35937,-0.28125 0.57812,-0.875 z m -3.07812,-1.51563 h 3.09375 q -0.0625,-0.6875 -0.35938,-1.04687 -0.45312,-0.53125 -1.15625,-0.53125 -0.64062,0 -1.09375,0.4375 -0.4375,0.42187 -0.48437,1.14062 z m 4.84839,1.64063 0.92187,-0.14063 q 0.0781,0.5625 0.4375,0.85938 0.35938,0.29687 1,0.29687 0.64063,0 0.95313,-0.26562 0.3125,-0.26563 0.3125,-0.625 0,-0.3125 -0.28125,-0.5 -0.1875,-0.125 -0.95313,-0.3125 -1.03125,-0.26563 -1.4375,-0.45313 -0.39062,-0.1875 -0.59375,-0.51562 -0.20312,-0.34375 -0.20312,-0.75 0,-0.35938 0.17187,-0.67188 0.17188,-0.32812 0.45313,-0.53125 0.21875,-0.15625 0.59375,-0.26562 0.39062,-0.125 0.8125,-0.125 0.65625,0 1.14062,0.1875 0.5,0.1875 0.73438,0.51562 0.23437,0.3125 0.3125,0.85938 l -0.90625,0.125 q -0.0625,-0.4375 -0.375,-0.67188 -0.29688,-0.23437 -0.82813,-0.23437 -0.65625,0 -0.9375,0.21875 -0.26562,0.20312 -0.26562,0.48437 0,0.1875 0.10937,0.32813 0.125,0.15625 0.35938,0.25 0.14062,0.0625 0.82812,0.25 1,0.26562 1.39063,0.4375 0.39062,0.15625 0.60937,0.48437 0.23438,0.3125 0.23438,0.79688 0,0.46875 -0.28125,0.89062 -0.26563,0.40625 -0.78125,0.64063 -0.51563,0.21875 -1.17188,0.21875 -1.07812,0 -1.64062,-0.4375 -0.5625,-0.45313 -0.71875,-1.34375 z m 5.70312,-4.89063 v -1.07812 h 0.9375 v 1.07812 z m 0,6.54688 v -5.53125 h 0.9375 v 5.53125 z m 1.86746,0 v -0.76563 l 3.51563,-4.03125 q -0.59375,0.0312 -1.04688,0.0312 h -2.25 v -0.76562 h 4.51563 v 0.625 l -3,3.5 -0.57813,0.64062 q 0.64063,-0.0469 1.1875,-0.0469 h 2.54688 v 0.8125 z m 9.60938,-1.78125 0.96875,0.125 q -0.23438,0.84375 -0.85938,1.3125 -0.60937,0.46875 -1.57812,0.46875 -1.20313,0 -1.92188,-0.75 -0.70312,-0.75 -0.70312,-2.09375 0,-1.39063 0.71875,-2.15625 0.71875,-0.78125 1.85937,-0.78125 1.10938,0 1.8125,0.76562 0.70313,0.75 0.70313,2.125 0,0.0781 0,0.23438 h -4.125 q 0.0469,0.92187 0.51562,1.40625 0.46875,0.48437 1.15625,0.48437 0.51563,0 0.875,-0.26562 0.35938,-0.28125 0.57813,-0.875 z m -3.07813,-1.51563 h 3.09375 q -0.0625,-0.6875 -0.35937,-1.04687 -0.45313,-0.53125 -1.15625,-0.53125 -0.64063,0 -1.09375,0.4375 -0.4375,0.42187 -0.48438,1.14062 z" />
      <path
         style="fill:#eeeeee;fill-rule:evenodd"
         inkscape:connector-curvature="0"
         id="path121"
         d="m 365.51299,341.48529 h 103.84253 v 28 H 365.51299 Z" />
      <path
         style="fill-rule:evenodd;stroke:#595959;stroke-width:1;stroke-linecap:butt;stroke-linejoin:round"
         inkscape:connector-curvature="0"
         id="path123"
         d="m 365.51299,341.48529 h 103.84253 v 28 H 365.51299 Z" />
      <path
         style="fill:#000000;fill-rule:nonzero"
         inkscape:connector-curvature="0"
         id="path125"
         d="m 384.42532,357.20965 0.9375,-0.125 q 0.15625,0.79687 0.54688,1.15625 0.39062,0.34375 0.9375,0.34375 0.65625,0 1.10937,-0.45313 0.46875,-0.46875 0.46875,-1.14062 0,-0.64063 -0.42187,-1.0625 -0.42188,-0.42188 -1.07813,-0.42188 -0.26562,0 -0.65625,0.10938 l 0.10938,-0.82813 q 0.0937,0.0156 0.14062,0.0156 0.59375,0 1.07813,-0.3125 0.48437,-0.3125 0.48437,-0.96875 0,-0.51563 -0.35937,-0.84375 -0.34375,-0.34375 -0.89063,-0.34375 -0.54687,0 -0.92187,0.34375 -0.35938,0.34375 -0.45313,1.03125 l -0.9375,-0.17188 q 0.17188,-0.9375 0.78125,-1.45312 0.60938,-0.51563 1.5,-0.51563 0.625,0 1.15625,0.26563 0.53125,0.26562 0.79688,0.73437 0.28125,0.45313 0.28125,0.98438 0,0.48437 -0.26563,0.89062 -0.26562,0.40625 -0.78125,0.65625 0.67188,0.15625 1.04688,0.65625 0.375,0.48438 0.375,1.21875 0,1 -0.73438,1.70313 -0.71875,0.6875 -1.82812,0.6875 -1,0 -1.67188,-0.59375 -0.65625,-0.60938 -0.75,-1.5625 z m 5.55148,2.01562 2.01563,-2.875 -1.85938,-2.65625 h 1.17188 l 0.84375,1.29688 q 0.23437,0.375 0.39062,0.625 0.21875,-0.34375 0.40625,-0.60938 l 0.9375,-1.3125 h 1.125 l -1.92187,2.60938 2.0625,2.92187 h -1.15625 l -1.125,-1.71875 -0.29688,-0.46875 -1.45312,2.1875 z m 5.70313,-2.01562 0.9375,-0.125 q 0.15625,0.79687 0.54687,1.15625 0.39063,0.34375 0.9375,0.34375 0.65625,0 1.10938,-0.45313 0.46875,-0.46875 0.46875,-1.14062 0,-0.64063 -0.42188,-1.0625 -0.42187,-0.42188 -1.07812,-0.42188 -0.26563,0 -0.65625,0.10938 l 0.10937,-0.82813 q 0.0937,0.0156 0.14063,0.0156 0.59375,0 1.07812,-0.3125 0.48438,-0.3125 0.48438,-0.96875 0,-0.51563 -0.35938,-0.84375 -0.34375,-0.34375 -0.89062,-0.34375 -0.54688,0 -0.92188,0.34375 -0.35937,0.34375 -0.45312,1.03125 l -0.9375,-0.17188 q 0.17187,-0.9375 0.78125,-1.45312 0.60937,-0.51563 1.5,-0.51563 0.625,0 1.15625,0.26563 0.53125,0.26562 0.79687,0.73437 0.28125,0.45313 0.28125,0.98438 0,0.48437 -0.26562,0.89062 -0.26563,0.40625 -0.78125,0.65625 0.67187,0.15625 1.04687,0.65625 0.375,0.48438 0.375,1.21875 0,1 -0.73437,1.70313 -0.71875,0.6875 -1.82813,0.6875 -1,0 -1.67187,-0.59375 -0.65625,-0.60938 -0.75,-1.5625 z m 6.42651,2.01562 v -1.0625 h 1.0625 v 1.0625 q 0,0.59375 -0.21875,0.95313 -0.20312,0.35937 -0.65625,0.5625 l -0.25,-0.40625 q 0.29688,-0.125 0.4375,-0.39063 0.14063,-0.25 0.15625,-0.71875 z m 5.4213,-2.01562 0.9375,-0.125 q 0.15625,0.79687 0.54687,1.15625 0.39063,0.34375 0.9375,0.34375 0.65625,0 1.10938,-0.45313 0.46875,-0.46875 0.46875,-1.14062 0,-0.64063 -0.42188,-1.0625 -0.42187,-0.42188 -1.07812,-0.42188 -0.26563,0 -0.65625,0.10938 l 0.10937,-0.82813 q 0.0937,0.0156 0.14063,0.0156 0.59375,0 1.07812,-0.3125 0.48438,-0.3125 0.48438,-0.96875 0,-0.51563 -0.35938,-0.84375 -0.34375,-0.34375 -0.89062,-0.34375 -0.54688,0 -0.92188,0.34375 -0.35937,0.34375 -0.45312,1.03125 l -0.9375,-0.17188 q 0.17187,-0.9375 0.78125,-1.45312 0.60937,-0.51563 1.5,-0.51563 0.625,0 1.15625,0.26563 0.53125,0.26562 0.79687,0.73437 0.28125,0.45313 0.28125,0.98438 0,0.48437 -0.26562,0.89062 -0.26563,0.40625 -0.78125,0.65625 0.67187,0.15625 1.04687,0.65625 0.375,0.48438 0.375,1.21875 0,1 -0.73437,1.70313 -0.71875,0.6875 -1.82813,0.6875 -1,0 -1.67187,-0.59375 -0.65625,-0.60938 -0.75,-1.5625 z m 10.83273,1.10937 v 0.90625 h -5.03125 q -0.0156,-0.34375 0.10937,-0.65625 0.1875,-0.51562 0.60938,-1.01562 0.42187,-0.5 1.23437,-1.14063 1.23438,-1.03125 1.67188,-1.625 0.4375,-0.59375 0.4375,-1.125 0,-0.5625 -0.40625,-0.9375 -0.39063,-0.39062 -1.03125,-0.39062 -0.67188,0 -1.07813,0.40625 -0.40625,0.40625 -0.40625,1.125 l -0.96875,-0.0937 q 0.0937,-1.07813 0.73438,-1.64063 0.65625,-0.5625 1.73437,-0.5625 1.10938,0 1.75,0.60938 0.64063,0.60937 0.64063,1.5 0,0.46875 -0.1875,0.90625 -0.1875,0.4375 -0.625,0.9375 -0.4375,0.48437 -1.45313,1.32812 -0.82812,0.71875 -1.07812,0.96875 -0.23438,0.25 -0.39063,0.5 z m 4.40277,0.90625 v -7.625 h 5.14063 v 0.89063 h -4.125 v 2.375 h 3.57812 v 0.89062 h -3.57812 v 3.46875 z m 6.3374,-6.54687 v -1.07813 h 0.9375 v 1.07813 z m 0,6.54687 v -5.53125 h 0.9375 v 5.53125 z m 2.35184,0 v -7.625 h 0.9375 v 7.625 z m 4.42999,-0.84375 0.125,0.82813 q -0.39062,0.0937 -0.70312,0.0937 -0.5,0 -0.78125,-0.15625 -0.28125,-0.17188 -0.40625,-0.4375 -0.10938,-0.26563 -0.10938,-1.10938 v -3.17187 h -0.6875 v -0.73438 h 0.6875 v -1.35937 l 0.9375,-0.5625 v 1.92187 h 0.9375 v 0.73438 h -0.9375 v 3.23437 q 0,0.39063 0.0469,0.51563 0.0469,0.10937 0.15625,0.1875 0.10937,0.0625 0.32812,0.0625 0.15625,0 0.40625,-0.0469 z m 4.69501,-0.9375 0.96875,0.125 q -0.23437,0.84375 -0.85937,1.3125 -0.60938,0.46875 -1.57813,0.46875 -1.20312,0 -1.92187,-0.75 -0.70313,-0.75 -0.70313,-2.09375 0,-1.39062 0.71875,-2.15625 0.71875,-0.78125 1.85938,-0.78125 1.10937,0 1.8125,0.76563 0.70312,0.75 0.70312,2.125 0,0.0781 0,0.23437 h -4.125 q 0.0469,0.92188 0.51563,1.40625 0.46875,0.48438 1.15625,0.48438 0.51562,0 0.875,-0.26563 0.35937,-0.28125 0.57812,-0.875 z m -3.07812,-1.51562 h 3.09375 q -0.0625,-0.6875 -0.35938,-1.04688 -0.45312,-0.53125 -1.15625,-0.53125 -0.64062,0 -1.09375,0.4375 -0.4375,0.42188 -0.48437,1.14063 z m 5.20776,3.29687 v -5.53125 h 0.84375 v 0.84375 q 0.32812,-0.59375 0.59375,-0.78125 0.28125,-0.1875 0.60937,-0.1875 0.46875,0 0.95313,0.3125 l -0.3125,0.85938 q -0.34375,-0.20313 -0.6875,-0.20313 -0.3125,0 -0.5625,0.1875 -0.23438,0.1875 -0.34375,0.51563 -0.15625,0.5 -0.15625,1.09375 v 2.89062 z m 3.18924,-1.65625 0.92187,-0.14062 q 0.0781,0.5625 0.4375,0.85937 0.35938,0.29688 1,0.29688 0.64063,0 0.95313,-0.26563 0.3125,-0.26562 0.3125,-0.625 0,-0.3125 -0.28125,-0.5 -0.1875,-0.125 -0.95313,-0.3125 -1.03125,-0.26562 -1.4375,-0.45312 -0.39062,-0.1875 -0.59375,-0.51563 -0.20312,-0.34375 -0.20312,-0.75 0,-0.35937 0.17187,-0.67187 0.17188,-0.32813 0.45313,-0.53125 0.21875,-0.15625 0.59375,-0.26563 0.39062,-0.125 0.8125,-0.125 0.65625,0 1.14062,0.1875 0.5,0.1875 0.73438,0.51563 0.23437,0.3125 0.3125,0.85937 l -0.90625,0.125 q -0.0625,-0.4375 -0.375,-0.67187 -0.29688,-0.23438 -0.82813,-0.23438 -0.65625,0 -0.9375,0.21875 -0.26562,0.20313 -0.26562,0.48438 0,0.1875 0.10937,0.32812 0.125,0.15625 0.35938,0.25 0.14062,0.0625 0.82812,0.25 1,0.26563 1.39063,0.4375 0.39062,0.15625 0.60937,0.48438 0.23438,0.3125 0.23438,0.79687 0,0.46875 -0.28125,0.89063 -0.26563,0.40625 -0.78125,0.64062 -0.51563,0.21875 -1.17188,0.21875 -1.07812,0 -1.64062,-0.4375 -0.5625,-0.45312 -0.71875,-1.34375 z" />
      <path
         style="fill:#000000;fill-opacity:0;fill-rule:evenodd"
         inkscape:connector-curvature="0"
         id="path127"
         d="m 373.38802,384.04193 h 88.09451 v 11.65356 h -88.09451 z" />
      <path
         style="fill:#000000;fill-rule:nonzero"
         inkscape:connector-curvature="0"
         id="path129"
         d="m 401.99289,393.60869 v -7.625 h 3.375 q 1.01562,0 1.54687,0.20312 0.53125,0.20313 0.84375,0.73438 0.32813,0.51562 0.32813,1.14062 0,0.8125 -0.53125,1.375 -0.51563,0.54688 -1.625,0.70313 0.40625,0.1875 0.60937,0.375 0.45313,0.40625 0.84375,1.01562 l 1.32813,2.07813 h -1.26563 l -1.01562,-1.59375 q -0.4375,-0.6875 -0.73438,-1.04688 -0.28125,-0.35937 -0.51562,-0.5 -0.21875,-0.15625 -0.45313,-0.20312 -0.17187,-0.0469 -0.5625,-0.0469 h -1.17187 v 3.39063 z m 1,-4.26563 h 2.17187 q 0.6875,0 1.07813,-0.14062 0.39062,-0.14063 0.59375,-0.45313 0.20312,-0.3125 0.20312,-0.6875 0,-0.54687 -0.39062,-0.89062 -0.39063,-0.34375 -1.23438,-0.34375 h -2.42187 z m 10.33621,2.48438 0.96875,0.125 q -0.23437,0.84375 -0.85937,1.3125 -0.60938,0.46875 -1.57813,0.46875 -1.20312,0 -1.92187,-0.75 -0.70313,-0.75 -0.70313,-2.09375 0,-1.39063 0.71875,-2.15625 0.71875,-0.78125 1.85938,-0.78125 1.10937,0 1.8125,0.76562 0.70312,0.75 0.70312,2.125 0,0.0781 0,0.23438 h -4.125 q 0.0469,0.92187 0.51563,1.40625 0.46875,0.48437 1.15625,0.48437 0.51562,0 0.875,-0.26562 0.35937,-0.28125 0.57812,-0.875 z m -3.07812,-1.51563 h 3.09375 q -0.0625,-0.6875 -0.35938,-1.04687 -0.45312,-0.53125 -1.15625,-0.53125 -0.64062,0 -1.09375,0.4375 -0.4375,0.42187 -0.48437,1.14062 z m 4.84839,1.64063 0.92187,-0.14063 q 0.0781,0.5625 0.4375,0.85938 0.35938,0.29687 1,0.29687 0.64063,0 0.95313,-0.26562 0.3125,-0.26563 0.3125,-0.625 0,-0.3125 -0.28125,-0.5 -0.1875,-0.125 -0.95313,-0.3125 -1.03125,-0.26563 -1.4375,-0.45313 -0.39062,-0.1875 -0.59375,-0.51562 -0.20312,-0.34375 -0.20312,-0.75 0,-0.35938 0.17187,-0.67188 0.17188,-0.32812 0.45313,-0.53125 0.21875,-0.15625 0.59375,-0.26562 0.39062,-0.125 0.8125,-0.125 0.65625,0 1.14062,0.1875 0.5,0.1875 0.73438,0.51562 0.23437,0.3125 0.3125,0.85938 l -0.90625,0.125 q -0.0625,-0.4375 -0.375,-0.67188 -0.29688,-0.23437 -0.82813,-0.23437 -0.65625,0 -0.9375,0.21875 -0.26562,0.20312 -0.26562,0.48437 0,0.1875 0.10937,0.32813 0.125,0.15625 0.35938,0.25 0.14062,0.0625 0.82812,0.25 1,0.26562 1.39063,0.4375 0.39062,0.15625 0.60937,0.48437 0.23438,0.3125 0.23438,0.79688 0,0.46875 -0.28125,0.89062 -0.26563,0.40625 -0.78125,0.64063 -0.51563,0.21875 -1.17188,0.21875 -1.07812,0 -1.64062,-0.4375 -0.5625,-0.45313 -0.71875,-1.34375 z m 5.70312,-4.89063 v -1.07812 h 0.9375 v 1.07812 z m 0,6.54688 v -5.53125 h 0.9375 v 5.53125 z m 1.86746,0 v -0.76563 l 3.51563,-4.03125 q -0.59375,0.0312 -1.04688,0.0312 h -2.25 v -0.76562 h 4.51563 v 0.625 l -3,3.5 -0.57813,0.64062 q 0.64063,-0.0469 1.1875,-0.0469 h 2.54688 v 0.8125 z m 9.60938,-1.78125 0.96875,0.125 q -0.23438,0.84375 -0.85938,1.3125 -0.60937,0.46875 -1.57812,0.46875 -1.20313,0 -1.92188,-0.75 -0.70312,-0.75 -0.70312,-2.09375 0,-1.39063 0.71875,-2.15625 0.71875,-0.78125 1.85937,-0.78125 1.10938,0 1.8125,0.76562 0.70313,0.75 0.70313,2.125 0,0.0781 0,0.23438 h -4.125 q 0.0469,0.92187 0.51562,1.40625 0.46875,0.48437 1.15625,0.48437 0.51563,0 0.875,-0.26562 0.35938,-0.28125 0.57813,-0.875 z m -3.07813,-1.51563 h 3.09375 q -0.0625,-0.6875 -0.35937,-1.04687 -0.45313,-0.53125 -1.15625,-0.53125 -0.64063,0 -1.09375,0.4375 -0.4375,0.42187 -0.48438,1.14062 z" />
      <path
         style="fill:#eeeeee;fill-rule:evenodd"
         inkscape:connector-curvature="0"
         id="path131"
         d="m 348.83547,410.25213 h 137.19684 v 28 H 348.83547 Z" />
      <path
         style="fill-rule:evenodd;stroke:#595959;stroke-width:1;stroke-linecap:butt;stroke-linejoin:round"
         inkscape:connector-curvature="0"
         id="path133"
         d="m 348.83547,410.25213 h 137.19684 v 28 H 348.83547 Z" />
      <path
         style="fill:#000000;fill-rule:nonzero"
         inkscape:connector-curvature="0"
         id="path135"
         d="m 387.38819,425.97649 0.9375,-0.125 q 0.15625,0.79687 0.54688,1.15625 0.39062,0.34375 0.9375,0.34375 0.65625,0 1.10937,-0.45313 0.46875,-0.46875 0.46875,-1.14062 0,-0.64063 -0.42187,-1.0625 -0.42188,-0.42188 -1.07813,-0.42188 -0.26562,0 -0.65625,0.10938 l 0.10938,-0.82813 q 0.0937,0.0156 0.14062,0.0156 0.59375,0 1.07813,-0.3125 0.48437,-0.3125 0.48437,-0.96875 0,-0.51563 -0.35937,-0.84375 -0.34375,-0.34375 -0.89063,-0.34375 -0.54687,0 -0.92187,0.34375 -0.35938,0.34375 -0.45313,1.03125 l -0.9375,-0.17188 q 0.17188,-0.9375 0.78125,-1.45312 0.60938,-0.51563 1.5,-0.51563 0.625,0 1.15625,0.26563 0.53125,0.26562 0.79688,0.73437 0.28125,0.45313 0.28125,0.98438 0,0.48437 -0.26563,0.89062 -0.26562,0.40625 -0.78125,0.65625 0.67188,0.15625 1.04688,0.65625 0.375,0.48438 0.375,1.21875 0,1 -0.73438,1.70313 -0.71875,0.6875 -1.82812,0.6875 -1,0 -1.67188,-0.59375 -0.65625,-0.60938 -0.75,-1.5625 z m 5.55151,2.01562 2.01563,-2.875 -1.85938,-2.65625 h 1.17188 l 0.84375,1.29688 q 0.23437,0.375 0.39062,0.625 0.21875,-0.34375 0.40625,-0.60938 l 0.9375,-1.3125 h 1.125 l -1.92187,2.60938 2.0625,2.92187 h -1.15625 l -1.125,-1.71875 -0.29688,-0.46875 -1.45312,2.1875 z m 5.70313,-2.01562 0.9375,-0.125 q 0.15625,0.79687 0.54687,1.15625 0.39063,0.34375 0.9375,0.34375 0.65625,0 1.10938,-0.45313 0.46875,-0.46875 0.46875,-1.14062 0,-0.64063 -0.42188,-1.0625 -0.42187,-0.42188 -1.07812,-0.42188 -0.26563,0 -0.65625,0.10938 l 0.10937,-0.82813 q 0.0937,0.0156 0.14063,0.0156 0.59375,0 1.07812,-0.3125 0.48438,-0.3125 0.48438,-0.96875 0,-0.51563 -0.35938,-0.84375 -0.34375,-0.34375 -0.89062,-0.34375 -0.54688,0 -0.92188,0.34375 -0.35937,0.34375 -0.45312,1.03125 l -0.9375,-0.17188 q 0.17187,-0.9375 0.78125,-1.45312 0.60937,-0.51563 1.5,-0.51563 0.625,0 1.15625,0.26563 0.53125,0.26562 0.79687,0.73437 0.28125,0.45313 0.28125,0.98438 0,0.48437 -0.26562,0.89062 -0.26563,0.40625 -0.78125,0.65625 0.67187,0.15625 1.04687,0.65625 0.375,0.48438 0.375,1.21875 0,1 -0.73437,1.70313 -0.71875,0.6875 -1.82813,0.6875 -1,0 -1.67187,-0.59375 -0.65625,-0.60938 -0.75,-1.5625 z m 6.42648,2.01562 v -1.0625 h 1.0625 v 1.0625 q 0,0.59375 -0.21875,0.95313 -0.20312,0.35937 -0.65625,0.5625 l -0.25,-0.40625 q 0.29688,-0.125 0.4375,-0.39063 0.14063,-0.25 0.15625,-0.71875 z m 5.4213,-2.01562 0.9375,-0.125 q 0.15625,0.79687 0.54687,1.15625 0.39063,0.34375 0.9375,0.34375 0.65625,0 1.10938,-0.45313 0.46875,-0.46875 0.46875,-1.14062 0,-0.64063 -0.42188,-1.0625 -0.42187,-0.42188 -1.07812,-0.42188 -0.26563,0 -0.65625,0.10938 l 0.10937,-0.82813 q 0.0937,0.0156 0.14063,0.0156 0.59375,0 1.07812,-0.3125 0.48438,-0.3125 0.48438,-0.96875 0,-0.51563 -0.35938,-0.84375 -0.34375,-0.34375 -0.89062,-0.34375 -0.54688,0 -0.92188,0.34375 -0.35937,0.34375 -0.45312,1.03125 l -0.9375,-0.17188 q 0.17187,-0.9375 0.78125,-1.45312 0.60937,-0.51563 1.5,-0.51563 0.625,0 1.15625,0.26563 0.53125,0.26562 0.79687,0.73437 0.28125,0.45313 0.28125,0.98438 0,0.48437 -0.26562,0.89062 -0.26563,0.40625 -0.78125,0.65625 0.67187,0.15625 1.04687,0.65625 0.375,0.48438 0.375,1.21875 0,1 -0.73437,1.70313 -0.71875,0.6875 -1.82813,0.6875 -1,0 -1.67187,-0.59375 -0.65625,-0.60938 -0.75,-1.5625 z m 9.30902,2.01562 v -7.625 h 5.14062 v 0.89063 h -4.125 v 2.375 h 3.57813 v 0.89062 h -3.57813 v 3.46875 z m 6.3374,-6.54687 v -1.07813 h 0.9375 v 1.07813 z m 0,6.54687 v -5.53125 h 0.9375 v 5.53125 z m 2.35184,0 v -7.625 h 0.9375 v 7.625 z m 4.42999,-0.84375 0.125,0.82813 q -0.39063,0.0937 -0.70313,0.0937 -0.5,0 -0.78125,-0.15625 -0.28125,-0.17188 -0.40625,-0.4375 -0.10937,-0.26563 -0.10937,-1.10938 v -3.17187 h -0.6875 v -0.73438 h 0.6875 v -1.35937 l 0.9375,-0.5625 v 1.92187 h 0.9375 v 0.73438 h -0.9375 v 3.23437 q 0,0.39063 0.0469,0.51563 0.0469,0.10937 0.15625,0.1875 0.10938,0.0625 0.32813,0.0625 0.15625,0 0.40625,-0.0469 z m 4.69501,-0.9375 0.96875,0.125 q -0.23438,0.84375 -0.85938,1.3125 -0.60937,0.46875 -1.57812,0.46875 -1.20313,0 -1.92188,-0.75 -0.70312,-0.75 -0.70312,-2.09375 0,-1.39062 0.71875,-2.15625 0.71875,-0.78125 1.85937,-0.78125 1.10938,0 1.8125,0.76563 0.70313,0.75 0.70313,2.125 0,0.0781 0,0.23437 h -4.125 q 0.0469,0.92188 0.51562,1.40625 0.46875,0.48438 1.15625,0.48438 0.51563,0 0.875,-0.26563 0.35938,-0.28125 0.57813,-0.875 z m -3.07813,-1.51562 h 3.09375 q -0.0625,-0.6875 -0.35937,-1.04688 -0.45313,-0.53125 -1.15625,-0.53125 -0.64063,0 -1.09375,0.4375 -0.4375,0.42188 -0.48438,1.14063 z m 5.20777,3.29687 v -5.53125 h 0.84375 v 0.84375 q 0.32812,-0.59375 0.59375,-0.78125 0.28125,-0.1875 0.60937,-0.1875 0.46875,0 0.95313,0.3125 l -0.3125,0.85938 q -0.34375,-0.20313 -0.6875,-0.20313 -0.3125,0 -0.5625,0.1875 -0.23438,0.1875 -0.34375,0.51563 -0.15625,0.5 -0.15625,1.09375 v 2.89062 z m 3.18924,-1.65625 0.92187,-0.14062 q 0.0781,0.5625 0.4375,0.85937 0.35938,0.29688 1,0.29688 0.64063,0 0.95313,-0.26563 0.3125,-0.26562 0.3125,-0.625 0,-0.3125 -0.28125,-0.5 -0.1875,-0.125 -0.95313,-0.3125 -1.03125,-0.26562 -1.4375,-0.45312 -0.39062,-0.1875 -0.59375,-0.51563 -0.20312,-0.34375 -0.20312,-0.75 0,-0.35937 0.17187,-0.67187 0.17188,-0.32813 0.45313,-0.53125 0.21875,-0.15625 0.59375,-0.26563 0.39062,-0.125 0.8125,-0.125 0.65625,0 1.14062,0.1875 0.5,0.1875 0.73438,0.51563 0.23437,0.3125 0.3125,0.85937 l -0.90625,0.125 q -0.0625,-0.4375 -0.375,-0.67187 -0.29688,-0.23438 -0.82813,-0.23438 -0.65625,0 -0.9375,0.21875 -0.26562,0.20313 -0.26562,0.48438 0,0.1875 0.10937,0.32812 0.125,0.15625 0.35938,0.25 0.14062,0.0625 0.82812,0.25 1,0.26563 1.39063,0.4375 0.39062,0.15625 0.60937,0.48438 0.23438,0.3125 0.23438,0.79687 0,0.46875 -0.28125,0.89063 -0.26563,0.40625 -0.78125,0.64062 -0.51563,0.21875 -1.17188,0.21875 -1.07812,0 -1.64062,-0.4375 -0.5625,-0.45312 -0.71875,-1.34375 z" />
      <path
         style="fill:#000000;fill-opacity:0;fill-rule:evenodd"
         inkscape:connector-curvature="0"
         id="path137"
         d="M 417.43435,231.95159 V 246.5028" />
      <path
         style="fill-rule:evenodd;stroke:#595959;stroke-width:1;stroke-linecap:butt;stroke-linejoin:round"
         inkscape:connector-curvature="0"
         id="path139"
         d="m 417.43439,231.95162 v 8.55118" />
      <path
         style="fill:#595959;fill-rule:evenodd;stroke:#595959;stroke-width:1;stroke-linecap:butt"
         inkscape:connector-curvature="0"
         id="path141"
         d="m 415.78265,240.50279 1.65173,4.53809 1.65174,-4.53809 z" />
      <path
         style="fill:#000000;fill-opacity:0;fill-rule:evenodd"
         inkscape:connector-curvature="0"
         id="path143"
         d="m 417.43529,258.16179 0.50394,14.55118" />
      <path
         style="fill-rule:evenodd;stroke:#595959;stroke-width:1;stroke-linecap:butt;stroke-linejoin:round"
         inkscape:connector-curvature="0"
         id="path145"
         d="m 417.43526,258.16179 0.29626,8.55478" />
      <path
         style="fill:#595959;fill-rule:evenodd;stroke:#595959;stroke-width:1;stroke-linecap:butt"
         inkscape:connector-curvature="0"
         id="path147"
         d="m 416.08079,266.77374 1.8078,4.47821 1.49368,-4.59253 z" />
      <path
         style="fill:#000000;fill-opacity:0;fill-rule:evenodd"
         inkscape:connector-curvature="0"
         id="path149"
         d="m 417.93835,300.71844 -0.50394,14.55118" />
      <path
         style="fill-rule:evenodd;stroke:#595959;stroke-width:1;stroke-linecap:butt;stroke-linejoin:round"
         inkscape:connector-curvature="0"
         id="path151"
         d="m 417.93835,300.71844 -0.29626,8.55478" />
      <path
         style="fill:#595959;fill-rule:evenodd;stroke:#595959;stroke-width:1;stroke-linecap:butt"
         inkscape:connector-curvature="0"
         id="path153"
         d="m 415.99136,309.21603 1.49365,4.59256 1.80783,-4.47821 z" />
      <path
         style="fill:#000000;fill-opacity:0;fill-rule:evenodd"
         inkscape:connector-curvature="0"
         id="path155"
         d="m 417.43529,326.92864 v 14.55118" />
      <path
         style="fill-rule:evenodd;stroke:#595959;stroke-width:1;stroke-linecap:butt;stroke-linejoin:round"
         inkscape:connector-curvature="0"
         id="path157"
         d="m 417.43526,326.92864 v 8.55118" />
      <path
         style="fill:#595959;fill-rule:evenodd;stroke:#595959;stroke-width:1;stroke-linecap:butt"
         inkscape:connector-curvature="0"
         id="path159"
         d="m 415.78353,335.47982 1.65173,4.53812 1.65174,-4.53812 z" />
      <path
         style="fill:#000000;fill-opacity:0;fill-rule:evenodd"
         inkscape:connector-curvature="0"
         id="path161"
         d="M 417.43426,369.48529 V 384.0365" />
      <path
         style="fill-rule:evenodd;stroke:#595959;stroke-width:1;stroke-linecap:butt;stroke-linejoin:round"
         inkscape:connector-curvature="0"
         id="path163"
         d="m 417.43426,369.48529 v 8.55121" />
      <path
         style="fill:#595959;fill-rule:evenodd;stroke:#595959;stroke-width:1;stroke-linecap:butt"
         inkscape:connector-curvature="0"
         id="path165"
         d="m 415.78252,378.03649 1.65173,4.53809 1.65174,-4.53809 z" />
      <path
         style="fill:#000000;fill-opacity:0;fill-rule:evenodd"
         inkscape:connector-curvature="0"
         id="path167"
         d="m 417.43529,395.69549 v 14.55115" />
      <path
         style="fill-rule:evenodd;stroke:#595959;stroke-width:1;stroke-linecap:butt;stroke-linejoin:round"
         inkscape:connector-curvature="0"
         id="path169"
         d="m 417.43526,395.69549 v 8.55115" />
      <path
         style="fill:#595959;fill-rule:evenodd;stroke:#595959;stroke-width:1;stroke-linecap:butt"
         inkscape:connector-curvature="0"
         id="path171"
         d="m 415.78353,404.24664 1.65173,4.53809 1.65174,-4.53809 z" />
    </g>
  </g>
</svg>
